<?xml version="1.0" standalone="no"?>
<!DOCTYPE svg PUBLIC "-//W3C//DTD SVG 1.1//EN" "http://www.w3.org/Graphics/SVG/1.1/DTD/svg11.dtd" >
<svg xmlns="http://www.w3.org/2000/svg" xmlns:xlink="http://www.w3.org/1999/xlink" version="1.1">
<metadata></metadata>
<defs>
<font id="potta_oneregular" horiz-adv-x="1751" vert-adv-y="2048" >
<font-face units-per-em="2048" ascent="1802" descent="-246" />
<missing-glyph horiz-adv-x="819" />
<glyph unicode="&#xfb01;" horiz-adv-x="1511" d="M1354 207q2 -37 22.5 -62.5t53.5 -48.5q-14 -18 -37 -38.5t-67 -38t-126 -27.5q-29 -4 -69.5 3t-79.5 42t-63.5 109.5t-20.5 205.5v51v88.5t-1 91.5t-1 58q2 63 -17.5 92t-48.5 31t-55.5 -16.5t-40.5 -49.5q-18 -45 -32.5 -110.5t-12.5 -145.5l1 -38q1 -37 1 -92.5 t-3 -106.5t-14 -78q-33 -98 -132 -152.5t-300 -27.5q14 29 24.5 94t16.5 143t4 142q0 31 -6 141q-4 61 -22.5 118.5t-44.5 100.5q-14 25 -51 55.5t-68 46.5q-37 23 -54.5 84.5t-22.5 131t-5 116.5q6 -2 31.5 -7t54.5 -7t45 0q47 4 79 39t32 106q0 82 25.5 161t84 138.5 t152.5 75.5q131 25 227 33t209 -4q127 -12 195.5 -50t94 -81t25.5 -78q0 -45 -18.5 -95.5t-56.5 -84.5q-16 -12 -59.5 -27.5t-98.5 -12.5t-109 46q-14 12 -38.5 28.5t-57.5 22.5t-72 -18q-45 -29 -69.5 -70t-24.5 -74q0 -43 29 -64.5t65 -19.5q49 4 81 19.5t62.5 33 t76.5 25.5q35 6 83 1t96 -22.5t82.5 -51t41.5 -85.5q8 -78 6 -208t-4 -282.5t2 -299.5z" />
<glyph unicode="&#xfb02;" horiz-adv-x="1560" d="M1403 246q0 -43 24.5 -84t51.5 -51q-12 -14 -55.5 -42t-99.5 -50.5t-114 -26.5q-47 -4 -97 21.5t-84 74.5t-34 115v56v115.5v136.5t-1 121t-1 66q-2 39 -38.5 54.5t-71.5 1.5q-27 -8 -48.5 -18.5t-33.5 -37.5q-20 -43 -33.5 -109.5t-11.5 -146.5l1 -38q1 -37 1 -92.5 t-3 -106.5t-14 -78q-33 -98 -132 -152.5t-300 -27.5q14 29 24.5 94t16.5 143t4 142q0 31 -6 141q-4 61 -22.5 118.5t-44.5 100.5q-14 25 -51 55.5t-68 46.5q-37 23 -54.5 84.5t-22.5 131t-3 116.5q6 -2 30.5 -7t53.5 -7t45 0q47 4 79 39t32 106q0 82 25.5 161t83.5 138.5 t153 75.5q47 8 90 -1t88 -20.5t92 -11.5t100 25t126 28t142.5 -18.5t118 -70t50.5 -127.5q2 -39 3 -136.5t2 -227.5t3 -266t3 -257t1 -202v-95zM821 1077q18 2 50 2t62 12.5t40 47.5q4 14 5 47t-7 66.5t-28.5 54t-59.5 10.5q-76 -20 -114 -65.5t-38 -90.5q2 -43 26.5 -64.5 t63.5 -19.5z" />
<glyph horiz-adv-x="0" vert-adv-y="0" />
<glyph horiz-adv-x="682" />
<glyph unicode="&#xd;" horiz-adv-x="614" />
<glyph unicode=" "  horiz-adv-x="819" />
<glyph unicode="&#x09;" horiz-adv-x="819" />
<glyph unicode="&#xa0;" horiz-adv-x="819" />
<glyph unicode="!" horiz-adv-x="819" d="M528 526q-20 -27 -45.5 -46t-36.5 -38q-8 -16 5.5 -33.5t64.5 -39.5q76 -72 70 -179q-6 -94 -77 -155.5t-165 -54.5q-94 6 -155.5 76.5t-55.5 164.5q4 53 26.5 105.5t71.5 66.5q84 25 93 80q4 31 -11.5 73t-48.5 103q18 20 23.5 83t1.5 151t-14.5 188t-24.5 198.5 t-29.5 178.5t-30.5 127q70 55 148 62.5t145.5 -12t112.5 -44.5t49 -31q31 -29 38 -95t-1 -157q-8 -82 -22.5 -181t-33 -197.5t-37 -183.5t-35 -141.5t-26.5 -68.5z" />
<glyph unicode="&#x22;" horiz-adv-x="1148" d="M182 1632q4 51 52.5 83t109.5 32q63 0 117.5 -25.5t56.5 -76.5q2 -39 -3 -102.5t-13 -138.5t-18.5 -145.5t-19.5 -123t-15 -68.5q-6 -20 -36 -34.5t-69 -17.5t-71.5 9t-45.5 45q-10 27 -18 81t-14.5 123.5t-10.5 140.5t-4 129t2 89zM635 1632q4 51 51 83t111 32 q61 0 115.5 -25.5t56.5 -76.5q2 -39 -2 -102.5t-12.5 -138.5t-18.5 -145.5t-19.5 -123t-15.5 -68.5q-6 -20 -36.5 -34.5t-68.5 -17.5t-72 9t-46 45q-10 27 -18.5 81t-14.5 123.5t-9 140.5t-3 129t2 89z" />
<glyph unicode="#" horiz-adv-x="1785" d="M1593 1210q12 -12 12.5 -50t-12 -85t-32 -84t-45.5 -45q-2 0 -10 -2l-9 -2q-53 -2 -105.5 -20.5t-87 -62.5t-36.5 -120q0 -27 34.5 -47t75.5 -31.5t58 -13.5q23 0 34 3t13 5q12 -12 11 -51t-12.5 -85t-30.5 -83t-46 -45q-2 -2 -6 -2t-10 -2v-2q-70 -2 -121 -61.5 t-68 -178.5q-2 -16 -1 -39.5t5 -31.5q-16 -23 -59 -47.5t-95.5 -45t-98.5 -31.5t-70 -9q-45 4 -38 39.5t15 87.5q2 6 9 31.5t10 64.5q4 98 -10.5 156.5t-61.5 58.5q-23 0 -38 -36t-22.5 -88t-9.5 -102.5t2 -78.5q-14 -23 -57 -47.5t-95.5 -45t-99.5 -31.5t-69 -9 q-45 4 -40 39.5t15 87.5q4 20 11.5 48.5t9.5 49.5q10 82 -24 149.5t-122 75.5q-31 2 -52 35t-29.5 78t1 85t39.5 56q12 0 40 -2t58.5 -3t49.5 1q18 2 47 14.5t57.5 54.5t40.5 130q6 41 -31.5 71.5t-109.5 34.5q-31 2 -52.5 36t-29.5 79t1 85t40 56q16 -2 49 -2t80 -2h2 q41 0 76 45t43 111q0 6 6 39.5t10 79t5 87.5t-7 60l32 -1t78 -5t92 -16.5t77.5 -35t31.5 -59.5v-52t3.5 -109.5t13.5 -106.5q6 -35 19.5 -39t31.5 -2q12 4 28.5 35t30 75t19.5 85q10 59 18 125.5t-10 105.5l31 -1q32 -1 79.5 -5t93.5 -16.5t77.5 -35t31.5 -59.5v-106 q-8 -53 11.5 -91t50 -59.5t58.5 -32t40 -8.5l26 1q27 1 29 3zM983 836q6 41 -28.5 72.5t-67.5 25.5q-31 -6 -54.5 -56.5t-29.5 -91.5q-4 -27 0 -61.5t14 -60t27 -25.5q43 2 72.5 40t46 84t20.5 73z" />
<glyph unicode="$" horiz-adv-x="1423" d="M1341 492q-2 -76 -32.5 -159t-92 -158t-154.5 -128t-216 -72q-18 -2 -47 -28.5t-29 -59.5q-2 -31 -15.5 -42t-29.5 -19q-14 -6 -40 -5t-48 7q-20 8 -28.5 38t-10.5 44q0 16 -21.5 43t-68.5 35q-94 18 -178 53t-150 88q-18 16 -41.5 59t-33 97.5t10 107.5t86 91t195.5 44 q-25 -70 80 -131q31 -18 60.5 -13t42.5 28q12 20 20 60t9 86t-7 79q-6 29 -40 54.5t-62 33.5q-217 68 -314.5 172t-103.5 223q-6 133 53.5 234.5t162.5 169t230 92.5q12 4 38 22.5t34 57.5q4 23 6 38t2 42q0 14 31 24q20 6 46 6t46 -4q29 -10 29 -26q0 -33 2 -42.5t8 -31.5 q4 -20 24.5 -44t45.5 -28q100 -18 187 -61t145.5 -103.5t70.5 -128.5q6 -33 -23.5 -56.5t-77.5 -39.5t-97.5 -24.5t-83 -8.5t-35.5 9q-4 23 -24.5 45t-53.5 36q-18 8 -42 -2t-32 -51q-2 -10 -6 -44t-5 -75t5 -75q8 -35 37 -61.5t49 -33.5q147 -39 258 -92t172 -140t57 -232z M473 1200q-6 -35 -1 -56.5t48 -53.5q14 -12 42 -10.5t36 32.5q10 47 7 94t-11 70q-10 29 -38 22.5t-52.5 -34t-30.5 -64.5zM952 459q12 45 -10 79.5t-55 55t-51 24.5q-27 6 -44.5 -14t-25.5 -43q-6 -18 -7 -68.5t11 -99.5q6 -27 40 -40t54 -3q33 16 55.5 38t32.5 71z" />
<glyph unicode="%" horiz-adv-x="2033" d="M1722 1444q-2 -27 -54 -101.5t-137 -180t-185.5 -226.5t-202 -239.5t-188.5 -219t-143 -167t-67 -81.5q-39 -61 -45 -71l-6 -11q2 -57 -27.5 -120.5t-72.5 -92.5l-12 2q-11 1 -76 3q-41 2 -84 23.5t-67.5 64.5t-8.5 108q6 29 61.5 113t141.5 202.5t190.5 255t212 270.5 t202.5 247.5t165 189.5t96 92q47 31 102.5 41t103.5 3t77.5 -33.5t23.5 -71.5zM575 717q-39 -12 -99 -5t-127.5 32.5t-127 69.5t-98.5 106.5t-41 144.5q-2 104 22.5 200.5t96 164t211.5 81.5q141 16 247.5 -23.5t166 -127.5t59.5 -219t-50.5 -218t-122 -137.5t-137.5 -68.5z M381 1108q16 -29 54 -46.5t75 -14t45 33.5q12 47 -12.5 83t-83.5 40q-43 4 -73 -23.5t-5 -72.5zM1581 817q90 -2 158.5 -41t115 -100.5t71 -133t26.5 -139.5t-30 -138t-89 -131.5t-137 -99.5t-176 -38t-170 50t-121 129t-66.5 166t-7.5 161t58.5 133t112 100t133 62.5 t122.5 19.5zM1602 322q41 6 55 34.5t10 60.5t-20 48q-25 25 -63 36t-64 7q-31 -4 -50.5 -27.5t-22.5 -51.5t13 -46q25 -29 53 -49t89 -12z" />
<glyph unicode="&#x26;" horiz-adv-x="1882" d="M1735 399q47 -47 60 -110.5t-6.5 -127t-71.5 -114.5t-134 -74.5t-192 -5.5q-37 6 -75 24.5t-79 45.5q-20 14 -79.5 17t-110.5 -19q-80 -39 -171.5 -48.5t-205.5 -13.5q-174 -6 -294 48.5t-189.5 146.5t-93 204.5t-3 227.5t80.5 212t157 157q25 16 44 48t27.5 64.5 t1.5 51.5q-51 164 4.5 299t219.5 210q125 59 234.5 46t194.5 -72.5t138 -146.5t61 -177q10 -102 -39 -187t-133 -165q-33 -33 -44 -74t-3 -67q14 -55 76 -97q29 -20 68 -14t59 23q41 35 63.5 86t28.5 107.5t-6 99.5q104 16 162.5 -49.5t89.5 -174.5q14 -55 -11.5 -144 t-66.5 -198q-14 -37 -11 -73.5t25 -45.5q94 -35 152 -3t72 83zM758 1227q16 -20 42.5 -29.5t49.5 8.5q23 16 36 31.5t9 38.5q-8 49 -39 67.5t-62.5 9t-46 -41t10.5 -84.5zM694 643q-16 12 -57 23.5t-72 1.5q-70 -27 -85 -78t9.5 -106.5t76.5 -92.5t118 -35q31 2 60.5 23.5 t47 54.5t11.5 64q-8 45 -42 85t-67 60z" />
<glyph unicode="'" horiz-adv-x="698" d="M182 1632q4 51 52.5 83t109.5 32q63 0 117.5 -25.5t56.5 -76.5q2 -39 -3 -102.5t-13 -138.5t-17.5 -145.5t-18.5 -123t-15 -68.5q-6 -20 -37 -34.5t-69 -17.5t-71.5 9t-46.5 45q-10 27 -18 81t-14.5 123.5t-10.5 140.5t-4 129t2 89z" />
<glyph unicode="(" horiz-adv-x="1179" d="M567 653q0 -137 39 -262t102.5 -232.5t140.5 -189.5t150 -135q-27 -72 -81 -88q-31 -10 -78 -10t-97.5 12t-89.5 35q-82 47 -168 125t-157.5 188.5t-112.5 256t-35 329.5q6 150 54.5 280t122 239.5t158.5 195.5t165 144t139 85l166 -141q-74 -53 -148.5 -138t-135 -194 t-97.5 -236t-37 -264z" />
<glyph unicode=")" horiz-adv-x="1179" d="M612 653q0 137 -36.5 264t-97 236t-135.5 194t-148 138l165 141q59 -27 139.5 -85t165.5 -144t158.5 -195.5t121.5 -240t54 -279.5q6 -184 -34.5 -329.5t-112.5 -256t-158 -188.5t-168 -125q-37 -23 -87 -35t-98 -12t-79 10q-55 16 -82 88q74 53 151 135t140.5 189.5 t102 232.5t38.5 262z" />
<glyph unicode="*" horiz-adv-x="1112" d="M911 1262q16 -4 19.5 -35t-6 -65t-27.5 -48q-27 -20 -52.5 -33.5t-47.5 -5.5q-14 4 -30.5 13.5t-35.5 19.5q-8 6 -23.5 2t-18.5 -19.5t22 -43.5q-18 -41 -25.5 -62.5t-40.5 -34.5q-14 -6 -48 -5t-69.5 12.5t-61.5 34t-26 57.5q0 43 -18.5 52t-36.5 -16q-14 -14 -29.5 -23 t-25.5 -15t-45 13t-64 40q-18 16 -28.5 45t-9.5 54.5t18 31.5q29 8 64.5 20.5t74.5 28.5q18 6 15 36t-21 38q-57 29 -98 46t-54 17q-6 14 6.5 49t37 70t56 54.5t68.5 0.5q10 -4 26.5 -17t37.5 -30q12 -10 29.5 1t15.5 30q-4 43 -9 71l-4 29q37 -2 91.5 -3t99.5 -10t53 -38 q2 -10 -4 -65q-2 -18 23.5 -28.5t42.5 3.5q31 27 51 46t28 28q47 -27 71 -71t17.5 -88t-55.5 -71q-59 -33 -59 -59.5t20 -32.5q47 -12 86 -24z" />
<glyph unicode="+" horiz-adv-x="1230" d="M1149 848l-1 -39t-9.5 -91t-32 -94t-66.5 -51q-20 -2 -76.5 -5t-132.5 -5q-16 0 -40.5 -21.5t-28.5 -92.5q-2 -80 -6 -136.5t-8 -66.5q-10 -23 -55.5 -41.5t-98.5 -27.5t-92 -4t-37 32q0 8 1 44t1 82v87v55q0 37 -24.5 63.5t-73.5 28.5q-84 4 -142.5 7t-68.5 8 q-23 10 -42.5 53t-28.5 93t-4 87t32 35q16 -2 85.5 -6t170.5 4q47 4 66.5 25.5t24.5 47t5 44.5q-2 117 -2 197v79l41 -1q41 -1 96 -9t99 -31.5t53 -67.5q4 -20 5 -63t3 -102q4 -43 26.5 -79t71.5 -40q121 -6 163 -4z" />
<glyph unicode="," horiz-adv-x="768" d="M334 338q8 4 36.5 9t67.5 -3t75 -41t60 -106q25 -74 8.5 -145.5t-66.5 -128t-126 -87.5t-170 -24q-37 2 -37 16q2 12 21 20q18 12 50 49t28 72q0 27 -31 41q-10 6 -30.5 33t-33 65.5t-2.5 81.5q10 37 44 76t106 72z" />
<glyph unicode="-" horiz-adv-x="1224" d="M213 856q18 0 85 -1t161 -1h195.5t190.5 1t144 1h55v-32q0 -33 -4 -82.5t-14 -99.5t-31.5 -87t-56.5 -43q-33 -4 -107.5 -7t-167 -4t-181.5 1t-152.5 6t-75.5 10q-18 8 -33.5 45t-27 87t-13.5 97.5t5.5 79t27.5 29.5z" />
<glyph unicode="." horiz-adv-x="757" d="M377 -20q-74 0 -119 33.5t-63.5 82.5t-14.5 94q6 59 59.5 108.5t145.5 49.5q63 0 95 -10t50.5 -43t40.5 -98q16 -47 -3 -97.5t-68 -85t-123 -34.5z" />
<glyph unicode="/" horiz-adv-x="1421" d="M969 1507q47 29 101 38t98 -1t63.5 -35.5t-2.5 -64.5q-20 -37 -65.5 -117t-105 -189.5t-125 -230.5t-129 -240.5t-116.5 -221t-89 -170t-44 -87.5q-29 -68 -34 -79l-5 -11q2 -47 -27.5 -103t-72.5 -85l-12 1q-11 1 -76 3q-41 2 -85 29.5t-60.5 82t22.5 132.5 q18 41 63 129t105.5 205.5t130 249.5t140.5 260t134.5 237t113.5 180.5t77 87.5z" />
<glyph unicode="0" horiz-adv-x="1337" d="M702 23q-102 -2 -206.5 26.5t-163.5 73.5q-57 43 -123 125t-98 219q-35 150 -28 280t38 233t67 173q53 104 146.5 204.5t247.5 149.5q98 33 195 25t172 -37t104 -57q96 -86 144 -211t56.5 -270.5t-20.5 -297.5q-45 -238 -151.5 -390t-241.5 -208q-57 -25 -80 -29.5 t-58 -8.5zM612 430q90 -8 147.5 36t92.5 127t57 185q23 104 8.5 196.5t-68.5 151t-153 58.5q-96 -2 -153.5 -82t-81.5 -246q-8 -61 -9 -132t13 -136.5t50 -108.5t97 -49z" />
<glyph unicode="1" horiz-adv-x="958" d="M522 -51q-20 2 -44.5 14t-28.5 45q-2 20 -1 84t2 149t4 166.5t5 140t2 66.5q0 6 1 42t1 83t1 92.5t1 69.5q0 35 -15.5 74t-42 65.5t-65.5 22.5q-70 -10 -141.5 31t-118.5 123q68 78 150.5 146.5t167.5 112.5t157 46q82 4 158 -20.5t114 -65.5q33 -31 43.5 -64t-2.5 -90 q-4 -27 -12 -64.5t-16 -89.5q-4 -25 -10.5 -86t-11.5 -133.5t-9 -135t-4 -89.5v-75t1 -118.5t4 -137t7 -130.5q4 -47 13.5 -90t17.5 -57q-23 -27 -56.5 -45.5t-66.5 -29.5t-49 -17t-48 -14.5t-63 -14.5t-45 -6z" />
<glyph unicode="2" horiz-adv-x="1216" d="M997 -8q-39 -20 -107.5 -19.5t-141.5 21.5q-12 4 -60.5 18.5t-111 32.5t-121 37.5t-93.5 32.5q-98 37 -146 67.5t-61.5 62t-13.5 70.5q2 35 21.5 73t70.5 101q12 16 47 53.5t77 83.5t81 92t60 79q23 33 55.5 78t61 94t41 96t-6.5 84q-14 29 -67.5 28t-104.5 -36 q-49 -33 -84 -54.5t-90 -25.5q-68 -6 -126 15.5t-95 41.5q33 129 97.5 209t144 123t155.5 55q147 27 270 -12t189 -98q68 -63 105.5 -150.5t31.5 -173.5q-8 -88 -62.5 -189.5t-142.5 -215.5q-10 -12 -32.5 -42t-48 -65t-46 -64.5t-26.5 -39.5q-45 -84 22 -113 q18 -6 59.5 -16.5t90.5 -19.5t95 -16t75 -9q35 -2 57.5 -37t18.5 -72q-2 -37 -35 -92t-103 -88z" />
<glyph unicode="3" horiz-adv-x="1155" d="M442 -76q-27 10 -50 26.5t-27 45.5q-2 29 17 68.5t38 58.5q18 20 62 67.5t71 85.5q29 41 53.5 80t26.5 90q4 53 -35 81t-74 44q-12 4 -63 28t-115 48q-33 14 -64.5 43t-35.5 76q-6 63 23.5 104t76.5 62q8 4 44 16.5t83 27.5t89 32.5t63 29.5q29 18 56.5 42t39.5 61t-2 90 q-8 33 -56.5 45t-89.5 14q-20 2 -70 1t-134 -17q-35 -6 -91.5 6t-110.5 49t-85 103q63 41 112.5 74.5t102.5 57t125 33.5q170 25 296 -4.5t208 -89.5q80 -55 112.5 -120.5t34.5 -131.5q6 -109 -29.5 -190.5t-101.5 -140.5q-12 -10 -32.5 -31t-37.5 -39q-14 -16 -17 -30.5 t-1 -33.5q4 -35 28.5 -58t55.5 -48t53.5 -61.5t18.5 -98.5q-2 -86 -33 -170t-77 -158.5t-94 -135t-89 -97.5q-27 -25 -100 -46.5t-175 11.5z" />
<glyph unicode="4" horiz-adv-x="1406" d="M883 -53q-18 -8 -54 -11.5t-73 3t-62 24.5q-37 33 -46 72t-13 78q-2 39 -5 72.5t-18 66.5q-14 33 -37.5 56.5t-76.5 27.5q-20 2 -56 13t-77 24q-25 8 -81.5 30.5t-110.5 61.5t-75 100q-23 70 -13.5 189.5t71.5 269.5q27 63 57.5 134t59 136.5t51 114.5t32.5 68 q18 37 31.5 56t22.5 62q133 -18 193.5 -79.5t58.5 -129.5q-2 -66 -29 -126t-37 -78q-12 -29 -30.5 -88.5t-35 -125t-26.5 -116.5t-10 -66q2 -27 11 -52t48 -29q47 -6 68.5 11t29.5 44.5t13 50.5q6 23 13 70t15 99t13 87q6 55 43.5 104.5t101.5 51.5q63 2 99 -28t54.5 -69 t24.5 -69q8 -29 10 -75t2 -87v-59q2 -47 7.5 -73t29.5 -44q25 -18 57.5 -21.5t55.5 -7.5q59 -4 87 -28.5t38 -57.5t10 -63q2 -45 -33 -100.5t-118 -80.5q-39 -10 -76 -15t-49 -9q-10 -2 -34 -18.5t-32 -38.5q-4 -16 -6 -44t-2 -45q4 -39 29 -55q-12 -88 -51 -132t-70 -56z " />
<glyph unicode="5" horiz-adv-x="1359" d="M569 -51q-23 -2 -49 1t-43 19q-12 10 -39.5 35t-52.5 57.5t-27 65.5q-2 27 6.5 46.5t28.5 43.5q14 16 44 43t60.5 54.5t43.5 41.5q20 20 27 38t3 46q-2 31 -30.5 50.5t-59.5 29.5q-37 14 -85 30.5t-90 32t-66 25.5q-33 18 -66 54t-49 75q-14 39 -25.5 107.5t-15.5 138.5 q-2 35 -1 88t4 110.5t7 106.5t8 76q6 35 16.5 79t33 83t61.5 59q35 16 80 23.5t78 -2.5t72.5 -37t111.5 -37q29 -4 85 -11.5t122.5 -16.5t129 -16t109 -13.5t60.5 -8.5q76 -8 122 -40.5t68.5 -68.5t24.5 -57q8 -80 -12.5 -115.5t-50 -45t-48.5 -13.5q-43 -8 -109.5 -5 t-133 11.5t-109.5 12.5q-43 6 -107.5 13t-120 7t-75.5 -20q-33 -29 -44 -85t28 -99t105.5 -85t129.5 -77q59 -31 120.5 -73t105.5 -89t49 -90q8 -70 -2.5 -117t-36 -91t-64.5 -101q-29 -43 -75 -92.5t-96 -92.5t-93 -71.5t-68 -32.5z" />
<glyph unicode="6" horiz-adv-x="1271" d="M596 -53q-35 0 -95.5 3t-134 30.5t-153.5 97.5q-39 35 -65.5 92t-42 123.5t-19.5 127t-2 99.5q4 53 14.5 115.5t24.5 120t27 94.5q51 137 113.5 248.5t119.5 191.5t88 121q14 16 40 45t50.5 59.5t30.5 51.5q72 -14 134 -51t100 -79t38 -75q0 -49 -18.5 -75.5t-34.5 -49.5 q-10 -14 -35.5 -37.5t-51.5 -47.5t-38 -42q-16 -27 -23.5 -42t-3.5 -38q6 -18 44 -23.5t53 -7.5q127 -14 189.5 -51t92.5 -65q66 -57 97.5 -101.5t42.5 -91.5q20 -90 8 -164.5t-47 -177.5q-33 -88 -99.5 -166t-154.5 -149q-68 -53 -142.5 -67.5t-146.5 -18.5zM543 324 q59 -16 117.5 18.5t115.5 97.5q45 53 63.5 110.5t12.5 84.5q-10 45 -46 71.5t-78 35t-73 -6.5q-45 -20 -77.5 -44.5t-63.5 -78.5q-31 -55 -35 -102t-2 -80q4 -59 25 -79.5t41 -26.5z" />
<glyph unicode="7" horiz-adv-x="1370" d="M776 16q-14 0 -47 4.5t-58.5 33t-15.5 98.5q2 12 16.5 61t35 112.5t40 119t29.5 79.5q10 25 26.5 69t33 93t30 89t17.5 54q18 78 10 122t-25 71q-18 25 -39.5 30t-37.5 7q-10 2 -48 4t-75 3t-47 -1q-20 -2 -41 -15.5t-37 -48.5q-8 -14 -31 -61t-45.5 -106.5t-32.5 -110.5 t4 -70q-35 -55 -96 -81.5t-127 -12.5q-39 8 -75 42t-46 69q-10 37 -11 81t3 83q6 47 18.5 110.5t29 126t28.5 111.5t18 67t18.5 57.5t26 84.5t25.5 80.5t18 46.5q14 23 26.5 42t47.5 33q35 16 71 6t74 -32q45 -27 77 -57.5t58.5 -53t57.5 -26.5q117 -14 220.5 -38t179 -48.5 t104.5 -43.5q45 -27 65.5 -66.5t28.5 -66.5t11 -71.5t-7 -77.5q-6 -14 -19.5 -54t-31 -89.5t-34.5 -95.5t-30 -72q-12 -27 -31.5 -73t-39 -95.5t-34.5 -87t-22 -50.5q-4 -12 -16 -43.5t-23.5 -68.5t-14.5 -71t9 -50q-41 -94 -103.5 -121t-115.5 -31z" />
<glyph unicode="8" horiz-adv-x="1331" d="M573 -29q-201 25 -305 95.5t-127 136.5q-14 39 -17 73.5t-1 67.5q6 84 32.5 142.5t58.5 96.5t48 60q43 57 44 91t-15 67q-10 23 -44 46t-71 51t-57 58q-33 49 -36 119t15 121q8 27 37 75t80 101t123 97t166 63q41 6 70.5 7t62.5 5q96 10 178 -9t148.5 -55t112.5 -75 t67 -68q45 -57 76.5 -122.5t29.5 -124.5q0 -82 -17.5 -130.5t-39.5 -76.5q-25 -31 -53.5 -46.5t-47 -32t-20.5 -48.5q0 -27 22.5 -64t53.5 -86q14 -23 25.5 -76t6.5 -124.5t-42 -149.5q-25 -51 -66 -100.5t-109.5 -90t-179.5 -67.5q-51 -14 -115.5 -22.5t-93.5 -4.5z M623 1018q35 4 61.5 9t52.5 13q18 6 48 23.5t52.5 42t20.5 53.5q0 23 -32.5 44.5t-87 29.5t-126.5 -12q-47 -14 -89 -41t-64.5 -58.5t-12.5 -60.5q10 -27 43 -37t72 -9t62 3zM657 319q129 14 177.5 67.5t29.5 133.5q-4 18 -32.5 42t-79 37t-119.5 1q-55 -8 -101.5 -44 t-67 -81t-1.5 -82q20 -35 77.5 -57.5t116.5 -16.5z" />
<glyph unicode="9" horiz-adv-x="1275" d="M590 -45q-76 16 -104.5 69.5t-36.5 129.5q-4 41 -4.5 73.5t6.5 71.5q29 -10 55 4t45.5 36.5t26.5 37.5q25 47 12 86q-8 27 -39 45t-121 33q-61 10 -131 34.5t-137 94.5q-37 37 -54.5 97t-22.5 122.5t-1 105.5q12 123 48 203t77 128t63 71q88 90 186.5 121.5t203.5 33.5 q109 4 222 -47t187 -147q49 -63 76 -134t37 -131.5t10 -91.5q-2 -121 -27.5 -228t-59.5 -194t-64.5 -146.5t-43.5 -84.5q-16 -31 -59 -94.5t-100.5 -132t-120.5 -117.5q-37 -29 -66.5 -42t-62.5 -7zM492 807q72 -25 112.5 -12.5t68 48.5t54.5 81q29 45 41 95t6 93t-35 62 q-45 29 -102 1t-105 -79q-61 -70 -78.5 -132.5t-3 -104.5t41.5 -52z" />
<glyph unicode=":" horiz-adv-x="757" d="M385 1133q63 0 95 -10.5t50.5 -43t40.5 -98.5q16 -47 -3 -98.5t-68 -86t-123 -34.5t-119 34.5t-63.5 84t-14.5 94.5q6 57 59.5 107.5t145.5 50.5zM385 348q63 0 95 -10t50.5 -43t40.5 -98q16 -47 -3 -97.5t-68 -85t-123 -34.5t-119 33.5t-63.5 82.5t-14.5 94 q6 59 59.5 108.5t145.5 49.5z" />
<glyph unicode=";" horiz-adv-x="770" d="M391 1133q61 0 93 -10.5t50.5 -43t40.5 -98.5q16 -47 -3 -98.5t-68 -86t-123 -34.5t-119 34.5t-63.5 84t-14.5 94.5q6 57 59.5 107.5t147.5 50.5zM334 338q10 4 38.5 9t66.5 -3t75 -41t61 -106q25 -74 8.5 -145.5t-66.5 -128t-126 -87.5t-170 -24q-41 2 -37 16 q0 6 7.5 12t11.5 8q12 8 31.5 28t35 45.5t13.5 47.5q-2 10 -9.5 21.5t-23.5 19.5q-10 6 -30.5 33t-33 65.5t-2.5 81.5q10 37 45 76t105 72z" />
<glyph unicode="&#x3c;" horiz-adv-x="1132" d="M1004 449q47 -37 47 -93.5t-23.5 -113t-54.5 -97.5q-33 14 -105.5 53.5t-168 92.5t-196 113.5t-189.5 119t-151.5 104.5t-80.5 70l891 500l17 -36q18 -36 35 -87t18 -100t-33 -78q-16 -12 -76 -39t-133.5 -60.5t-132.5 -70.5q-27 -16 -31 -54t27 -55q59 -33 132.5 -66.5 t132.5 -61t75 -41.5z" />
<glyph unicode="=" horiz-adv-x="1044" d="M129 745q-23 10 -35 57.5t-12 104t11 96t38 37.5q18 0 85 -1t161 -1h195.5t190.5 1t145 1h55v-28q0 -29 -4.5 -71t-15.5 -86t-31.5 -75.5t-55.5 -38.5q-33 -6 -111.5 -9t-178 -3t-195 1t-163 5t-79.5 10zM131 662q18 0 85 -1.5t161 -1.5h195.5t190.5 1.5t145 1.5h55 l-1 -44q-1 -43 -9.5 -100t-31 -103t-65.5 -55q-33 -4 -111.5 -7t-178 -4t-195 1t-163 6t-79.5 11q-23 10 -35 57t-12 102.5t11 96.5t38 39z" />
<glyph unicode="&#x3e;" horiz-adv-x="1130" d="M127 449q18 14 76.5 41.5t131.5 61.5t132 66q31 16 28 54.5t-32 54.5q-57 37 -132 70.5t-134.5 60.5t-75.5 39q-35 29 -34 78t18.5 100t34.5 87l18 36l891 -500q-18 -25 -81 -70.5t-152 -104t-189.5 -119t-195.5 -113.5t-168 -92t-105 -54q-29 41 -53.5 97.5t-23.5 113 t46 93.5z" />
<glyph unicode="?" horiz-adv-x="1024" d="M856 848q-43 -57 -110.5 -99t-134 -76t-116 -63.5t-55.5 -64.5q-8 -49 13 -74q16 -18 52 -27.5t91 -15.5q78 -10 129 -74.5t51 -148.5q0 -94 -66.5 -159.5t-160.5 -65.5t-160.5 65.5t-66.5 159.5q0 80 47 137q31 41 28 57q-8 27 -94 47q-57 16 -103 62.5t-44 157.5 q51 25 96 58.5t98 72.5q74 55 115 110.5t49 143.5q4 59 -25.5 94t-79 56.5t-103.5 36.5t-99 33.5t-66 49.5q-14 23 -25.5 75t-18.5 111.5t-10 101.5l-3 42l42 -7q42 -8 109.5 -20t143.5 -27.5t144.5 -32t113.5 -32.5q123 -43 193.5 -125t95 -183.5t6 -200.5t-75.5 -175z" />
<glyph unicode="@" horiz-adv-x="2242" d="M2154 274q8 -43 1 -102t-54 -123.5t-157.5 -125t-307.5 -109.5q-178 -45 -379.5 -53.5t-397 30.5t-357.5 135q-172 104 -287 282.5t-131 448.5q-6 113 19.5 246t95 267.5t190.5 246.5q123 115 307.5 197t440.5 102q279 23 462 -34.5t295 -159.5q111 -100 160 -225.5 t55 -233.5q6 -94 -15 -201.5t-66.5 -213t-110 -197t-144 -153.5t-171.5 -85q-41 -10 -91.5 -19.5t-97.5 5.5q-66 20 -139.5 22t-139 -2t-110.5 -2q-106 6 -198.5 55.5t-155 136.5t-81 201.5t22.5 249.5q41 131 108.5 215t150.5 129t172.5 59.5t175.5 8.5q96 -6 179 -39 t149.5 -61.5t111.5 -28.5q-6 -16 -23.5 -67.5t-38 -121t-36 -143.5t-22.5 -138.5t4 -106.5t44 -46q43 -4 83 38t69.5 120t38.5 182q8 109 -16.5 217.5t-100.5 192.5q-76 82 -207 127t-338 24q-156 -14 -269.5 -65t-191.5 -123q-86 -78 -135 -171t-68.5 -182t-17.5 -157 q4 -188 60.5 -319.5t155 -213t229.5 -121.5t280 -49q156 -8 324 14.5t336 61.5q72 16 162.5 66.5t172.5 111.5zM1071 567q90 -2 129 50.5t51 140.5q14 88 -1 141t-109 53q-63 0 -102.5 -30.5t-61 -74.5t-31.5 -89t3.5 -89t45 -73t76.5 -29z" />
<glyph unicode="A" horiz-adv-x="1576" d="M1348 385q25 -59 69.5 -113.5t77.5 -81.5q-49 -102 -121 -149q-59 -39 -127 -45q-37 -4 -84 6t-97 58.5t-99 154.5q-14 35 -63.5 49.5t-105 17.5t-89.5 3q-35 0 -85.5 -2t-91 -16.5t-49.5 -51.5q-8 -33 -2 -67.5t27 -45.5q-35 -33 -68.5 -57.5t-68.5 -38.5 q-43 -18 -89 -18t-104 20q-27 10 -55.5 37t-38.5 74t16 119q2 6 20.5 65t48.5 156.5t65.5 216.5t73.5 245t74 242.5t64.5 210.5t45.5 150l16 55q18 10 68.5 25.5t107.5 17.5q63 4 123.5 -16.5t93.5 -81.5q14 -25 43 -94.5t68 -168t82 -210t85 -221t76.5 -204t59.5 -159 t33 -82.5zM702 649q53 4 62.5 31t11.5 61q0 23 -7 55.5t-20.5 58.5t-33.5 26q-29 0 -63 -40t-38 -81q-6 -39 7 -76t81 -35z" />
<glyph unicode="B" horiz-adv-x="1517" d="M1329 801q39 -33 63.5 -67t35 -90t6.5 -157q-2 -49 -17.5 -114.5t-52.5 -133t-102.5 -125t-166 -94t-245.5 -36.5h-41q-72 4 -172 3t-186 -1q-51 -4 -108.5 -4t-105 6t-69.5 18q14 29 25.5 87.5t17.5 128t4 132.5q0 16 -1 83t-2 166t-2 216t-1 234q0 121 -2 207t-39 106 q-35 23 -60.5 89.5t-25.5 172.5q8 -2 51 -5t82 -7q47 -2 134 -3t181 -1h143.5t130 -1t85.5 -1q127 0 223 -46t151.5 -122t55.5 -166t-27.5 -157.5t-54.5 -114t-25 -72.5q6 -43 40 -67.5t77 -63.5zM915 1159q4 27 -23.5 50.5t-73.5 39t-97 15.5t-78 -27t-35 -62.5t-4 -60.5 q6 -39 58.5 -54.5t99.5 -17.5t96 26t57 91zM834 381q74 2 111.5 22.5t52 53t18.5 65.5q6 45 -27 79t-90 52.5t-127 16.5q-70 0 -108.5 -31t-53 -71t-12.5 -70q6 -43 65.5 -81t170.5 -36z" />
<glyph unicode="C" horiz-adv-x="1568" d="M1317 1229q-25 -76 -76 -111t-106.5 -27.5t-94.5 54.5q35 27 22 58.5t-64.5 53t-131.5 15.5q-82 -4 -165 -53.5t-138 -141.5t-61 -229q-6 -141 28.5 -229.5t87 -134.5t105.5 -65.5t86 -25.5q43 -8 99.5 -11t113.5 7t98 35q37 23 92.5 60.5t106.5 84.5t76 97 q70 -47 87 -133.5t-15.5 -184.5t-113.5 -185t-210 -141.5t-305 -50.5q-82 2 -187.5 31t-212 91.5t-193.5 165.5t-132 257t-25 363q18 199 99 342t199 234t250 137t253 48q121 4 210 -36.5t144 -105t74.5 -137.5t-0.5 -132z" />
<glyph unicode="D" horiz-adv-x="1509" d="M1409 1092q10 -61 15.5 -133t-1 -173.5t-28.5 -248.5q-31 -199 -162 -333t-330 -175q-55 -12 -129 -17.5t-146.5 -8.5t-129.5 -7q-51 -10 -123 -14.5t-135.5 2t-92.5 22.5q16 29 26.5 87.5t17 128t4.5 132.5l-7 695q0 84 -1 153.5t-5 108.5q-4 43 -31.5 75.5t-39.5 65.5 q-33 90 -29 176q10 -2 46 -5t83 -7q51 -2 160.5 -6t224.5 -8l34 -2q34 -1 85 -5t106.5 -11t96.5 -17q133 -35 224 -95.5t147.5 -130t85 -136t34.5 -113.5zM694 389q84 20 159 80.5t119 164t32 253.5q-14 195 -101.5 270.5t-226.5 77.5q-39 2 -61.5 -51.5t-30.5 -171.5 q-4 -78 -6.5 -116t-1 -62.5t-1.5 -63.5l1 -37q2 -37 6 -91t10 -110.5t14 -95.5q10 -43 39 -48t49 1z" />
<glyph unicode="E" horiz-adv-x="1296" d="M934 373q29 4 73 10t83.5 15.5t54.5 21.5q27 -23 36 -91.5t-7 -142.5q-12 -63 -43 -118.5t-89 -67.5q-49 -10 -112.5 -12t-129 0t-119.5 4t-83 2t-89 -1t-106 -3q-53 -6 -116.5 -8t-116.5 4t-78 20q14 29 24.5 87.5t16.5 128t4 132.5l-4 375v174q0 74 -1 123t-1 53 q0 68 -6 146t-14.5 148.5t-14.5 115.5q-8 35 -12 68.5t-2 60.5q14 -6 78.5 -11t150.5 -10q6 0 59.5 -1t132.5 -3t164 -3t154.5 -1t102.5 2q84 4 142 13.5t79 25.5q25 -20 46 -76.5t23 -117.5q0 -59 -27.5 -111.5t-99.5 -71.5q-27 -6 -83 -10t-108 -5t-75 1 q-63 6 -130.5 -13.5t-115 -51t-49.5 -68.5q-2 -35 29 -57.5t81 -36t107.5 -17.5t108.5 -2q41 4 94 14.5t66 20.5q27 -23 38 -84t-1 -127q-10 -53 -41 -98t-86 -62q-43 -12 -74 -15l-31 -3q-121 0 -204 -42t-91 -99q-8 -49 21.5 -90t87.5 -46q39 -2 99.5 -1t118.5 4.5t85 7.5 z" />
<glyph unicode="F" horiz-adv-x="1294" d="M1147 1630q25 -20 45 -76.5t20 -117.5q-2 -57 -29.5 -108.5t-99.5 -70.5q-20 -6 -63 -9t-89 -4t-78 -2l-32 -1q-121 0 -205 -32.5t-90 -102.5q-6 -68 15.5 -92.5t56.5 -40.5q25 -10 85 -9t130 11t126 24.5t75 28.5q27 -23 37 -85t-2 -128q-10 -53 -41 -97t-84 -61 q-43 -12 -66.5 -14t-38.5 -4q-156 -4 -228.5 -85t-68.5 -208q2 -51 23.5 -97t46.5 -65q-2 -20 -10.5 -43.5t-28.5 -54.5q-27 -39 -72 -71.5t-116 -34.5q-74 0 -125.5 33.5t-77 115.5t-25.5 225v65.5t-1 154t-2 192.5t-2 185t-1 130q0 68 -6 146t-14.5 148.5t-14.5 113.5 q-8 35 -11 68.5t-3 60.5q14 -6 78.5 -11t150.5 -10q8 0 48 -2t93.5 -3t103.5 -3t77 -2h85t107.5 1t98.5 3q63 4 133 13.5t90 25.5z" />
<glyph unicode="G" horiz-adv-x="1626" d="M1505 932q23 -23 34 -67t3 -97q-6 -45 -30.5 -92t-73.5 -82q-39 -27 -57.5 -87.5t-24.5 -121.5q-8 -70 -36 -143.5t-85 -130.5q-45 -53 -130 -97.5t-231 -42.5q-82 2 -191.5 29t-221 87t-203.5 162.5t-141 254t-29 360.5q18 199 99 344.5t202 239.5t260 142t277 50 q121 4 211 -36.5t144 -105t73.5 -137.5t-0.5 -132q-16 -51 -46 -84t-65 -45q-43 -16 -88 -5t-78 50q35 27 21.5 58.5t-64.5 53t-131 15.5q-61 -4 -129.5 -35t-129 -86t-99.5 -135t-43 -182q-6 -141 25.5 -229.5t85 -133.5t114.5 -61.5t119 -16.5q49 0 80.5 31t25.5 74 t-73 82q-63 35 -82 67.5t-31 65.5q-20 53 -34.5 114.5t-12.5 104.5q16 -6 83.5 -19.5t157 -23.5t168.5 -12q84 0 162 5t136.5 17.5t78.5 32.5z" />
<glyph unicode="H" horiz-adv-x="1542" d="M1425 197q2 -37 11.5 -76t23.5 -70q-8 -8 -43 -28.5t-84 -37t-104 -12.5q-80 6 -132.5 66.5t-52.5 155.5q-2 20 -2 42.5v57.5q2 90 -36.5 156.5t-104 102.5t-143.5 36q-113 0 -194 -67.5t-89 -196.5q0 -18 3 -69.5t9.5 -103t12.5 -73.5q-23 -25 -68 -50.5t-94 -40 t-86 -7.5q-55 10 -106.5 73.5t-53.5 157.5q0 18 -1 103t-2 212t-2 273.5t-2 290t-2 262.5t-1 190v72q23 4 79 2t120 -19q70 -16 127 -55t65 -112q4 -35 6 -76t2 -71v-30q0 -80 37 -148.5t101.5 -107t140.5 -36.5q109 4 168 69.5t88 190.5q8 35 12 99t5 132t1 115v47 q23 4 74 2t109 -14q72 -14 136 -54.5t72 -117.5q4 -39 6.5 -125t1.5 -200t-3.5 -242t-4.5 -254t-2 -233t2 -181z" />
<glyph unicode="I" horiz-adv-x="636" d="M262 -18q-88 16 -124 118.5t-36 253.5q0 18 -1 92t-2 183.5t-2 236.5t-3 254t-4 234.5t-4 177.5t-4 84q31 6 95.5 3t135 -20.5t123.5 -57.5t62 -109q4 -33 6 -112t3 -186.5t1 -228.5v-238.5v-217t1 -166t3 -80.5q4 -43 16.5 -62.5t26.5 -48.5q-51 -55 -127 -89.5 t-166 -20.5z" />
<glyph unicode="J" horiz-adv-x="792" d="M285 -10q-80 23 -131.5 98.5t-71.5 159.5q-4 18 9 61t39 90t58 76q12 -31 33 -55.5t45.5 -30.5t44.5 19q16 23 23.5 94t6.5 176.5t-7 226.5t-14.5 241t-17.5 221t-16 168t-10 81q31 6 95.5 3t136.5 -20.5t125 -57.5t61 -109q4 -39 7.5 -131.5t5.5 -214t3 -254t0 -253 t-3 -210.5t-7 -125q-8 -88 -68.5 -157t-151.5 -97.5t-195 0.5z" />
<glyph unicode="K" horiz-adv-x="1495" d="M1257 346q90 -84 156 -108q-6 -25 -25.5 -66t-49 -82t-68.5 -69.5t-86 -30.5q-57 -2 -103.5 13t-97.5 52q-39 31 -91 79t-101.5 99.5t-77.5 85.5q-41 53 -88 90t-105 29q-33 -2 -40 -17t-13 -61q-4 -31 -2 -72.5t7 -78.5t5 -53q0 -37 14.5 -56.5t28.5 -36.5 q-35 -27 -108.5 -57.5t-163.5 -30.5q-59 0 -93 47.5t-48.5 115t-16.5 130.5q0 18 -1 100.5t-2 204t-1 262t-1 278.5t-2 252t-1 183v68q23 4 79 2t118 -19q70 -16 128 -55t66 -112q4 -47 5 -78t1 -64q0 -109 53 -137q59 -31 162 41q16 12 57.5 48t94.5 85t110.5 102.5 t105.5 99.5t78 75l31 28q18 -14 52 -67.5t61 -118.5q27 -66 34 -134.5t-28 -113.5q-14 -18 -46 -49t-69.5 -64.5t-72.5 -63.5t-53 -46q-39 -33 -65 -81t-32 -99t4.5 -102.5t44.5 -94.5q25 -29 74 -77t100 -96t82 -79z" />
<glyph unicode="L" horiz-adv-x="1357" d="M1237 406q27 -23 36 -89.5t-7 -138.5q-12 -59 -45 -113.5t-86 -64.5q-20 -4 -94 -5t-173.5 0t-201 2t-180 0t-111.5 -5q-84 -14 -171 -10t-122 24q14 29 24.5 87.5t16.5 128t4 132.5l-8 1262q23 4 79 2t119 -19q70 -16 125.5 -61t67.5 -115q4 -23 6 -89t3 -156.5 t0 -184.5t-1 -176t-1 -133l-1 -51q-2 -78 16.5 -140.5t53.5 -97.5q27 -27 65.5 -37t96.5 -14q25 -2 77 0t115.5 7t125.5 13.5t109.5 19t61.5 22.5z" />
<glyph unicode="M" horiz-adv-x="1939" d="M1823 215q2 -41 11 -80t24 -57q-18 -18 -56.5 -43t-86.5 -40t-101 -13q-80 4 -128 67.5t-50 157.5v68.5v107.5v94q0 35 -17.5 68t-40.5 39q-31 10 -51 -37q-4 -10 -26.5 -50t-50 -93.5t-51 -106.5t-32 -91t10.5 -46q-8 -20 -30 -59.5t-70 -67t-136 -21.5 q-47 4 -120.5 57.5t-141.5 194.5q-63 135 -103 183.5t-59 44.5q-16 -2 -25.5 -22.5t-17.5 -57.5q-4 -18 -4 -61.5t4 -96.5t15.5 -100.5t29.5 -71.5q-16 -10 -58 -34.5t-94.5 -44t-101.5 -19.5q-74 2 -123 39.5t-59 150.5q-2 18 -2 104.5v217.5v281.5v298t1 270t1 196.5v74 q23 4 76 2t116.5 -16.5t116.5 -46t74 -89.5l19 -38q20 -37 52.5 -97.5t70.5 -130.5t74 -137.5t63.5 -118.5t37.5 -72q35 -59 67 -81.5t69 -24.5q76 0 145 117q10 18 41 78.5t72 144.5t85 172t80.5 165t60.5 125l23 48q14 2 42 3t61 -3q57 -4 121.5 -22.5t112.5 -57.5 t55 -104q4 -35 6 -114t2 -186.5v-228.5t-1 -237.5t-2 -215t-1 -161v-74.5z" />
<glyph unicode="N" horiz-adv-x="1517" d="M1430 1432q4 -35 5 -118t1 -198v-241.5t-1 -251.5t-2 -227.5t-1 -167t2 -72.5q4 -16 -6.5 -52t-33 -68t-57.5 -38q-33 -8 -91 -1t-116.5 32.5t-93.5 74.5q-20 29 -62 83.5t-92.5 119t-98.5 125t-80.5 104.5t-40.5 54q-18 29 -60.5 58.5t-66.5 21.5q-25 -8 -37.5 -50 t-16.5 -90q-4 -31 -4 -93t1 -127.5t-1 -106.5q-2 -72 45 -137q-16 -10 -65 -32t-104.5 -38t-94.5 -14q-66 4 -116 67.5t-52 157.5q0 18 -1 103t-2 212t-1 274.5t-1 292t-2 264.5t-1 191v72q125 4 211 -18.5t143 -81.5q25 -23 72 -80.5t103.5 -130t110.5 -144t95 -126 t53 -70.5q33 -41 67 -64.5t56 -15.5q49 16 49 137l-4 594q23 4 79.5 2t119.5 -19q70 -16 127.5 -54.5t65.5 -112.5z" />
<glyph unicode="O" d="M1663 879q20 -190 -17.5 -338t-116.5 -255.5t-185.5 -176t-226.5 -102.5t-236 -34q-117 0 -238 31t-228.5 96.5t-188.5 170t-119.5 249t-18.5 334.5q16 164 82 306.5t170 247.5t239.5 163.5t288.5 54.5q10 0 31 15.5t55.5 30t83.5 9.5q92 -8 194.5 -75.5t195 -179 t156 -252.5t79.5 -295zM887 352q72 2 136 20.5t115.5 67.5t83 139.5t33.5 231.5q2 98 -43 190.5t-124.5 157t-182.5 74.5q-111 12 -188.5 -21.5t-127.5 -98t-77 -144.5t-33 -162q-12 -141 27 -231.5t104.5 -139.5t140.5 -67.5t136 -16.5z" />
<glyph unicode="P" horiz-adv-x="1572" d="M1051 1628q152 -23 240.5 -81t131.5 -134t55.5 -148.5t12.5 -123.5q0 -66 -22.5 -151t-75 -166t-138.5 -139t-215 -71q-23 -2 -57.5 -4t-62 -3t-33.5 -1q-78 -4 -142.5 -45t-102.5 -105.5t-40 -144.5v-75q0 -53 14.5 -97.5t22.5 -60.5q-49 -45 -86 -63.5t-92 -26.5 q-45 -6 -99.5 8t-97.5 54t-55 112q-2 12 -2 78.5t1 166t2 218t1 237.5v221q-2 111 -9 187t-32 96q-43 37 -66.5 115t-21.5 147q8 -2 45 -5t78 -7q20 0 67 1t103.5 5t110 7t85.5 5q45 4 120 8.5t169.5 2t190.5 -16.5zM807 989q29 -2 73 5t90 23.5t76.5 46.5t30.5 73 q0 59 -44 92t-106.5 45t-119.5 10q-84 -2 -143.5 -46t-59.5 -103q2 -39 32 -71t76 -52.5t95 -22.5z" />
<glyph unicode="Q" d="M1499 61q16 -29 47 -54t58 -48q-18 -37 -73.5 -80t-141.5 -60.5t-199 19.5q-43 14 -90 46t-100.5 59.5t-118.5 29.5q-117 4 -238 37t-229.5 98.5t-189.5 167t-118.5 245t-17.5 333.5q16 164 82 306.5t170 247.5t238.5 163.5t289.5 54.5q10 0 31 15.5t54.5 30t82.5 9.5 q92 -8 194.5 -75.5t195 -179t157 -253t80.5 -294.5q18 -186 -8.5 -298t-50.5 -159q-20 -49 -54 -101.5t-55 -76.5q-20 -25 -23.5 -76.5t27.5 -106.5zM897 1233q-147 16 -234.5 -35t-128 -152.5t-55.5 -238.5q-16 -162 36 -266.5t122 -151.5q47 -33 94 -8q41 18 66.5 61 t25.5 82q2 115 72 185l21 -23q20 -24 50.5 -57t57.5 -62q23 -20 54.5 -32.5t62.5 -10.5q72 0 96 60q25 61 24 110t-8 117q-6 98 -53 190.5t-124 157t-179 74.5z" />
<glyph unicode="R" horiz-adv-x="1617" d="M1210 649q-8 -2 -23.5 -22.5t-21.5 -42.5q-10 -33 6 -54q43 -51 111 -119.5t136.5 -130t117.5 -94.5q-37 -98 -116 -156.5t-175 -56.5t-188 86q-12 12 -47 54.5t-80 99.5t-90 114.5t-78 100.5t-41 53q-39 51 -74 22.5t-43 -118.5q-4 -53 1 -121.5t16.5 -122t23.5 -63.5 q-43 -33 -106.5 -61.5t-145.5 -34.5q-31 -2 -71.5 16t-70.5 60t-32 106q0 16 -1 85.5t-2 171t-1 210t-1 205t-1 156.5v59q0 121 -6 201.5t-49 123.5q-39 39 -58.5 113t-17.5 139q8 -2 49 -5t80 -7q27 0 77 1t107.5 3t106.5 3t73 3q18 0 68.5 1t118 1t137.5 -1t129 -5t92 -10 q135 -25 209 -90.5t105.5 -157.5t38.5 -201q4 -92 -21 -192.5t-84.5 -186.5t-157.5 -135zM608 1090q0 -66 31 -97.5t57 -38.5q37 -8 94.5 -0.5t115 29t97 56t39.5 79.5q0 59 -49 91t-123.5 40t-148.5 -4q-57 -8 -86 -51t-27 -104z" />
<glyph unicode="S" horiz-adv-x="1462" d="M737 1640q121 0 232.5 -42t188.5 -111.5t91 -149.5q10 -53 -14.5 -117.5t-77.5 -112.5t-129 -52q-27 0 -67.5 6t-78.5 24.5t-61 53.5q31 16 41 34.5t6 36.5q-8 41 -48 68t-97 33q-33 4 -76 -1t-79 -29t-50 -77q-8 -31 3 -66.5t56.5 -67.5t137.5 -54q141 -33 263 -72 t214 -96t142 -142t46 -212q-2 -84 -45 -176.5t-125 -171t-200.5 -128t-270.5 -49.5q-96 0 -198.5 16.5t-193.5 51.5t-161 92q-61 53 -86.5 133t-11.5 161t72.5 138t163.5 64q-20 -61 23.5 -120t131.5 -98.5t193 -48.5q109 -8 189.5 8.5t88.5 67.5q10 61 -24.5 98t-96 56.5 t-133 33t-133.5 27.5q-82 23 -165 58.5t-151.5 91t-111.5 135.5t-45 186q-2 125 51.5 222.5t145.5 164t209.5 100t240.5 33.5z" />
<glyph unicode="T" horiz-adv-x="1521" d="M1395 1649q25 -20 36 -80t9 -128.5t-20.5 -122.5t-53.5 -65q-14 -4 -58 -11t-81 -17q-35 -10 -92.5 -35t-98.5 -72q-33 -39 -53 -81t-22 -107q-2 -27 -2.5 -99.5t-0.5 -168t1.5 -187.5t1.5 -157.5v-77.5q-2 -61 12 -104.5t31 -51.5q-51 -39 -101.5 -65.5t-142.5 -38.5 q-35 -4 -78 19.5t-75 73.5t-34 124q0 74 -1 189.5t0 251.5t-1 273q-2 59 -17 112.5t-50 92.5q-35 41 -92.5 67.5t-143.5 35.5q-23 2 -61.5 12t-52.5 20q-23 16 -37.5 62.5t-22.5 103t-11 111.5t-1 90q8 -2 46 -6t91 -7t105 -6q37 -2 99 -4t134 -4t135.5 -3t104.5 -1 q55 2 128.5 4t142.5 5t110 8q41 4 87 11t82 16.5t48 17.5z" />
<glyph unicode="U" horiz-adv-x="1386" d="M1280 1432q4 -47 11 -152.5t11.5 -243t3.5 -282t-10.5 -273.5t-31.5 -215q-37 -141 -205 -217t-422 -76q-170 0 -289 63.5t-183.5 175.5t-72.5 257q-4 72 -6 183.5t-3 241.5t-1 257t1 232.5t1 168.5v64q23 4 79 2t118 -19q70 -16 128 -55t66 -112q6 -61 1 -183.5t-8 -279 t7 -324.5q2 -35 2 -80t13.5 -88t55.5 -71.5t130 -28.5t134 24.5t66.5 67.5t25.5 100.5t9 122.5q4 43 3 127t-3 188.5t-6 211t-8 196.5t-6 145l-2 56q23 4 79 2t119 -19q70 -16 127.5 -55.5t65.5 -111.5z" />
<glyph unicode="V" horiz-adv-x="1482" d="M1075 1636q141 -18 218 -81.5t98.5 -149.5t-9.5 -176q-10 -35 -41.5 -120t-73.5 -196.5t-87 -228.5t-83 -218t-62.5 -163.5t-24.5 -64.5q-55 -129 -98.5 -180.5t-102.5 -51.5q-41 0 -87 22.5t-79 54.5t-39 60q14 16 14 41t-4 46.5t-6 25.5q-4 10 -27.5 72.5t-61.5 160 t-85 216t-96 242.5t-94 240t-82 208t-58 146l-22 54q31 4 97.5 9.5t145 -1t147.5 -33t101 -85.5q8 -16 25.5 -60.5t39 -102.5t42 -117.5t36 -103.5t21.5 -61q14 -39 37 -64.5t45 -29.5q23 -2 48.5 16.5t39.5 51.5q6 14 25.5 76.5t45.5 147.5t49.5 170t37.5 148.5t10 79.5z " />
<glyph unicode="W" horiz-adv-x="2205" d="M1778 1638q141 -18 224 -89.5t109.5 -166t-4.5 -184.5q-12 -35 -36.5 -113.5t-56.5 -183t-65.5 -215.5t-64.5 -209t-52.5 -165.5t-29.5 -86.5q-37 -84 -72.5 -131t-81.5 -68.5t-116 -27.5q-49 -4 -91 21.5t-72 62.5t-42 61q12 12 7 49t-19.5 85.5t-30.5 92.5t-27 68 q-20 51 -45.5 66.5t-48.5 13.5q-25 -2 -50.5 -24.5t-35.5 -63.5q-6 -27 -20.5 -75t-26.5 -90t-14 -52q-25 -86 -45.5 -126t-42 -53.5t-54.5 -23.5q-47 -8 -99 2.5t-100 34t-82 50t-44 46.5q27 23 19.5 58t-15.5 55q-20 53 -55 151.5t-79 222.5t-90 258t-90 260t-80 226.5 t-57 160.5l-20 60q31 4 96.5 9.5t141 0t142 -32t99.5 -85.5q8 -12 24.5 -68.5t37 -131.5t40 -149.5t33 -128t15.5 -63.5q14 -51 35.5 -76.5t41.5 -29.5q45 -10 80 73q4 8 15.5 54.5t28 116t34 146.5t31.5 146.5t23.5 117.5t9.5 56q31 25 86 27t107 -19.5t71 -72.5 q6 -18 25.5 -82t47 -151t57.5 -178t58 -165q39 -102 90 -106q55 -4 93 106q18 57 36.5 130t34 149t28.5 138.5t23 96.5q18 72 19.5 123t-8.5 92z" />
<glyph unicode="X" horiz-adv-x="1640" d="M1554 131q12 -18 -8 -47t-57 -56.5t-76 -39.5q-37 -12 -98.5 6t-126 60t-107.5 98q-8 10 -25.5 35.5t-37.5 52.5q-12 18 -34.5 44.5t-59.5 46t-93 17.5q-82 -4 -143 -56t-115 -110q-53 -57 -67 -95t-4 -69q-41 -23 -93.5 -29.5t-101.5 -0.5t-82 22q-12 6 -40.5 24.5 t-56.5 42t-41 50.5t3 51q20 29 66.5 84t100.5 119.5t103.5 122t75.5 88.5q53 63 71.5 121.5t20.5 128.5q2 113 -57 215q-14 23 -52 82t-88 134t-96.5 145.5t-76.5 116.5l-31 46q29 12 89 24.5t136 14.5t146.5 -15.5t119.5 -66.5q8 -8 31 -38t50.5 -65.5t45.5 -66.5 q29 -45 75 -75.5t93 -35.5q41 -4 80 7.5t80 50.5q49 41 86 107.5t60.5 129t25.5 88.5q102 -41 159.5 -106.5t74 -142t1 -149.5t-56.5 -130q-10 -14 -50 -59t-88 -99.5t-87 -97.5q-27 -29 -27 -76q0 -57 37 -116q41 -61 91.5 -140.5t101.5 -158t92 -141t61 -93.5z" />
<glyph unicode="Y" horiz-adv-x="1519" d="M1171 1686q133 -51 198 -126t69 -160t-45 -165q-27 -43 -78 -117t-121 -170q-70 -94 -119 -220t-67 -243q-2 -84 -1 -163.5t9 -118.5q6 -37 32 -55l27 -17l-11 -29q-11 -30 -49 -65t-118 -51q-78 -14 -142.5 12.5t-99 92t-26.5 159.5q2 18 2 66.5v109.5t-2 119 q0 43 -14.5 108.5t-38 139t-53 140t-60.5 114.5l-293 444q-27 41 -58 67l-30 25q20 14 76.5 32.5t128 28t139.5 -4t111 -66.5q18 -20 49.5 -66.5t64.5 -94.5t47 -73q25 -35 63 -74.5t107 -43.5q29 -2 56.5 11t48.5 34q23 23 53.5 81t54.5 101q37 66 62.5 131.5t27.5 106.5z " />
<glyph unicode="Z" horiz-adv-x="1368" d="M903 389q72 -14 141.5 -19t122 -2t74.5 9q8 -35 4 -87t-21.5 -106.5t-52 -97.5t-90.5 -59q-35 -10 -108.5 -19.5t-168.5 -15.5t-196.5 -7t-193.5 4t-161 18t-97 34q-55 45 -60.5 111.5t22 136t68.5 117.5q25 29 74 94t107.5 146t114 160t94 135t47.5 71q20 37 23 72.5 t-7 62.5q-12 35 -42 58.5t-89 31.5q-31 4 -78 9t-99 14.5t-94 23.5t-63 35q-27 27 -48.5 79t-32.5 112.5t-11 107.5q10 -4 72.5 -8t153.5 -8.5t190.5 -7.5t188.5 -5t144 -2q147 -2 262 7.5t164 21.5q29 -53 30 -119.5t-18.5 -133.5t-51.5 -122q-8 -14 -39 -60t-75 -111.5 t-93 -136.5t-92.5 -134.5t-73 -106.5t-35.5 -53q-66 -100 -39 -162.5t133 -87.5z" />
<glyph unicode="[" horiz-adv-x="921" d="M211 1645q6 0 53 1t111.5 1h131t115 -1t56.5 -4q16 -4 35.5 -15t23.5 -40q10 -57 -2 -100q-8 -29 -27.5 -39t-41.5 -12q-37 -2 -73 -8.5t-61 -10.5q-66 -14 -91 -46t-25 -66v-1227q0 -33 25.5 -65.5t90.5 -45.5q25 -4 61 -9t73 -9q23 -2 42 -12.5t27 -38.5q12 -43 2 -103 q-4 -27 -23.5 -38t-35.5 -15q-8 -2 -56.5 -3t-115 -2t-131 0t-111.5 1t-53 2l-29 6q-2 12 -2 44v65v1675v62.5t2 45.5z" />
<glyph unicode="\" horiz-adv-x="1421" d="M453 1503q27 -16 76 -88t113.5 -180.5t135 -236.5t139 -259t130 -248.5t105.5 -205.5t65 -129q39 -78 21.5 -132.5t-60.5 -82t-84 -29.5q-68 -2 -79 -3l-11 -1q-41 29 -71 84t-28 104l-5 12q-5 11 -36 76q-8 18 -44 88t-89 171.5t-116.5 220t-129 240.5t-124 231.5 t-103.5 189.5t-65 117q-25 39 -5.5 64.5t63.5 34.5t99.5 1t102.5 -39z" />
<glyph unicode="]" horiz-adv-x="923" d="M711 1645l28 -7q4 -37 4 -108v-1675q0 -33 -1 -65t-3 -44l-28 -6q-6 -2 -52.5 -2t-112 -1t-131 0t-113.5 2t-56 3q-18 4 -38 15.5t-24 37.5q-4 29 -3 55.5t5 47.5q8 29 27.5 39t44.5 12q35 4 71 9t62 9q66 12 91.5 45t25.5 66v1227q0 35 -25.5 66.5t-91.5 45.5 q-27 4 -62.5 10.5t-70.5 8.5q-25 2 -44 12t-28 39q-4 23 -5 48.5t3 51.5q4 29 23.5 40t38.5 15q8 2 56 3.5t113.5 1.5h131t112 -1t52.5 -1z" />
<glyph unicode="^" horiz-adv-x="1081" d="M584 1642q6 -10 43 -50t88 -94t107.5 -110.5t103.5 -99.5t73 -57q-27 -45 -89 -82t-138 -16q-82 20 -162 77q-16 12 -63 17.5t-82 -21.5t-75 -45t-81 -28q-76 -20 -138 16.5t-89 81.5q25 14 73 58t104 101.5t108.5 113t88.5 94t42 44.5q14 16 42 19.5t44 -19.5z" />
<glyph unicode="_" horiz-adv-x="1871" d="M1679 -55q20 -23 11 -80q-12 -55 -78 -55h-1352q-66 0 -76 55q-6 27 -3 48t12 32q12 16 27.5 22t29.5 6h1372q14 0 29.5 -6t27.5 -22z" />
<glyph unicode="`" horiz-adv-x="1126" d="M561 2054q49 -29 105.5 -68.5t107.5 -80.5t86 -78t41 -60q16 -61 -9.5 -102t-76.5 -25q-27 10 -95.5 35t-154.5 62t-164.5 81t-121.5 89q-35 35 -25 65.5t47 52t87 34t97 12t76 -16.5z" />
<glyph unicode="a" horiz-adv-x="1392" d="M1212 371q2 -45 7.5 -110.5t26 -127t65.5 -98.5q-51 -35 -104.5 -50.5t-104.5 -7.5q-14 4 -30.5 9.5t-45.5 13.5q-47 14 -110.5 6t-132 -21.5t-134.5 -13.5q-106 0 -212.5 38t-192.5 118t-131 203t-27 295q12 119 67.5 218t136.5 171.5t172 112.5t177 38q66 -2 101.5 -4 t93.5 -10q35 -4 88 10.5t107 31.5t93 17q59 2 84 -3t41 -9q-12 -37 -20 -110.5t-11.5 -167t-5.5 -193.5t-1 -192t3 -164zM442 559q4 -102 38 -158.5t82 -79t93 -22.5q90 -2 133 69.5t41 198.5q0 35 -7 82t-24.5 92t-47 76t-76.5 31q-94 0 -165 -69.5t-67 -219.5z" />
<glyph unicode="b" horiz-adv-x="1300" d="M1214 625q18 -172 -26.5 -295t-130.5 -203t-192.5 -118t-213.5 -38q-49 0 -119.5 10.5t-128.5 -8.5q-18 -6 -34.5 -10t-42.5 -2q-25 2 -64 22.5t-73.5 60.5t-49.5 95q-16 61 -27.5 169t-17.5 241t-8 275.5t-3 278.5t0 246.5t1 181.5t-2 83q31 6 91 3t126 -20.5t117 -57.5 t63 -109q10 -68 17.5 -130.5t52.5 -91.5q16 -10 46 -15t62 -7q150 -2 270 -77t195.5 -200.5t91.5 -283.5zM674 281q72 2 116 41.5t64 101t20 125.5q0 66 -14 132.5t-54 112.5t-114 46q-59 0 -102 -42t-65.5 -104.5t-24.5 -122.5q-2 -57 16.5 -125.5t58.5 -116.5t99 -48z" />
<glyph unicode="c" horiz-adv-x="1226" d="M1042 885q-8 -43 -36.5 -80t-66.5 -60.5t-73 -25.5t-57 24q39 27 19.5 51.5t-64.5 39t-88 8.5q-106 -16 -157.5 -91t-65.5 -171q-10 -82 17.5 -146.5t77.5 -102.5t109 -40q133 -2 221.5 39t138.5 95t68 89q49 -35 57.5 -100.5t-20 -141t-90 -145.5t-149.5 -114t-201 -44 q-59 0 -141 14.5t-167 53.5t-156 112.5t-108.5 190.5t-23.5 287q10 131 70.5 232.5t148.5 172t185.5 108.5t185.5 40t159.5 -27t121 -75t71.5 -97t14 -96z" />
<glyph unicode="d" horiz-adv-x="1398" d="M1214 254q35 -41 103 -57q-10 -43 -25.5 -92.5t-47.5 -86t-91 -47.5q-27 -6 -68 4.5t-98 24.5q-37 10 -94 5t-107.5 -13t-66.5 -12q-23 -6 -45.5 -7.5t-44.5 -1.5q-106 0 -210 38t-185.5 118t-123.5 203t-24 295q12 119 64.5 221t130 179t167 119t175.5 42h35.5t33.5 2 q37 6 72 41t47 86q6 29 8 67.5t2 47.5q6 47 35 80.5t68 54.5q53 29 116.5 41t117.5 13t81 -5q-2 -12 -8 -88t-14.5 -190.5t-16.5 -251t-13 -273.5t-5 -256t8 -198.5t24 -102.5zM453 557q-6 -80 19.5 -132t65.5 -77.5t78 -28.5q74 -2 114 38t54.5 106.5t14.5 142.5 q0 115 -45 166t-142 45q-61 -4 -105 -59.5t-54 -200.5z" />
<glyph unicode="e" horiz-adv-x="1269" d="M1114 514q51 -35 66.5 -99.5t-4 -140t-77 -144.5t-154.5 -114t-234 -47q-115 -2 -224.5 29t-198.5 94.5t-144.5 163.5t-61.5 240q-2 29 0 59.5t4 62.5q0 8 1 16.5t3 16.5q20 123 85 225.5t159 174t201.5 105.5t212.5 24q162 -16 250.5 -86t116.5 -171.5t1 -217.5 q-14 -57 -64.5 -113.5t-124 -101t-156.5 -68t-161 -19.5q-39 2 -41 -23.5t22.5 -55t65.5 -39.5q96 -20 181.5 -1t130.5 54q37 29 77.5 77t67.5 99zM666 721q47 4 82.5 29.5t35.5 54.5q2 41 -19.5 66.5t-72.5 23.5q-57 -2 -110.5 -16.5t-63.5 -59.5q-6 -31 18.5 -53.5 t61.5 -33.5t68 -11z" />
<glyph unicode="f" horiz-adv-x="1101" d="M825 1100q39 4 76 13t51 24q20 -20 31.5 -74.5t6.5 -118t-30.5 -117t-76.5 -71.5q-27 -8 -47.5 -19.5t-32.5 -38.5q-20 -43 -34.5 -108.5t-12.5 -147.5l1 -38q1 -37 1 -91.5t-3 -105.5t-12 -80q-33 -98 -133 -151.5t-301 -26.5q16 29 26.5 94.5t16.5 143t4 139.5 q0 12 -2 49t-4 92q-12 127 -67 221q-14 23 -52 53.5t-67 49.5q-37 23 -55.5 84t-23.5 129.5t-3 115.5q6 -2 30.5 -6t53.5 -6t45 -2q49 4 80 39t31 106q0 82 25.5 162t83.5 138.5t155 76.5q66 12 140.5 18.5t142 8.5t109.5 2h42v-42q0 -42 -9.5 -99.5t-35 -107.5t-76.5 -67 q-76 -25 -122 -80t-44 -98q0 -45 26.5 -56t65.5 -7z" />
<glyph unicode="g" horiz-adv-x="1284" d="M1196 1188q4 -94 3 -181t-1 -130q0 -23 1 -107t2 -202.5t-1 -245.5t-10 -236q-8 -119 -50 -209t-122 -133t-205 -25q-94 14 -142 57.5t-61.5 99.5t0 114.5t39.5 103.5q18 -23 50 -48.5t70 -38.5t73 -5q23 6 35 23.5t8 42.5t-58.5 56.5t-140.5 27.5q-33 -2 -51.5 -4.5 t-42.5 -2.5q-141 0 -260 57.5t-188.5 176.5t-61.5 303q6 119 57 214t132 161.5t172.5 100.5t177.5 28q10 0 40.5 -6t61.5 -11.5t41 -7.5q72 -12 161 -3t152 22q41 6 61 6zM588 829q-82 -8 -122 -61t-22 -133q8 -37 40 -73t77 -56.5t90 -16.5t80 15.5t55.5 48.5t20.5 117 t-32 115.5t-82 42.5t-105 1z" />
<glyph unicode="h" horiz-adv-x="1341" d="M1190 260q2 -37 13 -77t57 -58q-27 -35 -94.5 -77t-145.5 -54q-72 -10 -120 17.5t-71.5 80.5t-25.5 115q0 16 2 68.5t2 120t-1 129t-7 96.5q-12 68 -48 77t-81 -18q-72 -41 -118 -144.5t-48 -263.5q-2 -63 16 -90l19 -28l-21 -35q-20 -35 -73.5 -75t-155.5 -56 q-57 -8 -94 21.5t-53.5 85t-18.5 116.5l-6 1190q-2 84 -19 149l-16 64q51 6 119.5 4t135 -19.5t114 -58.5t55.5 -110q2 -14 5 -54.5t3 -81.5q-2 -57 16.5 -96t49.5 -59q35 -20 88 -13t94 21q41 16 68.5 24.5t58.5 12.5q35 4 82 -3t93 -32t80 -70t42 -114q14 -119 7 -290 t-3 -415z" />
<glyph unicode="i" horiz-adv-x="686" d="M311 1219q-70 -2 -124 38.5t-81.5 101t-21.5 116.5q10 84 75.5 118.5t137.5 36.5q102 4 159.5 -53t57.5 -131q0 -49 -21.5 -100.5t-66.5 -87t-115 -39.5zM528 207q2 -37 23.5 -62.5t52.5 -48.5q-14 -18 -36.5 -38.5t-66.5 -38t-126 -27.5q-27 -2 -68 5t-81 41 t-64.5 108.5t-20.5 205.5q2 23 1 88.5t-2 155.5t-2 186.5t-2 179t-2 134.5l-1 53q18 2 62.5 5t97.5 -1t103 -19.5t86 -48t42 -88.5q10 -78 8 -208t-6 -282.5t2 -299.5z" />
<glyph unicode="j" horiz-adv-x="759" d="M451 1219q-68 -2 -121.5 38.5t-81 101t-21.5 116.5q10 84 75 119.5t134 37.5q100 2 155.5 -55t55.5 -131q0 -49 -20.5 -100.5t-64 -87t-111.5 -39.5zM664 997q6 -47 9 -129t4 -181t0 -200.5t-3 -188.5t-6 -144q-6 -92 -44 -183.5t-96.5 -153t-128.5 -67.5 q-68 -6 -134 16.5t-115.5 56.5t-67.5 60q96 12 146.5 50t52.5 133v85.5v166t-1 211t-2.5 222t-2.5 199.5t-2 144l-1 55q18 2 62.5 5t97.5 -1t103.5 -19.5t86.5 -48.5t42 -88z" />
<glyph unicode="k" horiz-adv-x="1325" d="M963 424q10 -16 47 -59t83 -93.5t88 -90.5t62 -52q-33 -74 -109.5 -113t-169 -31.5t-173.5 68.5q-18 14 -52 52t-63 77t-65 79t-72 32q-18 -4 -34 -28.5t-16 -65.5q0 -35 15 -68l16 -33l-24 -20q-23 -21 -62 -45.5t-84 -34.5t-97 15.5t-89 75.5t-39 112q0 16 -1 86.5 t-2 176t-1 231.5t-1 254t-2 244t-1 198q0 53 -8.5 104t-17.5 85l-9 34q18 4 64.5 3t104.5 -10.5t114.5 -28.5t96.5 -56t46 -92q2 -16 3 -70.5t1 -117t-2 -103.5q-2 -61 16.5 -101.5t51.5 -58.5q33 -20 78.5 -14t99.5 34q27 14 76 45t101 64t88 56l36 22q18 -14 44.5 -57.5 t47 -98.5t21.5 -113.5t-33 -103.5q-6 -8 -23.5 -22.5t-50.5 -36.5q-61 -43 -87 -85t-38 -91q-8 -39 -1.5 -80t26.5 -74z" />
<glyph unicode="l" horiz-adv-x="681" d="M117 168v89v181.5t-1 238.5t-1 263t-1 253t-3 208q-2 84 -14.5 140t-14.5 69q25 4 74 3t109.5 -12.5t115.5 -35t92 -65.5t39 -105q2 -39 3 -136.5t2 -227.5t3 -266t3 -257t2 -202t1 -95q0 -43 23.5 -83t50.5 -50q-12 -16 -55 -43t-99.5 -49.5t-113.5 -28.5 q-47 -4 -97.5 21.5t-84 74.5t-33.5 115z" />
<glyph unicode="m" horiz-adv-x="1699" d="M1571 260q2 -25 13 -60.5t22 -64.5l12 -29q-10 -12 -43 -44.5t-83 -58.5t-114 -15q-113 20 -152.5 94t-41.5 168q0 16 2 63t3 105.5t0 111t-9 76.5q-12 47 -37 57.5t-51.5 -3t-45 -42t-18.5 -61.5q-2 -51 -2 -88t2 -96q0 -14 4 -53t10.5 -88.5t13.5 -95.5t15 -75 q-51 -37 -119.5 -61.5t-175.5 0.5q-55 12 -81.5 51t-36 91.5t-9.5 107.5v102q0 23 3 72t3 103.5t-10 86.5q-8 27 -25.5 34t-29.5 5q-33 -2 -56.5 -18.5t-31.5 -67.5q-4 -25 -5 -81t-1 -118.5t1 -109.5t3 -55q6 -29 24 -43l19 -13l-21 -25q-22 -26 -59 -58.5t-86 -56 t-107 -17.5q-55 4 -103 57t-50 148l-6 786q-2 74 -15 121l-14 47q20 4 73.5 6t119 -3t118.5 -30q33 -14 75 -11t73 22q35 18 70.5 32.5t72.5 18.5q43 4 104.5 -8.5t126.5 -45.5q41 -20 96.5 -28t75.5 6q41 29 87.5 49.5t93.5 26.5q35 4 83 -3t94 -32t80 -70t42 -114 q6 -59 7 -154.5t-1 -201t-3 -199t1 -150.5z" />
<glyph unicode="n" horiz-adv-x="1333" d="M1198 260q2 -90 28 -126l25 -36l-35 -26q-36 -25 -95.5 -51.5t-133.5 -26.5q-109 0 -141.5 59.5t-34.5 153.5q0 16 2 71.5t3 126t-1 131t-8 85.5q-23 82 -88 71q-51 -6 -96 -58t-74 -124t-29 -135q0 -33 -3 -64.5t-5 -58.5q-2 -18 5 -45t28 -43q-14 -25 -56.5 -64 t-90.5 -70.5t-83 -35.5q-33 -2 -76.5 20.5t-75.5 67.5t-34 108q0 16 1 76t2 144t2 178t1 182v152q0 55 -13 107t-26 86l-14 34q18 4 64.5 6t103.5 -2t113.5 -18.5t95.5 -44.5q41 -31 83 -38.5t66 7.5q72 47 145.5 82t143.5 43q35 4 82 -3t93 -32t80 -70t42 -114 q14 -119 8 -290t-4 -415z" />
<glyph unicode="o" horiz-adv-x="1302" d="M1217 625q18 -172 -27 -295t-132 -203t-194.5 -118t-214.5 -38q-104 0 -211.5 38t-192.5 118t-131 203t-28 295q18 158 95 276.5t197 187t263 76.5q8 2 17.5 13.5t33 20.5t72.5 5q117 -33 213 -112.5t161 -198t79 -268.5zM631 299q66 0 113 30.5t75.5 79t41.5 101.5 t13 96q0 88 -28.5 137.5t-130.5 87.5q-29 12 -39 33t-31 23q-68 8 -115 -37t-71.5 -121t-24.5 -164t34 -147.5t80 -89t83 -29.5z" />
<glyph unicode="p" horiz-adv-x="1286" d="M639 1184q182 14 307 -60.5t190.5 -207t67.5 -291.5q4 -147 -43 -261t-129 -193t-183 -120t-208 -41q-23 0 -58.5 -5t-58.5 -23q-14 -14 -19 -31t-3 -39q4 -37 17 -52.5t24 -33.5q-23 -25 -64 -53.5t-99 -45t-138 -3.5q-49 8 -86 63t-39 150l-6 952q0 115 -15 187l-14 73 q27 8 85 14t122 -8q25 -6 62.5 -13t82.5 -1q59 6 118.5 23.5t86.5 19.5zM678 332q66 0 123 68.5t57 193.5q0 84 -27.5 142.5t-68.5 88t-80 29.5t-79 -6t-69.5 -47t-37.5 -146q-10 -135 17.5 -204.5t74.5 -94t90 -24.5z" />
<glyph unicode="q" horiz-adv-x="1277" d="M1155 -72q2 -37 21 -56l20 -19l-26 -19q-27 -18 -69 -40.5t-88 -36t-85 -1.5q-51 16 -84 47t-53 101q-8 29 -27 56.5t-53 39.5q-33 10 -72 10h-66q-106 0 -201.5 41t-165 123t-103 208t-15.5 298q16 150 86 260.5t174.5 174t222.5 69.5q74 4 139.5 -11.5t123.5 -48.5 q25 -14 77 -41.5t88 -42.5q41 -14 83 -50t48 -89q6 -47 9.5 -132t5.5 -192.5t3 -224t3 -226.5t4 -198zM600 328q53 4 87 37.5t52.5 81t26.5 92.5t8 67q0 23 -4 67t-20.5 91t-52 78.5t-99.5 27.5q-63 -2 -103 -32.5t-62.5 -74.5t-31 -92t-8.5 -85q0 -51 18.5 -112.5 t63.5 -105.5t125 -40z" />
<glyph unicode="r" horiz-adv-x="1044" d="M739 1186q41 10 76 -20.5t62.5 -83t46 -106.5t28.5 -91l11 -37l-49 -10q-48 -9 -118.5 -34.5t-140.5 -76.5q-41 -31 -77.5 -74t-63.5 -109.5t-39 -174.5q-6 -55 -2 -114.5t4 -100.5q2 -37 11.5 -52.5t15.5 -25.5q-27 -25 -97.5 -54.5t-154.5 -29.5q-82 0 -121 53t-39 148 q0 23 -1 99.5t-2 185t-2 225t-2 218t-2 165.5l-1 63q20 4 70.5 6t110 -4t110.5 -29q25 -10 66.5 -19t81.5 -9t59 12q39 29 78.5 49.5t80.5 30.5z" />
<glyph unicode="s" horiz-adv-x="1243" d="M616 1190q152 0 259.5 -43t165 -106.5t55.5 -125.5q0 -33 -29 -73.5t-75 -68.5t-101 -21q14 37 -18.5 69.5t-94 54t-133.5 23.5q-82 4 -110.5 -17.5t-32.5 -45.5q-6 -27 24.5 -46.5t80.5 -35t106.5 -26.5t104.5 -19.5t75 -16.5q123 -37 180 -95t74.5 -123.5t13.5 -129.5 q-4 -102 -52 -171t-118.5 -109.5t-147.5 -60t-143.5 -26t-101.5 -6.5q-106 2 -199.5 21.5t-160 50.5t-95.5 66q-20 25 -38.5 69.5t-21.5 97t21.5 100.5t90.5 79q12 -41 66 -74t131 -53.5t153 -28.5q74 -6 139.5 2t71.5 47q4 20 -20.5 41t-90.5 35q-70 16 -122 25.5 t-103 21.5q-96 25 -168 78t-107.5 128t-25.5 159q16 121 89 198.5t181 116.5t227 39z" />
<glyph unicode="t" horiz-adv-x="1073" d="M952 1137q20 -20 31.5 -74.5t6.5 -119t-30.5 -117t-76.5 -70.5q-80 -29 -117 -102.5t-43 -186.5v-174q4 -33 27.5 -53.5t47.5 -28.5l23 -8l-7 -29t-25.5 -67.5t-53.5 -74.5t-90 -50q-29 -6 -77 -3t-97 19t-82 45q-18 16 -30.5 34.5t-17.5 55.5t-5 105v219 q-2 119 -51 197.5t-129 136.5q-37 27 -52.5 87t-19.5 127.5t-2 114.5q10 -2 55 -8t78 -6q66 2 90.5 51t24.5 123l-2 182q18 2 62 5t97.5 -1t103.5 -19t86 -48t42 -88q0 -6 1 -15.5t1 -21.5h2q0 -27 7 -63.5t22 -61.5q14 -20 44.5 -29.5t60.5 -10.5t44 3q23 6 33 11.5 t18 13.5z" />
<glyph unicode="u" horiz-adv-x="1288" d="M1135 260q0 -18 6 -55t17 -76t23.5 -68.5t24.5 -35.5q-29 -35 -92 -56.5t-127 -7.5q-49 14 -88 26.5t-106 10.5q-49 -2 -97.5 -10t-97.5 -19q-25 -4 -85 -3t-131 15.5t-130 49.5q-78 47 -117 137t-45 184q0 23 -1 88.5t-2 155.5t-2 186.5t-2 179t-1 134.5v53q18 2 62 5 t97.5 -1t103.5 -19.5t86 -48t42 -88.5q4 -45 6 -81.5t2 -80.5t-3 -108.5t-7 -163.5q-4 -80 -3 -137t27.5 -86t94.5 -25q45 2 74.5 36t48 83t25.5 100.5t7 90.5q0 8 -1 63t-2 132t-2 153t-1 126v50q18 2 61.5 1t96.5 -9t104.5 -28.5t87 -56.5t41.5 -91q12 -119 5.5 -290 t-0.5 -415z" />
<glyph unicode="v" horiz-adv-x="1181" d="M825 1178q121 -18 181.5 -57.5t80 -91.5t10 -115.5t-31.5 -131.5q-16 -51 -48 -129t-65.5 -159.5t-62.5 -147t-39 -92.5q-39 -90 -68.5 -142.5t-60.5 -77t-76 -30.5q-57 -8 -102 13.5t-70 66.5q-2 4 -8 41t-12.5 77t-12.5 52q-23 63 -58.5 152.5t-75.5 191.5t-80 200.5 t-72.5 179.5t-51.5 129l-20 48q31 4 86 10t117.5 2t118 -30.5t88.5 -85.5q10 -20 27.5 -64.5t33.5 -81.5q12 -25 25.5 -57.5t32 -57t42.5 -26.5q33 -2 54.5 26.5t34 64.5t18.5 52q18 47 35.5 99.5t26.5 98.5t3 73z" />
<glyph unicode="w" horiz-adv-x="1712" d="M1346 1192q139 -18 205.5 -85t76.5 -155t-20 -178q-16 -51 -46 -132t-62 -165t-57.5 -150.5t-37.5 -93.5q-49 -115 -102.5 -174t-139.5 -63q-47 -2 -89 29.5t-66 68.5q-6 8 -9.5 42t-5.5 70t-8 48q-4 14 -17.5 54t-35 76t-51.5 34q-25 -2 -47.5 -39t-63.5 -121 q-41 -88 -69.5 -144.5t-56.5 -83t-69 -26.5q-70 0 -110.5 25.5t-67.5 60.5q-6 8 -10 43t-7 72t-9 49q-23 63 -53.5 152.5t-62.5 191.5t-62.5 200.5t-56 179.5t-40.5 129l-14 48q31 4 84 10t113.5 2t113.5 -30.5t86 -85.5q8 -14 19.5 -50t24 -72t18.5 -55q10 -27 30.5 -50 t38.5 -25q37 0 55.5 33.5t25.5 77.5t9 75q2 14 0 52t-3 72l-1 34q31 4 79 11t102.5 5t103.5 -27.5t82 -84.5q10 -18 25.5 -65.5t31 -94.5t21.5 -70q10 -33 27.5 -46t31.5 -13q31 0 52.5 36.5t34.5 82t20 65.5q18 72 32.5 140.5t6.5 109.5z" />
<glyph unicode="x" horiz-adv-x="1124" d="M1034 180q10 -18 7 -57t-22.5 -75t-57.5 -48q-37 -12 -95.5 -2t-115 33.5t-86.5 50.5q16 29 5.5 62.5t-20.5 52.5q-2 4 -14 22.5t-30.5 34.5t-43.5 12q-10 -2 -27.5 -14t-37.5 -39q-27 -35 -23 -73l4 -38l-19 -24q-18 -25 -48.5 -51.5t-67.5 -32.5q-20 -2 -66.5 5 t-95.5 24.5t-77.5 48t-16.5 73.5q6 23 44 77t83 112q43 57 66.5 125.5t27.5 144.5q2 61 -9 120.5t-40 106.5l-174 302q29 12 76 24t105.5 12t116.5 -20.5t107 -69.5q4 -4 26 -28.5t42 -53.5q41 -51 62.5 -64t29.5 -15q23 -2 37 10t25 30q8 12 27.5 52.5t38 87.5t20.5 73 q137 -55 190 -117.5t42 -131t-68 -144.5q-4 -8 -15.5 -20.5t-17.5 -20.5q-23 -33 -35 -82t-8 -106q6 -106 63 -215q29 -53 50.5 -89t35.5 -65z" />
<glyph unicode="y" horiz-adv-x="1169" d="M805 1176q141 -18 205.5 -82t74 -150t-19.5 -176q-16 -51 -48 -130t-65.5 -161t-62.5 -146.5t-39 -90.5q-33 -76 -78 -161t-99.5 -159t-112.5 -121t-114 -47q-74 0 -119.5 37t-68 91t-29.5 106q53 -14 98.5 1t78.5 44q31 29 38 65.5t2 65.5q-10 115 -63 248l-301 745 q31 4 81 11.5t106.5 2t106.5 -31t83 -84.5q12 -20 29.5 -62.5t37 -88.5t31.5 -79q23 -49 48.5 -78.5t51.5 -31.5q23 -2 45.5 17.5t36.5 49.5q12 29 28.5 86.5t27.5 96.5q18 72 19 123t-9 90z" />
<glyph unicode="z" horiz-adv-x="1169" d="M997 829l-262 -288q-33 -33 -60.5 -84t-25.5 -84q0 -25 29 -42.5t55 -23.5q29 -4 78 -7t104.5 1t100.5 18q25 -20 25.5 -61t-17.5 -87t-54 -86t-87 -60q-41 -16 -115 -26.5t-161 -14.5t-173 0t-154.5 18t-103.5 39q-39 29 -65.5 72t-29.5 93t27.5 100t106.5 91 q53 59 125 137t135 146q4 4 5 6t3 4q35 39 29 74q-8 47 -66.5 67.5t-123.5 40.5q-25 6 -50.5 16.5t-40.5 22.5q-45 35 -74.5 109t-27.5 143q12 -4 66.5 -9t131 -10t158.5 -8t152 -3q145 0 240.5 2t132.5 34q68 -78 76 -137t-17 -100q-8 -20 -28.5 -49t-43.5 -54z" />
<glyph unicode="{" horiz-adv-x="1138" d="M874 -49q76 -47 83.5 -108.5t-31.5 -133.5l-34 5t-88 16.5t-114.5 28t-114.5 36.5q-90 39 -145 121t-31 209q18 86 23.5 140t2.5 93t-9 80q-8 41 -47 96.5t-125 79.5q-31 10 -47.5 31t-16.5 43q0 25 16.5 46.5t47.5 29.5q86 25 125 80t47 96q6 41 9 80t-2 93t-24 140 q-25 127 30.5 209t145.5 121q53 23 114 38t115 26.5t88 16.5l34 5q39 -72 31.5 -133t-83.5 -109q-35 -23 -71.5 -34t-62 -30.5t-23.5 -64.5q2 -63 9 -146t-3 -185q-8 -86 -78 -148.5t-156 -93.5q-35 -12 -34.5 -35.5t26.5 -34.5q86 -33 160 -94t82 -149q10 -102 3 -185.5 t-9 -146.5q-2 -45 23.5 -64.5t62 -30.5t71.5 -34z" />
<glyph unicode="|" horiz-adv-x="327" d="M111 1628q23 20 79 10q55 -8 56 -75v-1749q0 -66 -56 -76q-57 -10 -79 10q-14 10 -21.5 26.5t-7.5 28.5v1770q0 12 7.5 27.5t21.5 27.5z" />
<glyph unicode="}" horiz-adv-x="1138" d="M264 -49q37 23 74 34t61.5 30.5t22.5 64.5q-2 63 -8 146t2 186q10 88 82.5 149.5t158.5 93.5q29 10 28 34t-36 36q-84 31 -153.5 93.5t-79.5 148.5q-8 102 -2 185t8 146q2 45 -22.5 64.5t-61.5 31t-74 33.5q-76 47 -82 108.5t31 133.5l34 -5t88 -16.5t114.5 -26.5 t113.5 -38q92 -39 147.5 -121t28.5 -209q-16 -86 -21 -140t-2 -93t9 -80t45 -96.5t125 -79.5q33 -8 48 -29.5t15 -46.5q0 -23 -15 -43t-48 -31q-86 -25 -125 -80t-45 -96t-9 -80t2 -93t21 -140q27 -127 -28.5 -209t-147.5 -121q-53 -20 -113.5 -36.5t-114.5 -28t-88 -16.5 l-34 -5q-37 72 -31 133.5t82 108.5z" />
<glyph unicode="~" horiz-adv-x="1667" d="M82 696q41 59 104.5 121t137 117t146.5 94t132 51q129 27 221 9.5t161 -58.5t127 -88t120 -78q35 -16 90 -3t107.5 43t76.5 59q29 -47 52.5 -103.5t28.5 -118t-25 -125.5q-16 -37 -55.5 -79.5t-94.5 -79.5t-117.5 -52.5t-128.5 5.5q-84 27 -144 69.5t-108.5 84.5 t-94.5 65.5t-101 9.5t-83 -29.5t-56.5 -38t-90.5 -65.5q-47 -33 -104 -27t-114.5 39t-106.5 80t-80 98z" />
<glyph unicode="&#xa1;" horiz-adv-x="913" d="M338 770q23 27 49.5 46.5t34.5 37.5q8 16 -5.5 34.5t-64.5 39.5q-35 33 -54 80t-15 98q6 94 75.5 155.5t163.5 55.5t155.5 -77t55.5 -165q-2 -53 -25.5 -104t-70.5 -68q-86 -25 -92 -82q-6 -53 59 -174q-18 -20 -24.5 -82.5t-2 -150.5t14.5 -188.5t24.5 -199t31 -179 t28.5 -128.5q-70 -55 -146.5 -61t-145.5 13.5t-113 44t-50 30.5q-31 29 -37 95.5t2 156.5q8 82 22.5 181.5t32 197.5t37 183t35 141.5t25.5 68.5z" />
<glyph unicode="&#xa2;" horiz-adv-x="1226" d="M1085 512q53 -37 58.5 -107.5t-29.5 -150.5t-104.5 -149.5t-167.5 -106.5q-16 -8 -43 -29.5t-33 -68.5q-2 -29 -5 -81t-5 -96.5t-2 -48.5q0 -29 -7.5 -48t-35.5 -25q-57 -10 -80 10q-14 12 -17.5 30.5t-3.5 30.5v41t-1 91.5t-7 89.5q-8 43 -36.5 66.5t-51.5 27.5 q-78 18 -159 59t-147.5 115t-101 187.5t-20.5 275.5q12 139 77.5 245.5t163 177t199.5 103.5q18 6 46 37t30 76q6 102 6 152v52q0 12 4 28.5t19 29.5q23 20 80 10q49 -8 49 -70q0 -4 2 -55t4 -129q2 -63 28.5 -94t43.5 -37q70 -27 119 -73t71.5 -98t13.5 -97 q-10 -57 -43.5 -105.5t-74.5 -66t-70 17.5q25 16 31 48t-7.5 64.5t-48.5 49.5q-14 6 -32.5 -8.5t-30.5 -36.5q-10 -20 -15.5 -67.5t-5.5 -109t3.5 -121t8.5 -106.5t9 -63q12 -45 49 -64.5t76 -1.5q86 41 131 102.5t63 96.5zM424 575q0 -61 16.5 -125.5t63.5 -89.5 q29 -14 62.5 2.5t35.5 47.5q14 184 0 366q-2 33 -32.5 51.5t-53.5 -2.5q-66 -57 -79 -123t-13 -127z" />
<glyph unicode="&#xa3;" horiz-adv-x="1544" d="M1417 442q20 -37 31.5 -89t12.5 -108.5t-7 -102.5t-27 -68q-25 -31 -67.5 -61.5t-112.5 -30.5q-33 2 -68.5 10t-78.5 28q-70 31 -112 53.5t-91 35t-137 10.5q-57 0 -114.5 -29t-104.5 -60.5t-74 -43.5q-70 -29 -133.5 -7.5t-115.5 76t-93 121.5q49 57 106.5 124 t100.5 138.5t51 147.5q4 33 -2 70.5t-31.5 65.5t-87.5 28h-102q-29 0 -50.5 14t-25.5 41q-10 57 10 80q12 16 27.5 22t28.5 6h6q61 0 105 27t66.5 61.5t18.5 55.5q-6 35 -11 56.5t-9 51.5q-18 117 14.5 204t102 143.5t166 84t202.5 27.5q53 0 120.5 -18.5t134.5 -51 t121 -75.5t79 -93q-35 -45 -81 -100t-93.5 -88t-92.5 -14q-43 18 -78.5 41.5t-77.5 36t-106 -8.5q-31 -10 -45 -34.5t-18 -59.5q8 -92 56 -146.5t122 -77t154 -22.5h26q14 0 29.5 -6t28.5 -22q20 -23 10 -80q-4 -18 -24.5 -30.5t-41 -18.5t-24.5 -6q-119 0 -208 -55.5 t-122 -151.5q-16 -47 24.5 -74t110.5 -33t124 -25.5t93 -41.5q59 -31 118.5 -32t114 16.5t94.5 43t58 45.5z" />
<glyph unicode="&#xa4;" horiz-adv-x="1568" d="M1331 522q-25 -51 -14.5 -108.5t37.5 -91.5q37 -51 70.5 -81t35.5 -34q47 -47 15 -92q-33 -47 -64 -52q-18 -2 -33.5 5.5t-25.5 15.5q-2 2 -37 36t-94 79q-35 29 -94.5 36t-102.5 -12q-68 -29 -139.5 -43t-141.5 -14q-57 0 -115.5 9t-115.5 30q-55 18 -101 14t-85 -39 q-43 -39 -75 -66.5t-34 -29.5q-8 -8 -24.5 -15.5t-34.5 -5.5q-31 4 -64 52q-33 45 15 92q2 2 26.5 24.5t46.5 57.5q33 47 23 104.5t-29 89.5q-37 72 -52 164t-3 203q12 109 59 207q51 106 -16 203q-25 35 -43.5 54t-20.5 21q-8 10 -14 25.5t-4 34.5q4 33 49 63q45 33 92 -14 q2 -2 15.5 -17.5t40.5 -37.5q47 -39 123.5 -40t148.5 23q47 16 95 22.5t99 6.5q186 0 314 -66q53 -27 111.5 -12.5t97.5 47.5q35 31 55 51.5t23 22.5q47 47 92 14q45 -31 49 -63q4 -18 -2 -33.5t-17 -26.5q-2 -2 -36.5 -34.5t-77.5 -86.5q-29 -37 -31 -99t10 -97 q27 -76 37 -168q22 -197 -39 -328zM723 360q129 0 235.5 55.5t170 161t63.5 252.5q0 111 -40 184.5t-106.5 117t-146.5 61.5t-160 18q-57 0 -126.5 -26.5t-134 -78.5t-105.5 -131t-41 -186q0 -141 57 -236t147.5 -143.5t186.5 -48.5z" />
<glyph unicode="&#xa5;" horiz-adv-x="1587" d="M1042 565q6 -16 51.5 -23t102.5 -8.5t96 -1.5q84 2 138.5 5.5t62.5 7.5q12 -12 12 -50t-12 -85.5t-31.5 -84t-46.5 -44.5q-10 -2 -44 -4.5t-87 -4.5q-27 0 -72 -4t-91 -11t-76.5 -20.5t-28.5 -33.5q4 -37 32 -55l27 -19l-17 -29q-18 -28 -61 -63t-120 -51 q-106 -20 -176 38t-74 177q0 12 -22.5 40.5t-69.5 30.5q-100 2 -170 4.5t-89 4.5q-31 6 -52 39.5t-29.5 77.5t1 83t40.5 56q20 -2 68 -3.5t118 -3.5q31 0 69.5 3.5t69.5 16.5t31 44q2 25 -39 34t-98.5 10t-108.5 0t-70 3q-29 6 -50 41t-30.5 78t0 82t40.5 55q18 -2 63 -4 t109 -2q53 2 66 41t-6 97t-65 112q-74 92 -132 189t-101 161q-27 41 -58 67l-30 25q20 14 76.5 32.5t128 28t139.5 -5t111 -67.5q35 -39 77.5 -98.5t87.5 -133.5q80 -131 153 -130t155 112q20 29 36.5 61.5t34.5 65.5q35 63 61.5 130t28.5 108q133 -51 198 -126t69 -160 t-45 -167q-14 -25 -39 -59.5t-54 -75.5q-18 -25 -33.5 -58.5t-11 -66.5t40 -54.5t117.5 -21.5q18 0 47 3t33 5q12 -12 12 -50t-12 -85t-31.5 -84t-46.5 -45q-6 -2 -39 -3t-79 -3t-91 -3t-73 -1q-51 -2 -78 -13.5t-13 -52.5z" />
<glyph unicode="&#xa6;" horiz-adv-x="327" d="M111 1628q23 20 79 10q29 -4 42.5 -25.5t13.5 -49.5v-691q0 -66 -56 -75q-53 -12 -79 10q-14 10 -21.5 26.5t-7.5 28.5v711q0 12 7.5 27.5t21.5 27.5zM111 569q23 20 79 11q29 -4 42.5 -26t13.5 -50v-690q0 -66 -56 -78q-57 -10 -79 10q-14 12 -21.5 27.5t-7.5 29.5v709 q0 14 7.5 29.5t21.5 27.5z" />
<glyph unicode="&#xa7;" horiz-adv-x="1079" d="M856 209q43 -51 70.5 -112.5t34.5 -112.5q10 -80 -35 -161t-140.5 -133t-238.5 -46q-135 6 -219 49t-127 106.5t-53.5 135t6 137t49.5 112.5t73 62q-4 -41 15.5 -85t50.5 -83t60.5 -64.5t43.5 -31.5q33 -8 66 -3t34 34.5t-59 88.5q-23 25 -69.5 69t-102 98.5 t-102.5 107.5t-72 96q-49 90 -58 190.5t25.5 190.5t112.5 145q23 16 15.5 77t-60.5 143q-27 41 -41 81.5t-18 77.5q-8 82 37 162t140 132t238 46q135 -6 219.5 -48t127.5 -105.5t52 -135t-6.5 -137t-48 -112.5t-73.5 -62q4 41 -16.5 85t-50 83t-59.5 64.5t-46 29.5 q-33 10 -64.5 5t-33 -33.5t56.5 -89.5q23 -25 70 -69t102 -99.5t102 -108.5t72 -96q53 -92 59 -198.5t-32.5 -199t-128.5 -143.5q-18 -10 -18.5 -50t40.5 -89zM612 553q23 16 28 50t-5 73t-37 67q-10 12 -36.5 38t-54.5 39.5t-46 -11.5q-25 -37 -24 -89t42 -102 q10 -10 34 -32.5t51.5 -35.5t47.5 3z" />
<glyph unicode="&#xa8;" horiz-adv-x="1601" d="M807 1882q0 -78 -48 -137t-145 -62q-45 0 -92 20.5t-77.5 64.5t-28.5 114q2 55 30.5 100.5t72.5 73t89 27.5q53 2 98.5 -26.5t73 -75t27.5 -99.5zM1374 1882q0 -78 -48 -137t-144 -62q-45 0 -92.5 20.5t-78 64.5t-28.5 114q2 55 30.5 100.5t72.5 73t90 27.5 q53 2 98 -26.5t72.5 -75t27.5 -99.5z" />
<glyph unicode="&#xa9;" horiz-adv-x="2273" d="M2122 1069q16 -63 36.5 -167.5t30 -227.5t-9 -246t-76 -227.5t-172.5 -169.5q-6 -2 -7 -3l-1 -1q-16 -2 -75.5 -53.5t-127.5 -125.5l-6 -2t-40 -9t-113 -27q-152 -37 -317 -49.5t-325.5 8t-305 81t-258 166t-185.5 263t-86 374.5q-6 113 20.5 248t96 270.5t192.5 252 t306.5 194.5t437.5 94q207 14 374.5 -40t293.5 -152.5t206 -217t111 -233.5zM1645 137q53 47 69 84l15 37q18 80 43.5 140.5t49 92t29.5 23.5q12 -12 9.5 66.5t-19.5 197.5l-10 50q-10 49 -37 126.5t-77 162.5t-130 158t-194.5 114t-274.5 28q-166 -14 -281.5 -67.5 t-190.5 -130t-117 -164.5t-59 -172t-21 -150q-10 -190 48 -329.5t165.5 -229.5t240.5 -134t271.5 -47t262.5 34.5t208 109.5zM1638 692q51 -35 61.5 -107.5t-17 -159.5t-94 -166t-170 -127t-244.5 -42q-59 2 -138.5 24.5t-161 70.5t-148.5 126t-101.5 190.5t-20.5 266.5 q14 145 76.5 247.5t153 166t189.5 95.5t187 34q121 4 195 -27t112.5 -82t52 -106.5t9.5 -102.5q-4 -61 -42 -104t-88 -64.5t-95 -20.5t-68 27q27 18 24 58.5t-33 74t-89 29.5q-90 -6 -141.5 -63.5t-51.5 -208.5q0 -109 33 -169t87 -84t118 -26q63 -2 146 24t154.5 82 t104.5 144z" />
<glyph unicode="&#xaa;" horiz-adv-x="1142" d="M942 1440q2 -27 18.5 -77t39 -110.5t40 -118t21.5 -100.5t-17 -57q-25 -16 -70.5 -35.5t-94 -33t-82.5 -15.5q-23 0 -37.5 16.5t-24.5 30.5t-26 4q-104 -63 -273 -63q-119 0 -208 49t-127 131t-7 180q23 74 116 106.5t210 49.5q8 2 24.5 14t20.5 26.5t-25 18.5 q-78 10 -154.5 15.5t-107.5 19.5q-33 14 -42 43t-6 59.5t9 52.5l6 21l47 8q48 8 124.5 16.5t164.5 8.5q133 0 221.5 -27.5t140.5 -68.5t74.5 -85t24.5 -79zM578 1116q29 6 36 37t-16 58.5t-82 19.5q-39 -4 -73.5 -32t-24.5 -56q12 -35 57.5 -37t102.5 10z" />
<glyph unicode="&#xab;" horiz-adv-x="1613" d="M674 678q0 -16 19.5 -51t49 -77t58 -80t49.5 -62l20 -25q-45 -47 -113.5 -60.5t-142 7t-137.5 71.5l-35 31q-36 31 -87.5 73t-98.5 81t-68 55q-8 6 -8 31.5t8 32.5q20 16 67.5 55t99 81t87.5 73l35 30q63 53 137 72.5t142.5 6.5t113.5 -60l-20 -24q-19 -24 -48.5 -60.5 t-58 -77.5t-49 -74t-20.5 -49zM1237 678q0 -16 19.5 -51t49 -77t58.5 -80t50 -62l20 -25q-45 -47 -114 -60.5t-142.5 7t-137.5 71.5l-36 31q-37 31 -88.5 73t-97.5 81t-66 55q-8 6 -8.5 31.5t8.5 32.5q20 16 66 55t97.5 81t88.5 73l36 30q63 53 137 72.5t143 6.5t114 -60 l-20 -24q-19 -24 -49 -60.5t-59.5 -77.5t-49 -74t-19.5 -49z" />
<glyph unicode="&#xac;" horiz-adv-x="1421" d="M1323 348q0 -47 8 -94t8 -51q0 -12 -28.5 -22.5t-72.5 -18.5t-88 -13.5t-76 -6.5t-36 3q-25 20 -24 41q0 2 2 27t-2 51q-18 158 -91 217.5t-204 69.5q-14 2 -63.5 2t-115 1t-134 3t-123 5t-78.5 7q-49 8 -76 47t-37 91.5t-10 104.5v87q16 -6 81.5 -13t152.5 -10.5 t167 -5.5q41 0 124 4.5t181.5 11.5t188.5 13t149.5 11t61.5 5q49 0 78.5 -24.5t43 -55t13.5 -51.5v-436z" />
<glyph unicode="&#xad;" horiz-adv-x="204" />
<glyph unicode="&#xae;" horiz-adv-x="2258" d="M2122 1069q14 -53 28.5 -138t22.5 -188.5t3 -211t-30.5 -206t-77 -176t-137.5 -118.5q-63 -31 -117.5 -76t-114 -85t-140.5 -60q-152 -37 -316 -49.5t-324.5 8t-305 81t-258 166t-185.5 263t-86 374.5q-8 113 18.5 248t96 270.5t192.5 252t306.5 194.5t437.5 94 q207 14 375.5 -40t294.5 -152.5t206 -217t111 -233.5zM1851 514q16 0 18.5 50t-9 130t-33 170t-54 173t-73.5 137q-53 72 -136 131t-196 92t-252 20q-94 -8 -151.5 -46t-49.5 -66q4 -12 23.5 -20.5t58.5 -8.5l41 1t101.5 1h120t98.5 -4q115 -8 186.5 -56.5t105 -118 t38.5 -149.5q4 -66 -19.5 -111.5t-54.5 -75.5t-49 -50l-32 -32t-43.5 -50.5t-21.5 -50.5q-2 -51 32 -103.5t93 -81.5q41 -20 96.5 -2.5t79.5 64.5q16 35 41 45t41 12zM446 733q-6 -121 1.5 -187.5t17.5 -91.5l10 -26q72 -98 122 -82t48 137v441q0 121 -41 132t-98 -98 l-27 -64q-27 -63 -33 -161zM1042 848q10 -6 52.5 -8t91.5 4t85 23.5t32 50.5q-2 29 -49.5 49t-109 22t-110.5 -31q-37 -25 -24.5 -60.5t32.5 -49.5zM1110 6q37 -6 79 15.5t72.5 58.5t33.5 84t-35 94l-20 32q-19 32 -50 78t-65.5 90t-67.5 68.5t-56 14.5q-18 -8 -23 -49 t-2 -89.5t8 -84.5l5 -35q14 -20 14.5 -56.5t-8 -71t-20.5 -55.5q-20 -29 19.5 -56.5t115.5 -37.5z" />
<glyph unicode="&#xaf;" horiz-adv-x="1275" d="M217 1788q-20 23 -10 80q10 55 76 55h690q68 0 76 -55q10 -57 -11 -80q-25 -31 -55 -31h-711q-30 0 -55 31z" />
<glyph unicode="&#xb0;" horiz-adv-x="964" d="M512 1694q98 -2 168 -41t114 -100.5t65.5 -133t23.5 -139.5q2 -90 -53.5 -177t-152.5 -144.5t-226 -57.5q-96 0 -170 46t-121 119t-66.5 156t-7.5 156q16 98 84 170t161 110t181 36zM526 1190q41 6 55.5 41t9.5 75t-22 56q-25 25 -62.5 36t-62.5 7q-33 -4 -51 -36 t-21 -66.5t13 -53.5q25 -29 52.5 -48t88.5 -11z" />
<glyph unicode="&#xb1;" horiz-adv-x="1411" d="M1317 1069l-1 -40t-10.5 -94t-36 -98t-75.5 -53q-27 -4 -91.5 -7t-150.5 -5q-18 0 -46.5 -24.5t-33.5 -106.5q0 -20 -5 -44t-23 -40q-35 -29 -87 -40t-104.5 -8t-87.5 17.5t-33 38.5q2 18 2.5 43t0.5 60q0 43 -29 73.5t-86 32.5q-96 4 -164 7t-78 10q-27 12 -48 57 t-32.5 97t-5.5 89t37 35q18 0 99 -6t196 4q53 6 75.5 42t27.5 74t5 48v104q0 31 35 27q31 0 77 -6t95 -19.5t84 -36.5q45 -29 51 -67q8 -74 32 -118t79 -46q141 -8 189 -6zM121 471q16 0 90 -1t183.5 -1h235.5t248.5 1t225 1h164.5h61v-29q0 -28 -5 -71t-18.5 -87t-37 -76 t-64.5 -38q-31 -4 -114.5 -6t-196.5 -3t-233.5 -1t-227 2t-178.5 5t-84 7q-27 10 -48.5 57.5t-32.5 103.5t-5 97t37 39z" />
<glyph unicode="&#xb2;" horiz-adv-x="1183" d="M862 846q-59 -29 -166 2q-8 2 -39.5 11t-72.5 21.5t-80 26t-62 21.5q-98 37 -122.5 65.5t-24.5 67.5q2 23 15.5 48.5t45.5 66.5q12 14 47 52t73 80t56 70q20 31 44 59.5t33 58.5t-19 60q-10 12 -23.5 16.5t-39 -7t-72.5 -52.5q-16 -14 -45 -7t-60 24.5t-56.5 36 t-37.5 24.5q33 127 110.5 185.5t153.5 72.5q96 16 178 -8t125 -65q47 -43 77 -118t26 -132t-33 -113.5t-88 -130.5q-8 -10 -26.5 -31.5t-34 -42t-21.5 -30.5q-31 -57 16 -74q16 -6 50 -12.5t72 -11.5t63 -7q23 0 31 -40t-1 -68q-8 -27 -26.5 -61.5t-65.5 -57.5z" />
<glyph unicode="&#xb3;" horiz-adv-x="1122" d="M449 803q-18 4 -42 27.5t-28 41.5q-2 12 16.5 49t43 77t36.5 57q12 16 31.5 52t25 70.5t-27.5 51.5q-8 4 -43 20.5t-76 30.5q-23 10 -43 28.5t-25 49.5q-2 43 16.5 76.5t49.5 48.5q8 4 37 16t60.5 28.5t49.5 26.5q29 18 55.5 41t18.5 50q-8 29 -26.5 30.5t-47.5 3.5 q-12 2 -50 -3t-91 -15q-35 -6 -92 34t-88 105q63 41 109.5 71t117.5 38q113 16 195 -3.5t137 -58.5q53 -37 74.5 -81t23.5 -87q4 -70 -19.5 -124t-66.5 -95q-8 -6 -22.5 -19.5t-24.5 -25.5t-12 -21.5t0 -21.5q4 -31 30.5 -50t51 -46t22.5 -80q-2 -74 -36.5 -147.5 t-78.5 -132t-79 -91.5q-16 -16 -64 -29t-118 7z" />
<glyph unicode="&#xb4;" horiz-adv-x="1126" d="M588 2054q29 16 76 16.5t97 -12t87 -34t47 -52t-25 -65.5q-43 -45 -121.5 -89t-164.5 -81t-155 -61.5t-95 -35.5q-51 -16 -77 25t-9 102q6 23 41 60t86 78t107.5 80.5t105.5 68.5z" />
<glyph unicode="&#xb5;" horiz-adv-x="1288" d="M1135 258q0 -18 6 -54t17 -76t23.5 -68.5t24.5 -34.5q-25 -27 -67.5 -45.5t-151.5 -18.5q-23 0 -70 14.5t-109.5 23.5t-129.5 -3q-31 -4 -78 -22.5t-85 -53.5t-44 -94q-2 -10 -1 -53t1 -66q0 -31 -42 -50t-107.5 -32.5t-137.5 -25.5q-45 -6 -67 59q-14 43 -20.5 104.5 t-6.5 123v104.5q0 18 -1 90t-2 176t-1 225t-1 239t-2 215t-1 155v59q18 2 61 4t96.5 -1t104.5 -18.5t87 -48t42 -88.5q4 -35 1 -97t-7 -139t-4 -153t8 -137q10 -72 41 -116t76 -42q84 4 122 64.5t35 136.5q0 90 -1 198.5t-2 208t-2 163.5l-1 65q18 2 61.5 1t96.5 -9 t104.5 -28.5t87 -56.5t41.5 -91q12 -119 5.5 -290t-0.5 -417z" />
<glyph unicode="&#xb6;" horiz-adv-x="1226" d="M1087 1587q47 -61 54.5 -182t-2.5 -254l-1 -59q-1 -58 -1 -157v-223v-256t1 -257t1 -227.5v-164v-67.5q0 -63 -56 -76q-27 -4 -64.5 4t-45.5 41v63.5v163v228.5v263v263v231.5v169v70.5q0 12 -1 43t-8.5 63.5t-25.5 56.5t-55 24q-41 0 -58.5 -34t-19.5 -78t-2 -75v-1444 q0 -29 -8.5 -52t-46.5 -48q-23 -14 -46.5 -14t-33.5 8q-14 12 -21.5 27.5t-7.5 29.5v47t1 117t1 154v160.5v137t-2 81.5q-8 102 -45 176.5t-96 89.5q-115 29 -210 97.5t-151.5 178t-54.5 258.5q4 174 84 295t205 185.5t264 72.5q156 8 241 -5t129.5 -45t81.5 -81z" />
<glyph unicode="&#xb7;" horiz-adv-x="757" d="M385 899q63 0 95 -10t50.5 -43t40.5 -98q16 -47 -3 -97.5t-68 -85.5t-123 -35t-119 34t-63.5 83t-14.5 94q6 59 59.5 108.5t145.5 49.5z" />
<glyph unicode="&#xb8;" horiz-adv-x="1390" d="M473 12h297l-37 -82l23 -2q24 -2 55 -6t53 -8q53 -8 97.5 -25.5t67 -45t9.5 -68.5q-12 -39 -52 -77t-116.5 -58.5t-197.5 -12.5q-96 8 -176 24.5t-127 55.5q-10 10 -15.5 32.5t-4.5 45t7 29.5l40 -10q40 -11 96.5 -23t107.5 -22.5t74 -10.5q33 2 49 20.5t13 42t-34 33.5 q-14 6 -63 11.5t-105.5 9.5t-97.5 7l-41 3z" />
<glyph unicode="&#xb9;" horiz-adv-x="929" d="M383 817q-12 2 -28.5 10.5t-18.5 30.5q-2 12 -2 55t1 98.5t3 110t3 92t1 43.5q2 8 2 45t1 81t1 67q0 35 -21.5 73t-60.5 31q-45 -6 -94 22t-78 83q45 51 118 96t147.5 75t121.5 30q53 2 107.5 -14.5t81.5 -43.5q23 -20 30 -41.5t-2 -58.5q-4 -18 -9 -43t-11 -60 q-2 -16 -6 -57t-8.5 -89t-6.5 -89t-2 -59t-1 -71.5t2 -117t8 -117.5q2 -31 8 -59.5t12 -36.5q-23 -27 -60.5 -42t-54.5 -21q-10 -2 -52 -8.5t-82 -10.5t-50 -4z" />
<glyph unicode="&#xba;" horiz-adv-x="1077" d="M993 1315q12 -113 -27.5 -195t-111.5 -135t-157 -77.5t-160 -24.5q-76 0 -160 24.5t-155.5 77.5t-110.5 135t-27 195q12 104 79.5 183t166 125t200.5 50q8 2 21.5 16.5t66.5 10.5q84 -23 166 -76t140.5 -131t68.5 -178zM524 1118q63 0 101.5 30t55.5 73t17 82 q0 59 -21.5 82.5t-92.5 50.5q-20 8 -27.5 21t-21.5 13q-74 8 -112 -49t-38 -145q0 -57 23.5 -92t56 -50.5t59.5 -15.5z" />
<glyph unicode="&#xbb;" horiz-adv-x="1611" d="M938 678q0 16 -19.5 49t-48 74t-58.5 77.5t-50 60.5l-19 24q45 47 114 60t142.5 -6.5t135.5 -72.5l37 -30q36 -31 87.5 -73t98.5 -81t67 -55q6 -6 6.5 -32t-6.5 -32q-20 -16 -67 -55t-98.5 -81t-87.5 -73l-37 -31q-61 -51 -135 -71.5t-143 -7t-114 60.5l19 25 q20 24 50 62t58.5 80t48 77t19.5 51zM377 678q0 16 -20.5 49t-49 74t-58.5 77.5t-49 60.5l-20 24q47 47 114.5 60t142.5 -6.5t136 -72.5l36 -30q36 -31 87.5 -73t98.5 -81t67 -55q8 -6 8 -32t-8 -32q-20 -16 -67 -55t-98.5 -81t-87.5 -73l-36 -31q-61 -51 -136 -71.5 t-142.5 -7t-114.5 60.5l20 25q21 24 50 62t58.5 80t49 77t19.5 51z" />
<glyph unicode="&#xbc;" horiz-adv-x="1945" d="M307 893q-14 2 -29.5 10t-19.5 29q-2 12 -1 55t2 99.5t2 110.5t3 92t2 44l2 191q0 35 -21.5 72.5t-58.5 33.5q-45 -6 -94 21.5t-78 81.5q45 53 118 98t146.5 74.5t120.5 29.5q53 2 108.5 -14t82.5 -43q23 -20 29 -41.5t-3 -60.5q-2 -16 -8 -42t-10 -61q-2 -16 -6 -56 t-8 -88t-7.5 -89t-3.5 -60v-71.5t2.5 -117t6.5 -116.5q4 -33 10 -60.5t10 -37.5q-20 -27 -58 -41t-54 -21q-10 -4 -52.5 -10t-83.5 -9t-49 -3zM281 141q-39 33 -53.5 91.5t36.5 134.5q25 37 90.5 130t158.5 219t199.5 269t214 281.5t202 255t164 192.5t98.5 88 q70 31 120 14.5t65 -58.5t-24 -91q-27 -33 -91 -120t-152 -208.5t-188.5 -259t-198 -272.5t-180.5 -250t-136 -191.5t-65 -93.5q-37 -55 -94.5 -86.5t-105.5 -42t-60 -2.5zM1640 78q-20 -8 -60 -8t-64 20q-25 20 -31 46t-8 52q-2 27 -3 49.5t-12 43.5q-10 23 -26.5 38 t-51.5 17q-14 2 -37.5 9t-50.5 15q-16 6 -55 11.5t-76 23t-51 56.5q-14 47 -4 126.5t45 223.5q14 59 39 131t53.5 139.5t57.5 106.5q86 -10 138 -55.5t50 -90.5q0 -18 -10 -61t-23.5 -97.5t-28 -106.5t-22.5 -89t-8 -45q2 -18 -1 -33.5t23 -19.5q47 -4 57.5 22.5t14.5 48.5 q4 23 14.5 78t12.5 92q4 37 29.5 69t66.5 34q66 4 96.5 -37t38.5 -72q8 -29 7 -78t1 -67q0 -31 4 -48.5t19 -29.5q16 -12 30.5 -15.5t28.5 -5.5q59 -6 74.5 -38.5t15.5 -61.5q2 -29 -21.5 -65.5t-78.5 -53.5q-27 -8 -62.5 -19t-39.5 -28q-4 -10 -5.5 -43t25.5 -41 q-8 -59 -49.5 -97t-61.5 -46z" />
<glyph unicode="&#xbd;" horiz-adv-x="1945" d="M315 893q-12 2 -28.5 10t-18.5 29q-2 12 -1 55t2 99.5t2 110.5t2 92t1 44q2 6 2 44t1.5 81t1.5 66q0 35 -21.5 72.5t-58.5 33.5q-47 -6 -95.5 21.5t-78.5 81.5q45 53 117.5 98t147.5 74.5t122 29.5q53 2 108 -14t82 -43q20 -20 27.5 -41.5t-0.5 -60.5q-4 -16 -9.5 -42 t-11.5 -61q-2 -16 -6 -56t-7 -88t-6 -89t-3 -60v-71.5t2 -117t6 -116.5q4 -33 9 -60.5t11 -37.5q-20 -27 -59 -41t-55 -21q-10 -4 -51 -10t-82.5 -9t-51.5 -3zM291 141q-39 33 -54.5 91.5t35.5 134.5q25 37 91.5 130t159.5 219t199.5 269t214 281.5t202 255t164 192.5 t98.5 88q68 31 118 14.5t66.5 -58.5t-22.5 -91q-27 -33 -91.5 -120t-153.5 -208.5t-188.5 -259t-197.5 -272.5t-180 -250t-136.5 -191.5t-66.5 -93.5q-37 -55 -93.5 -86.5t-104.5 -42t-60 -2.5zM1774 88q-27 -12 -72 -12t-94 14q-8 2 -40 11.5t-74 21.5t-81 24.5t-61 20.5 q-98 37 -123 66.5t-23 68.5q0 23 13.5 48.5t46.5 66.5q12 14 47 52t72.5 80t56.5 71q20 31 44.5 59.5t34 57t-19.5 59.5q-10 12 -23.5 17t-39 -6t-72.5 -52q-18 -14 -46 -7t-58.5 24.5t-56 35.5t-38.5 25q33 127 110 185t153 73q98 16 179 -9.5t124 -66.5q47 -41 77.5 -116 t26.5 -134q-4 -57 -33.5 -112.5t-87.5 -131.5q-8 -10 -26.5 -31.5t-34 -41t-21.5 -29.5q-33 -55 15 -74q16 -6 51 -13t71.5 -11.5t61.5 -6.5q23 -2 31 -40.5t0 -67.5q-8 -27 -25.5 -61.5t-64.5 -57.5z" />
<glyph unicode="&#xbe;" horiz-adv-x="1945" d="M260 788q-18 4 -41.5 28t-25.5 42q-2 12 16 49t41.5 77t36.5 56q12 16 31.5 52t24.5 71t-28 51q-8 4 -41.5 20.5t-76.5 31.5q-20 10 -41 28.5t-25 48.5q-4 43 14.5 76t51.5 47q8 4 35.5 17.5t60.5 30t51 26.5q29 18 54.5 41t17.5 49q-6 29 -25.5 31t-46.5 4q-14 2 -51 -3 t-92 -15q-23 -4 -57.5 12t-67.5 50t-53 77q61 41 107 70.5t118 37.5q113 16 195.5 -3t138.5 -58q53 -37 74.5 -81t23.5 -87q4 -70 -19.5 -124t-68.5 -95q-18 -14 -45 -45q-10 -12 -12.5 -21.5t0.5 -21.5q4 -31 29.5 -50.5t50 -46t22.5 -79.5q-2 -74 -36 -147.5t-78 -132 t-81 -91.5q-16 -16 -64 -29.5t-118 6.5zM285 141q-39 33 -54.5 91.5t35.5 134.5q25 37 91.5 130t159.5 219t199.5 269t214 281.5t202 255t164 192.5t98.5 88q68 31 118 14.5t66 -58.5t-23 -91q-27 -33 -91 -120t-152 -208.5t-188.5 -259t-198 -272.5t-180 -250t-137 -191.5 t-66.5 -93.5q-37 -55 -93.5 -86.5t-104.5 -42t-60 -2.5zM1645 78q-20 -8 -61.5 -8t-63.5 20q-25 20 -31 46t-8 52q-2 27 -4 49.5t-13 43.5q-8 23 -24.5 38t-50.5 17q-14 2 -38 9t-51 15q-16 6 -55 11.5t-75.5 23t-51.5 56.5q-14 47 -4 126.5t45 223.5q14 59 38 131 t53.5 139.5t56.5 106.5q88 -10 140 -55.5t50 -90.5q0 -18 -10 -61t-23.5 -97.5t-28 -106.5t-22.5 -89t-8 -45q2 -18 -2 -33.5t22 -19.5q47 -4 58.5 22.5t15.5 48.5q4 23 13.5 78t13.5 92t28.5 69t67.5 34q63 4 94 -37t39 -72q8 -29 8 -78v-67q2 -31 6.5 -48.5t18.5 -29.5 q16 -12 30.5 -15.5t28.5 -5.5q59 -6 73.5 -38.5t16.5 -61.5t-21.5 -65.5t-78.5 -53.5q-27 -8 -63.5 -19t-40.5 -28q-2 -10 -3 -43t23 -41q-8 -59 -48 -97t-60 -46z" />
<glyph unicode="&#xbf;" horiz-adv-x="1218" d="M981 -25q14 -23 25.5 -76t18.5 -111t10 -100l3 -42l-43 7t-109.5 19.5t-143 27.5t-145.5 32.5t-114 31.5q-123 43 -193.5 125t-95 182.5t-6 200t75.5 174.5q45 59 111.5 101.5t134.5 76t116 64.5t54 64q12 49 -10 73q-16 18 -52 26.5t-92 16.5q-78 10 -129 75t-51 147 q0 96 65.5 161.5t159.5 65.5q96 0 162 -65.5t66 -161.5q0 -78 -45 -136q-35 -41 -29 -59q6 -25 94 -45q59 -14 104.5 -61.5t43.5 -157.5q-51 -25 -97.5 -57.5t-99.5 -73.5q-72 -55 -113 -110.5t-49 -143.5q-4 -59 26 -95t79 -56.5t103 -36t99.5 -34t65.5 -49.5z" />
<glyph unicode="&#xc0;" horiz-adv-x="1576" d="M653 2054q49 -29 105.5 -68.5t108 -80.5t86 -78t40.5 -60q16 -61 -9.5 -102t-76.5 -25q-27 10 -95.5 35t-154.5 62t-164.5 81t-121.5 89q-35 35 -25 65.5t47 52t87 34t97 12t76 -16.5zM1348 385q25 -59 69.5 -113.5t77.5 -81.5q-49 -100 -119 -149q-61 -39 -129 -45 q-37 -4 -84 6t-97 58.5t-99 154.5q-14 35 -63.5 49.5t-105 17.5t-89.5 3q-35 0 -85.5 -2t-91 -16.5t-49.5 -51.5q-8 -33 -2 -67.5t27 -47.5q-35 -31 -68.5 -55.5t-68.5 -38.5q-41 -18 -88 -18t-105 20q-27 10 -55.5 37t-38.5 74t16 119q2 6 20.5 65t48.5 156.5t65.5 216.5 t73.5 245t74 242.5t64.5 210.5t45.5 150l16 55q18 10 68.5 25.5t107.5 17.5q63 4 124.5 -16.5t94.5 -81.5q14 -25 43 -94.5t67 -168t81 -210t85 -221t77.5 -204t59.5 -159t32 -82.5zM702 649q53 4 62.5 31t11.5 61q0 23 -6 55.5t-19.5 58.5t-33.5 26q-31 0 -65 -40t-38 -81 q-4 -39 8 -76t80 -35z" />
<glyph unicode="&#xc1;" horiz-adv-x="1574" d="M770 2054q29 16 76 16.5t97 -12t87 -34t47 -52t-24 -65.5q-43 -45 -122 -89t-165 -81t-154.5 -61.5t-95.5 -35.5q-51 -16 -76.5 25t-9.5 102q6 23 41 60t86 78t107.5 80.5t105.5 68.5zM1346 385q25 -59 69.5 -113.5t77.5 -81.5q-45 -98 -119 -149q-29 -18 -60.5 -29.5 t-66.5 -15.5q-37 -4 -84 6t-98 58.5t-100 154.5q-14 35 -63.5 49.5t-105 17.5t-87.5 3q-35 0 -86.5 -2t-91 -16.5t-48.5 -51.5q-8 -33 -2 -67.5t27 -47.5q-35 -31 -68.5 -55.5t-68.5 -38.5q-43 -18 -90.5 -18t-102.5 20q-27 10 -55.5 37t-38.5 74t16 119q2 6 20.5 65 t48.5 156.5t65.5 216.5t73.5 245t74 242.5t64.5 210.5t45.5 150l16 55q18 10 67.5 25.5t108.5 17.5q61 4 122.5 -16.5t94.5 -81.5q14 -25 43 -94.5t68 -168t81 -210t84 -221t77.5 -204t59.5 -159t32 -82.5zM702 649q53 4 62.5 31t9.5 61q0 23 -6 55.5t-19.5 58.5t-33.5 26 q-31 0 -64 -40t-39 -81q-4 -39 9 -76t81 -35z" />
<glyph unicode="&#xc2;" horiz-adv-x="1576" d="M772 2114q6 -8 43 -48.5t88 -95.5t107.5 -111.5t103.5 -99.5t74 -57q-27 -43 -89.5 -60.5t-137.5 3.5q-43 12 -83 55t-79 69q-18 12 -64.5 17.5t-81.5 -21.5t-74.5 -68.5t-80.5 -51.5q-76 -20 -138.5 -3t-89.5 60q25 14 73 58t104.5 101.5t108.5 113t88 94t42 45.5 q14 16 41 19.5t45 -19.5zM1348 385q25 -59 69.5 -113.5t77.5 -81.5q-49 -100 -119 -149q-61 -39 -129 -45q-35 -4 -82 6t-98 58.5t-100 154.5q-14 35 -63.5 49.5t-105 17.5t-89.5 3q-35 0 -85.5 -2t-91 -16.5t-49.5 -51.5q-8 -33 -2 -67.5t27 -47.5q-35 -31 -68.5 -55.5 t-68.5 -38.5q-41 -18 -88 -18t-105 20q-27 10 -55.5 37t-38.5 74t16 119q2 6 20.5 65t48.5 156.5t65.5 216.5t73.5 245t74 242.5t64.5 210.5t45.5 150l16 55q18 10 68.5 25.5t107.5 17.5q63 4 124.5 -16.5t94.5 -81.5q14 -25 43 -94.5t67 -168t81 -210t85 -221t77.5 -204 t59.5 -159t32 -82.5zM705 649q53 4 61 31t10 61q0 23 -6 55.5t-19.5 58.5t-33.5 26q-31 0 -65 -40t-38 -81q-4 -39 8.5 -76t82.5 -35z" />
<glyph unicode="&#xc3;" horiz-adv-x="1574" d="M201 1769q20 35 61 78t91 86t101.5 75t92.5 40q90 18 150.5 8t104.5 -34.5t82 -51t83 -43.5q39 -14 79.5 -5t71.5 36t35 63q55 -57 61.5 -136t-24.5 -144q-20 -49 -100 -70.5t-170 4.5q-57 18 -93 42t-62 45.5t-54.5 33.5t-73.5 6q-59 -6 -90 -30.5t-84 -77.5 q-37 -37 -91.5 -30t-102.5 38.5t-68 66.5zM1346 385q25 -59 69.5 -113.5t77.5 -81.5q-45 -98 -119 -149q-29 -18 -60.5 -29.5t-66.5 -15.5q-37 -4 -84 6t-98 58.5t-100 154.5q-14 35 -63.5 49.5t-105 17.5t-87.5 3q-35 0 -86.5 -2t-91 -16.5t-48.5 -51.5q-8 -33 -2 -67.5 t27 -47.5q-35 -31 -68.5 -55.5t-68.5 -38.5q-43 -18 -90.5 -18t-102.5 20q-27 10 -55.5 37t-38.5 74t16 119q2 6 20.5 65t48.5 156.5t65.5 216.5t73.5 245t74 242.5t64.5 210.5t45.5 150l16 55q18 10 67.5 25.5t108.5 17.5q61 4 122.5 -16.5t94.5 -81.5q14 -25 43 -94.5 t68 -168t82 -210t84 -221t76.5 -204t60.5 -159t31 -82.5zM702 649q53 4 62.5 31t9.5 61q0 23 -6 55.5t-19.5 58.5t-33.5 26q-31 0 -64 -40t-37 -81q-6 -39 7 -76t81 -35z" />
<glyph unicode="&#xc4;" horiz-adv-x="1576" d="M655 1882q0 -78 -49 -137t-143 -62q-45 0 -92 20.5t-78 64.5t-29 114q2 55 31 100.5t73 73t89 27.5q53 2 98 -26.5t72.5 -75t27.5 -99.5zM1223 1882q0 -78 -49.5 -137t-143.5 -62q-47 0 -94 20.5t-77 64.5t-28 114q2 55 31 100.5t73 73t89 27.5q53 2 98 -26.5t73 -75 t28 -99.5zM1348 385q25 -59 69.5 -113.5t77.5 -81.5q-49 -100 -119 -149q-61 -39 -129 -45q-35 -4 -82 6t-98 58.5t-100 154.5q-14 35 -63.5 49.5t-105 17.5t-89.5 3q-35 0 -85.5 -2t-91 -16.5t-49.5 -51.5q-8 -33 -2 -67.5t27 -47.5q-35 -31 -68.5 -55.5t-68.5 -38.5 q-41 -18 -88 -18t-105 20q-27 10 -55.5 37t-38.5 74t16 119q2 6 20.5 65t48.5 156.5t65.5 216.5t73.5 245t74 242.5t64.5 210.5t45.5 150l16 55q18 10 68.5 25.5t107.5 17.5q63 4 124.5 -16.5t94.5 -81.5q14 -25 43 -94.5t67 -168t81 -210t85 -221t77.5 -204t59.5 -159 t32 -82.5zM705 649q53 4 61 31t10 61q0 23 -6 55.5t-19.5 58.5t-33.5 26q-31 0 -65 -40t-38 -81q-4 -39 8.5 -76t82.5 -35z" />
<glyph unicode="&#xc5;" horiz-adv-x="1574" d="M1346 385q25 -59 69.5 -113.5t77.5 -81.5q-45 -98 -119 -149q-59 -39 -127 -45q-37 -4 -84 6t-98 58.5t-100 154.5q-14 35 -63.5 49.5t-105 17.5t-87.5 3q-35 0 -86.5 -2t-91 -16.5t-48.5 -51.5q-8 -33 -2 -67.5t27 -47.5q-35 -31 -68.5 -55.5t-68.5 -38.5 q-43 -18 -90.5 -18t-102.5 20q-27 10 -55.5 37t-38.5 74t16 119q2 6 26 80.5t59.5 193.5t77.5 260t85 281.5t79 258.5t56 187q10 37 -2 81t-22 60q-63 106 -43 211q12 72 61 124.5t117 81t131 26.5q96 -2 154.5 -50t86 -118t29.5 -135q2 -45 -16 -88t-53 -82 q-18 -20 -18.5 -50t8 -55.5t14.5 -40.5q27 -59 64.5 -156.5t81.5 -213t89 -232.5t83 -218t64 -171t34 -88zM678 1896q-37 -4 -63.5 -53t-12.5 -102q8 -27 41 -45.5t78 -12.5q31 4 51.5 31t28.5 60.5t2 58.5q-4 25 -37 47t-88 16zM702 649q53 4 62.5 31t9.5 61q0 23 -6 55.5 t-19.5 58.5t-33.5 26q-31 0 -64 -40t-37 -81q-6 -39 7 -76t81 -35z" />
<glyph unicode="&#xc6;" horiz-adv-x="2177" d="M1628 367q84 4 170 11t149.5 16t77.5 22q25 -20 34 -81t-1 -132.5t-43 -130t-92 -74.5q-29 -8 -99.5 -13t-162.5 -4t-182 9q-16 2 -56.5 1t-89.5 -4t-92 -5t-63 -5q-53 -2 -85 27t-47.5 71t-21.5 75q-2 16 -19.5 43.5t-62.5 52t-137 28.5q-51 2 -100.5 -3t-77.5 -19 q-41 -23 -51.5 -56.5t-2 -62.5t20.5 -35q-68 -41 -122 -71.5t-108.5 -38.5t-121.5 16q-27 10 -69 33.5t-70.5 71t-18.5 127.5q2 14 40 79.5t101.5 167t141 222t160.5 247.5t161 246t139.5 212t98.5 148l37 56l58 -4t147 -10.5t182.5 -11.5t162.5 -5q74 0 156 1t157 5 t129 13.5t73 25.5q25 -20 45 -74.5t23 -118t-24.5 -114.5t-101.5 -70q-10 -2 -49 -6t-90 -7t-98 -7t-72 -8t-67 -13.5t-85 -24t-72.5 -35t-29.5 -48.5q0 -35 40 -62.5t105.5 -42t137.5 -10.5q72 6 130 15.5t72 21.5q25 -20 36 -73.5t4 -116t-37.5 -113.5t-90.5 -68 q-8 -2 -33.5 -6t-48.5 -7l-24 -3q-80 0 -147.5 -19.5t-107.5 -51t-40 -70.5q0 -49 64.5 -85t160.5 -44zM911 809q-39 -68 -39 -116t41 -48t71 48t30 116t-30 68t-71 -68h-2z" />
<glyph unicode="&#xc7;" horiz-adv-x="1568" d="M1010 -14q-29 -4 -30 -19.5t17.5 -30t42.5 -20.5q53 -10 97.5 -27.5t67 -44t9.5 -67.5q-18 -61 -115.5 -92t-248.5 -23q-94 6 -175 23.5t-128 56.5q-14 14 -21.5 36.5t2.5 31.5l42 -6q42 -7 101.5 -15t113 -14t77.5 -6q47 0 55.5 29.5t-38.5 47.5q-14 6 -63.5 11.5 t-106 9.5t-97.5 6l-41 2l9 19q10 20 16 49.5t-5 57.5t-52 42q-94 35 -182.5 102.5t-155 170t-98 242.5t-15.5 323q18 199 100 342t199 234t249 137t253 48q121 4 211 -36.5t144 -105t73.5 -137.5t-0.5 -134q-25 -76 -76 -110t-106.5 -26.5t-94.5 54.5q35 27 22 58.5 t-64.5 53t-131.5 15.5q-82 -4 -165 -53.5t-138 -141.5t-61 -229q-4 -141 29.5 -229.5t87 -134.5t105.5 -65.5t85 -25.5q45 -8 101.5 -11t112.5 7t97 35q39 23 93.5 60.5t105.5 84.5t76 97q61 -43 81.5 -118t2 -162t-77.5 -169q-57 -82 -155.5 -145t-235.5 -88z" />
<glyph unicode="&#xc8;" horiz-adv-x="1296" d="M512 2054q49 -29 106.5 -68.5t107.5 -80.5t86 -78t42 -60q16 -61 -9.5 -102t-78.5 -25q-27 10 -95.5 35t-154.5 62t-164 81t-121 89q-35 35 -25.5 65.5t47.5 52t87 34t97 12t75 -16.5zM934 373q29 4 73 10t85 15.5t55 21.5q25 -23 34 -91.5t-5 -142.5q-12 -63 -44 -118.5 t-90 -67.5q-47 -10 -110.5 -12t-130 0t-120.5 4t-83 2q-27 0 -87 -1t-105 -3q-53 -6 -118 -8t-118 4t-78 20q14 29 24.5 87.5t16.5 128t6 132.5q-2 23 -2 128.5t-2 246.5v152l-2 20v178q0 68 -7 146t-15.5 148.5t-14.5 115.5q-8 35 -11 68.5t-3 60.5q14 -6 79.5 -11 t151.5 -10q6 0 59.5 -1t132.5 -3t163 -3t153.5 -1t102.5 2q84 4 143 13.5t80 25.5q25 -20 46 -76.5t21 -117.5q2 -59 -25.5 -111.5t-98.5 -71.5q-29 -6 -84.5 -10t-108.5 -5t-76 1q-61 6 -129.5 -13.5t-116 -51t-49.5 -68.5q-2 -35 30 -57.5t82 -36t107.5 -17.5t106.5 -2 q41 4 94 14.5t68 20.5q27 -23 38 -84t-3 -127q-10 -53 -40 -98t-85 -62q-43 -12 -75 -15l-32 -3q-121 -2 -204 -43t-91 -98q-6 -49 22.5 -90t86.5 -46q39 -2 99.5 -1t118.5 4.5t85 7.5z" />
<glyph unicode="&#xc9;" horiz-adv-x="1296" d="M672 2054q29 16 75 16.5t96 -12t87 -34t47 -52t-25 -65.5q-43 -45 -121.5 -89t-163.5 -81t-155 -62.5t-94 -34.5q-51 -16 -79 25t-9 102q6 23 41 60t85 79t107.5 80.5t108.5 67.5zM934 373q29 4 73 10t83.5 15.5t54.5 21.5q27 -23 37 -91.5t-6 -142.5q-14 -63 -45 -118.5 t-89 -67.5q-47 -10 -110.5 -12t-130 -1t-120.5 4t-83 3q-27 0 -87 -1t-108 -3q-53 -6 -116.5 -8t-116.5 4t-78 20q14 29 24.5 87.5t15.5 128t5 132.5q0 23 -1 128.5t-1 246.5v37q0 29 -1 57.5t-1 57.5v198q0 68 -7 146t-15.5 148.5t-14.5 115.5q-8 35 -11 68.5t-3 60.5 q14 -6 78.5 -13.5t152.5 -7.5q6 0 59.5 -1t131.5 -3t163 -3t154.5 -1t102.5 2q84 4 143 13.5t80 25.5q25 -20 45 -76.5t22 -117.5q2 -59 -25.5 -111.5t-98.5 -71.5q-29 -6 -84.5 -10t-108.5 -5t-76 1q-63 6 -130.5 -12.5t-115 -51t-49.5 -69.5q-2 -35 29 -58.5t82 -37 t108.5 -17.5t106.5 0q41 4 94 14.5t68 20.5q27 -23 37 -84t-2 -127q-10 -53 -41 -98t-84 -62q-43 -12 -75 -15l-32 -3q-121 -2 -204 -43t-91 -98q-6 -49 22.5 -90t86.5 -46q39 -2 99.5 -1t118.5 5.5t85 6.5z" />
<glyph unicode="&#xca;" horiz-adv-x="1296" d="M680 2114q8 -8 44 -48.5t88 -95.5t108.5 -111.5t103.5 -99.5t74 -57q-27 -43 -89.5 -60.5t-138.5 3.5q-43 12 -82.5 55t-78.5 69q-18 12 -65.5 17.5t-82.5 -21.5t-73.5 -68.5t-79.5 -51.5q-76 -20 -138.5 -3t-91.5 60q27 14 74 58t103.5 101.5t109.5 113t89 94t42 45.5 q14 16 41 19.5t43 -19.5zM934 373q29 4 73 10t83.5 15.5t54.5 21.5q25 -23 34 -91.5t-5 -142.5q-12 -63 -44 -118.5t-90 -67.5q-47 -10 -110.5 -12t-129 0t-119.5 4t-83 2t-89 -1t-106 -3q-53 -6 -116.5 -8t-117.5 4t-79 20q14 29 25.5 87.5t17.5 128t4 132.5 q-2 23 -2 128.5t-2 246.5v174q-2 74 -2 123v53q0 68 -6 146t-15.5 148.5t-15.5 115.5q-16 72 -12 129q12 -6 77.5 -11t151.5 -10q6 0 59.5 -1t132.5 -3t163 -3t153.5 -1t102.5 2q84 4 143 13.5t80 25.5q25 -20 46 -76.5t23 -117.5q0 -59 -27.5 -111.5t-99.5 -71.5 q-29 -6 -84 -10t-108 -5t-76 1q-61 6 -129.5 -13.5t-116 -51t-49.5 -68.5q-2 -35 30 -57.5t82 -36t107.5 -17.5t106.5 -2q41 4 94 14.5t68 20.5q27 -23 38 -84t-3 -127q-10 -53 -40 -98t-85 -62q-43 -12 -74 -15l-31 -3q-121 -2 -204 -43t-91 -98q-8 -49 20.5 -90t86.5 -46 q39 -2 99 -1t118.5 4.5t87.5 7.5z" />
<glyph unicode="&#xcb;" horiz-adv-x="1296" d="M573 1882q0 -78 -48 -137t-144 -62q-45 0 -92 20.5t-78 64.5t-29 114q2 55 31 100.5t73 73t89 27.5q53 2 98 -26.5t72.5 -75t27.5 -99.5zM1141 1882q0 -78 -49.5 -137t-143.5 -62q-45 0 -92 20.5t-77.5 64.5t-28.5 114q2 55 30.5 100.5t72.5 73t89 27.5q53 2 98 -26.5 t73 -75t28 -99.5zM934 373q29 4 73 10t83.5 15.5t54.5 21.5q27 -23 36 -91.5t-5 -142.5q-12 -63 -44 -118.5t-90 -67.5q-47 -10 -110.5 -12t-130 0t-120.5 4t-83 2q-27 0 -87 -1t-108 -3q-53 -6 -116.5 -8t-116.5 4t-78 20q14 29 24.5 87.5t16.5 128t4 132.5v128.5t-2 246.5 v37q0 29 -1 57.5t-1 57.5v198q0 68 -7 146t-15.5 148.5t-14.5 115.5q-8 35 -11 68.5t-3 60.5q14 -6 78.5 -11t152.5 -10q6 0 59.5 -1t132.5 -3t163 -3t153.5 -1t102.5 2q84 4 143 13.5t80 25.5q25 -20 46 -76.5t21 -117.5q2 -59 -25.5 -111.5t-98.5 -71.5q-29 -6 -84.5 -10 t-108.5 -5t-76 1q-61 6 -129.5 -13.5t-116 -51t-49.5 -68.5q-2 -35 30 -57.5t82 -36t107.5 -17.5t106.5 -2q41 4 94 14.5t68 20.5q27 -23 37 -84t-2 -127q-10 -53 -41 -98t-84 -62q-43 -12 -75 -15l-32 -3q-121 -2 -204 -43t-91 -98q-6 -49 22.5 -90t86.5 -46q39 -2 99.5 -1 t118.5 4.5t85 7.5z" />
<glyph unicode="&#xcc;" horiz-adv-x="819" d="M389 2054q49 -29 106.5 -68.5t107.5 -80.5t86 -78t42 -60q16 -61 -9.5 -102t-78.5 -25q-27 10 -95.5 35t-154.5 62t-163.5 81t-120.5 89q-35 35 -26 65.5t47 52t87 34t97 12t75 -16.5zM367 -18q-88 16 -124 118.5t-36 253.5q0 18 -1 92t-2 183.5t-2 236.5t-3 254 t-4 234.5t-4.5 177.5t-4.5 84q31 4 95.5 2t135 -19.5t124 -57.5t61.5 -109q4 -33 6 -113t3 -187.5t1 -227.5v-237.5v-218t1 -166t3 -79.5q6 -43 17.5 -62.5t25.5 -48.5q-51 -55 -126.5 -89.5t-165.5 -20.5z" />
<glyph unicode="&#xcd;" horiz-adv-x="819" d="M430 2054q27 16 75 16.5t97 -12t87 -34t47 -52t-25 -65.5q-43 -45 -121 -89t-164 -81t-154.5 -61.5t-95.5 -35.5q-51 -16 -77.5 25t-10.5 102q6 23 42 60t86 78t107.5 80.5t106.5 68.5zM375 -18q-88 16 -124 118.5t-36 253.5q0 18 -1 92t-2 183.5t-2 236.5t-3 254 t-4 234.5t-4 177.5t-4 84q31 4 95 2t135 -19.5t124 -57.5t61 -109q4 -33 6 -113t3.5 -187.5t1.5 -227.5v-237.5v-218t1 -166t3 -79.5q4 -43 16 -62.5t27 -48.5q-51 -55 -127 -89.5t-166 -20.5z" />
<glyph unicode="&#xce;" horiz-adv-x="1083" d="M584 2114q8 -8 44 -48.5t88 -95.5t108.5 -111.5t103.5 -99.5t73 -57q-27 -43 -89 -60.5t-138 3.5q-43 12 -83 55t-79 69q-18 12 -65 17.5t-82 -21.5t-74 -68.5t-80 -51.5q-76 -20 -138 -3t-91 60q27 14 74 58t103 101.5t109.5 113t89.5 94t42 45.5q14 16 41 19.5 t43 -19.5zM551 -18q-88 16 -124 118.5t-36 253.5q0 18 -1 92t-2 183.5t-2 236.5t-3 254t-4 234.5t-4 177.5t-4 84q31 4 95 2t136 -19.5t125 -57.5t61 -109q4 -33 6.5 -113t2.5 -187.5t1 -227.5t0 -237.5t-1 -218t1 -166t3 -79.5q6 -43 17 -62.5t28 -48.5q-51 -55 -128 -89.5 t-167 -20.5z" />
<glyph unicode="&#xcf;" horiz-adv-x="1120" d="M473 1882q0 -78 -49 -137t-145 -62q-45 0 -92.5 20.5t-77 64.5t-27.5 114q2 55 30.5 100.5t72.5 73t89 27.5q53 2 98.5 -26.5t73 -75t27.5 -99.5zM1038 1882q0 -78 -48 -137t-144 -62q-45 0 -92 20.5t-78 64.5t-29 114q2 55 31 100.5t73 73t91 27.5q53 2 98 -26.5 t71.5 -75t26.5 -99.5zM543 -18q-88 16 -124 118.5t-36 253.5q0 18 -1 92t-2 183.5t-2 236.5t-3 254t-4 234.5t-4 177.5t-5 84q31 4 95.5 2t135.5 -19.5t124 -57.5t61 -109q4 -33 6 -113t3 -187.5t1 -227.5v-237.5v-218t1.5 -166t3.5 -79.5q4 -43 16 -62.5t27 -48.5 q-51 -55 -127 -89.5t-166 -20.5z" />
<glyph unicode="&#xd0;" horiz-adv-x="1689" d="M1591 1092q10 -61 14.5 -133t-2 -173.5t-28.5 -248.5q-31 -199 -162 -333t-330 -175q-55 -12 -127.5 -17.5t-145.5 -8.5t-130 -7q-51 -10 -124 -14.5t-136.5 2t-89.5 22.5q14 29 24.5 87.5t16.5 128t4 132.5v66q0 65 -2 166q0 35 -21.5 83t-68.5 56q-39 4 -77 5t-46 1 q-20 0 -44 32t-33 71.5t11 60.5q2 2 25.5 1t50.5 -2t41 -1q53 4 92 40t47 99q12 84 14.5 162t-2.5 117q-2 43 -30.5 75.5t-40.5 65.5q-31 92 -27 176q8 -2 44 -5t85 -7q33 -2 94.5 -4t137 -5t151.5 -5l34 -2q34 -1 86 -5t106.5 -11t95.5 -17q133 -35 224 -95.5t147.5 -130 t85 -136t36.5 -113.5zM874 389q84 20 159 80.5t119 164t34 253.5q-14 195 -102.5 270.5t-227.5 77.5q-39 2 -76 -48t-45 -169q-2 -41 23.5 -78t64.5 -47q27 -6 58.5 -5t55.5 4t26 3q6 0 19 -22.5t26.5 -53.5t20.5 -56.5t1 -31.5q-2 -2 -30.5 -2t-66.5 1t-74 -1t-56 -12 q-49 -25 -65.5 -81t-9.5 -114.5t28 -91.5q23 -39 60.5 -43t57.5 2z" />
<glyph unicode="&#xd1;" horiz-adv-x="1519" d="M176 1769q20 35 60 78t90.5 86t101.5 75t94 40q88 18 148.5 8t104.5 -34.5t83 -51t84 -43.5q37 -14 78 -5t71.5 36t34.5 63q55 -57 61.5 -136t-24.5 -144q-20 -49 -100 -70.5t-170 4.5q-57 18 -92 42t-61.5 45.5t-55.5 33.5t-74 6q-59 -6 -90 -30.5t-84 -77.5 q-37 -37 -91 -30t-101.5 38.5t-67.5 66.5zM1430 1432q4 -35 6 -118t2 -198t-1 -241.5t-2 -251.5t-2 -227.5t-1 -167t2 -72.5q4 -16 -6.5 -52t-33 -68t-57.5 -40q-33 -6 -91 1t-116.5 32.5t-93.5 74.5q-20 29 -62 83.5t-92.5 118t-98.5 125t-80.5 104.5t-40.5 55 q-10 20 -35 39.5t-50.5 32t-41.5 6.5q-25 -8 -37.5 -49t-16.5 -89q-2 -31 -3 -93t0 -127.5t-1 -106.5q-2 -72 45 -137q-16 -10 -65 -32t-104.5 -38t-94.5 -14q-66 4 -116 67.5t-52 157.5l-8 1409q125 4 211 -19.5t143 -80.5q25 -23 72 -80.5t103.5 -130t110.5 -144t95 -126 t53 -70.5q33 -41 67 -64.5t56 -15.5q49 16 49 137l-4 594q23 4 79.5 2t119.5 -19q70 -16 127.5 -55.5t65.5 -111.5z" />
<glyph unicode="&#xd2;" d="M1663 879q20 -190 -17.5 -338t-116.5 -255.5t-185.5 -176t-226.5 -102.5t-236 -34q-117 0 -238 31t-228.5 96.5t-188.5 170t-119.5 249t-18.5 334.5q16 164 82 306.5t170 247.5t239.5 163.5t288.5 54.5q10 0 35 18.5t66 30.5q-68 25 -154 62t-165 81t-122 89 q-35 35 -24.5 65.5t47.5 52t87 34t97 12.5t74 -17q51 -29 107.5 -68.5t107.5 -80.5t86 -78t41 -60q20 -72 -16 -110q86 -35 174 -109.5t162.5 -179t126 -229.5t65.5 -260zM1063 1640q45 -14 72 17q-49 20 -97 24q-37 2 -69 -6q33 -12 57.5 -21.5t36.5 -13.5zM887 352 q72 2 136 20.5t115.5 67.5t83 139.5t33.5 231.5q2 98 -43 190.5t-124.5 157t-182.5 74.5q-111 12 -188.5 -21.5t-127.5 -98t-77 -144.5t-33 -162q-12 -141 27 -231.5t104.5 -139.5t140.5 -67.5t136 -16.5z" />
<glyph unicode="&#xd3;" d="M1040 2054q29 16 76 16.5t97.5 -12t87 -34t47 -52t-24.5 -65.5q-43 -45 -122 -89t-165 -81t-154.5 -61.5t-95.5 -35.5q-51 -16 -76.5 25t-9.5 102q6 23 41 60t85.5 78t107.5 80.5t106 68.5zM1663 879q20 -190 -17.5 -338t-116.5 -255.5t-185.5 -176t-226.5 -102.5 t-236 -34q-117 0 -238 31t-229.5 96.5t-189.5 170t-118.5 249t-17.5 334.5q16 164 82 306.5t170 247.5t238.5 163.5t289.5 54.5q10 0 31 15.5t54.5 30t82.5 9.5q92 -8 194.5 -75.5t195 -179t157 -252.5t80.5 -295zM887 352q72 2 136 20.5t115.5 67.5t82 139.5t32.5 231.5 q2 98 -43 190.5t-124.5 157t-182.5 74.5q-111 12 -188.5 -21.5t-127.5 -98t-76 -144.5t-32 -162q-12 -141 27 -231.5t104.5 -139.5t140.5 -67.5t136 -16.5z" />
<glyph unicode="&#xd4;" d="M1663 879q20 -190 -17.5 -338t-116.5 -255.5t-185.5 -176t-226.5 -102.5t-236 -34q-117 0 -238 31t-228.5 96.5t-188.5 170t-119.5 249t-18.5 334.5q18 164 84 306.5t170 247.5t238.5 163.5t287.5 54.5q10 0 31 15.5t55.5 30t83.5 9.5q20 -2 3 33t-46 55q-18 12 -64 17.5 t-81 -21.5t-75 -68.5t-81 -51.5q-76 -20 -138 -3t-89 60q25 14 73 58t104 101.5t108.5 113t88.5 94t42 45.5q14 16 41.5 19t44.5 -19q6 -8 43 -48.5t88 -95.5t107.5 -111.5t103.5 -99.5t73 -57q-14 -20 -37.5 -32.5t-50.5 -27.5q-20 -10 -18 -31.5t13.5 -40t17.5 -24.5 q86 -74 161.5 -178t127 -229t65.5 -260zM889 352q72 2 136.5 20.5t115.5 67.5t81.5 139.5t32.5 231.5q2 98 -43 190.5t-124.5 157t-182.5 74.5q-111 12 -188.5 -21.5t-127.5 -98t-77 -144.5t-33 -162q-12 -141 27 -231.5t104.5 -139.5t141.5 -67.5t137 -16.5z" />
<glyph unicode="&#xd5;" d="M406 1769q20 35 60 78t90 86t101.5 75t94.5 40q88 18 148.5 8t104.5 -34.5t82.5 -51t83.5 -43.5q37 -14 78 -5t72 36t35 63q55 -57 61 -136t-24 -144q-20 -49 -100.5 -70.5t-170.5 4.5q-57 18 -92 42t-61.5 45.5t-55 33.5t-73.5 6q-59 -6 -90 -30.5t-84 -77.5 q-37 -37 -91.5 -30t-102.5 38.5t-66 66.5zM1663 879q20 -190 -17.5 -338t-116.5 -255.5t-185.5 -176t-226.5 -102.5t-236 -34q-117 0 -238 31t-228.5 96.5t-188.5 170t-119.5 249t-18.5 334.5q16 164 82 306.5t170 247.5t239.5 163.5t288.5 54.5q10 0 31 15.5t55.5 30 t83.5 9.5q92 -8 194.5 -75.5t195 -179t156 -252.5t79.5 -295zM887 352q72 2 136 20.5t115.5 67.5t83 139.5t33.5 231.5q2 98 -43 190.5t-124.5 157t-182.5 74.5q-111 12 -188.5 -21.5t-127.5 -98t-77 -144.5t-33 -162q-12 -141 27 -231.5t104.5 -139.5t140.5 -67.5 t136 -16.5z" />
<glyph unicode="&#xd6;" d="M836 1882q0 -78 -48.5 -137t-144.5 -62q-45 0 -92 20.5t-78 64.5t-29 114q2 55 31 100.5t73 73t89 27.5q53 2 98 -26.5t73 -75t28 -99.5zM1403 1882q0 -78 -49 -137t-144 -62q-47 0 -94 20.5t-76.5 64.5t-27.5 114q2 55 30.5 100.5t72.5 73t89 27.5q53 2 98.5 -26.5 t73 -75t27.5 -99.5zM1663 879q20 -190 -16.5 -338t-116.5 -255.5t-186.5 -176t-226.5 -102.5t-236 -34q-117 0 -238 31t-228.5 96.5t-188.5 170t-119.5 249t-18.5 334.5q18 164 84 306.5t170 247.5t238.5 163.5t287.5 54.5q10 0 32 15.5t55.5 30t82.5 9.5q92 -8 194.5 -75.5 t195 -179t156 -252.5t79.5 -295zM889 352q72 2 136.5 20.5t115.5 67.5t81.5 139.5t32.5 231.5q2 98 -43 190.5t-124.5 157t-182.5 74.5q-111 12 -188.5 -21.5t-127.5 -98t-77 -144.5t-33 -162q-12 -141 27 -231.5t104.5 -139.5t141.5 -67.5t137 -16.5z" />
<glyph unicode="&#xd7;" horiz-adv-x="1384" d="M1038 645l40 -40t96.5 -96t107.5 -108q18 -18 18 -70t-10 -111.5t-24.5 -102.5t-22.5 -43q-20 -2 -39.5 5t-29.5 15l-37 37t-86.5 86t-101.5 102.5t-84 84.5l-34 34q-57 57 -139 57.5t-139 -57.5l-34 -34q-34 -33 -84 -84.5t-101 -102.5l-86 -86l-37 -37 q-10 -8 -28.5 -15t-41.5 -5q-8 0 -22.5 43t-25.5 102.5t-11 111.5t18 70q51 51 108.5 107.5t97.5 96.5l40 40q57 59 57 140t-57 139l-26 26l-64 64t-78 76.5t-65.5 64.5t-28.5 29q-6 6 3 38.5t25.5 73.5t35 76t30.5 43q55 37 109 -16q4 -4 31.5 -32t66.5 -67.5t78 -78.5 l65 -65l25 -26q57 -57 139 -57t139 57l26 26l65 65t77.5 78.5t67.5 67.5t31 32q53 53 106 16q12 -8 30.5 -43t35 -76t26 -73.5t4.5 -38.5q-2 -2 -28.5 -29t-65.5 -64.5t-77.5 -76.5t-64.5 -64l-26 -26q-57 -57 -57 -138.5t57 -140.5z" />
<glyph unicode="&#xd8;" horiz-adv-x="1748" d="M1661 879q20 -190 -16.5 -338t-115.5 -255.5t-185.5 -176t-226.5 -102.5t-236 -34q-33 0 -68 3.5t-70 7.5q-29 4 -77 -13.5t-95 -91.5q-14 -23 -32.5 -39t-46.5 -8q-55 10 -70 39q-18 37 -4 63q0 2 6 14.5t14 35.5q18 53 -6 86.5t-47 48.5q-98 70 -173 172t-108.5 242.5 t-15.5 320.5q16 164 82 305t170 246.5t238.5 164t289.5 56.5q72 0 129.5 4t104.5 31t90 90q8 10 25.5 23.5t35.5 17.5q23 8 66 -23q25 -14 22.5 -37.5t-2.5 -54.5q2 -18 1 -55t6.5 -76t29.5 -65q109 -121 188 -269.5t97 -332.5zM479 807q-6 -76 2 -132.5t21 -103.5 q8 -25 33.5 -34t54 -0.5t43.5 32.5q45 76 76.5 138.5t58.5 128t53 145.5q12 35 24.5 79t18.5 84t-3 66.5t-42 22.5q-115 -8 -187.5 -73.5t-108.5 -160t-44 -192.5zM903 362q86 -14 165 21t131 137.5t54 290.5q2 45 -8 90t-28 86q-12 29 -42 31t-62 -13.5t-50 -39.5 q-55 -76 -108.5 -180.5t-82.5 -229.5q-18 -88 -6 -138.5t37 -54.5z" />
<glyph unicode="&#xd9;" horiz-adv-x="1388" d="M508 2054q49 -29 106.5 -68.5t107.5 -80.5t85 -78t41 -60q18 -61 -7.5 -102t-78.5 -25q-27 10 -95.5 35t-154.5 62t-165 81t-122 89q-35 35 -24.5 65.5t48.5 52t87 34t97 12t75 -16.5zM1280 1432q6 -47 12 -152.5t10.5 -243t3.5 -282t-10.5 -273.5t-31.5 -215 q-35 -141 -204 -217t-423 -76q-168 0 -288 63.5t-184.5 175.5t-72.5 257q-4 72 -6 183.5t-3 241.5t-1 257t1 232.5t1 168.5v64q23 4 79 2t120 -19q70 -16 127 -55t65 -112q8 -61 3 -183.5t-8 -279t7 -324.5q2 -35 1 -80t12.5 -88t55.5 -71.5t130 -28.5t135 24.5t66.5 67.5 t24.5 100.5t9 122.5q4 43 3 127t-3 188.5t-6 211t-8 196.5t-6 145l-2 56q23 4 79 2t119 -19q70 -16 127.5 -55.5t65.5 -111.5z" />
<glyph unicode="&#xda;" horiz-adv-x="1388" d="M739 2054q29 16 76 16.5t96.5 -12t87 -34t48 -52t-24.5 -65.5q-43 -45 -122 -89t-165 -81t-154.5 -61.5t-95.5 -35.5q-51 -16 -77.5 25t-8.5 102q6 23 41 60t85 78t107.5 80.5t106.5 68.5zM1280 1432q6 -47 12 -152.5t10.5 -243t3.5 -282t-10.5 -273.5t-31.5 -215 q-35 -141 -204 -217t-423 -76q-168 0 -288 63.5t-184.5 175.5t-72.5 257q-4 72 -6 183.5t-3 241.5t-1 257t1 232.5t1 168.5v64q23 4 79 2t120 -19q70 -16 127 -55t65 -112q8 -61 3 -183.5t-8 -279t7 -324.5q2 -35 1 -80t12.5 -88t55.5 -71.5t130 -28.5t135 24.5t66.5 67.5 t25.5 100.5t10 122.5q2 43 2 127t-3 188.5t-7 211t-8 196.5t-6 145l-2 56q23 4 79 2t119 -19q70 -16 127.5 -55.5t65.5 -111.5z" />
<glyph unicode="&#xdb;" horiz-adv-x="1388" d="M690 2114q8 -8 44 -48.5t88 -95.5t108.5 -111.5t103.5 -99.5t74 -57q-27 -43 -89.5 -60.5t-139.5 3.5q-43 12 -83 55t-77 69q-18 12 -65.5 17.5t-82.5 -21.5t-74.5 -68.5t-80.5 -51.5q-76 -20 -137.5 -3t-90.5 60q27 14 74 58t103.5 101.5t108.5 113t88 94t42 45.5 q16 16 43 19.5t43 -19.5zM1280 1432q6 -47 12 -152.5t10.5 -243t3.5 -282t-10.5 -273.5t-31.5 -215q-35 -141 -204 -217t-423 -76q-168 0 -287 63.5t-184.5 175.5t-73.5 257q-4 72 -6 183.5t-3 241.5t-1 257t1 232.5t1 168.5v64q23 4 79 2t120 -19q70 -16 127 -55t65 -112 q8 -61 3 -183.5t-8 -279t7 -324.5q2 -35 1 -80t12.5 -88t55.5 -71.5t130 -28.5t135 24.5t66.5 67.5t25.5 100.5t10 122.5q2 43 2 127t-3 188.5t-7 211t-8 196.5t-6 145l-2 56q23 4 79 2t119 -19q70 -16 127.5 -55.5t65.5 -111.5z" />
<glyph unicode="&#xdc;" horiz-adv-x="1388" d="M594 1882q0 -78 -48 -137t-145 -62q-45 0 -92 20.5t-77.5 64.5t-28.5 114q2 55 30.5 100.5t72.5 73t89 27.5q55 2 100.5 -26.5t72 -75t26.5 -99.5zM1161 1882q0 -78 -48 -137t-144 -62q-45 0 -92.5 20.5t-78 64.5t-28.5 114q2 55 30.5 100.5t73 73t89.5 27.5 q53 2 98 -26.5t72.5 -75t27.5 -99.5zM1280 1432q6 -47 12 -152.5t10.5 -243t3.5 -282t-10.5 -273.5t-31.5 -215q-35 -141 -204 -217t-423 -76q-168 0 -287 63.5t-184.5 175.5t-73.5 257q-4 72 -6 183.5t-3 241.5t-1 257t1 232.5t1 168.5v64q23 4 79 2t120 -19 q70 -16 127 -55t65 -112q8 -61 3 -183.5t-8 -279t7 -324.5q2 -35 1 -80t12.5 -88t55.5 -71.5t130 -28.5t135 24.5t66.5 67.5t25.5 100.5t10 122.5q4 43 3 127t-4 188.5t-7 211t-7 196.5t-6 145l-3 56q23 4 79 2t119 -19q70 -16 127.5 -55.5t65.5 -111.5z" />
<glyph unicode="&#xdd;" horiz-adv-x="1519" d="M934 2054q29 16 76 16.5t96 -12t87 -34t47 -52t-26 -65.5q-43 -45 -120.5 -89t-163.5 -81t-154.5 -61.5t-95.5 -35.5q-51 -16 -78 25t-10 102q6 23 42 60t86 78t107.5 80.5t106.5 68.5zM1171 1686q133 -51 198 -126t69 -160t-45 -165q-27 -43 -78 -117t-121 -170 t-120 -221t-66 -242q-2 -84 -1 -164.5t9 -117.5q6 -37 32 -55l27 -17l-11 -29q-11 -30 -49 -65t-118 -51q-78 -14 -142.5 12.5t-99 92t-26.5 159.5q2 16 2 64v110.5t-2 120.5q-2 43 -16.5 108.5t-38 139t-52 140t-59.5 114.5q-53 82 -110.5 167.5t-105.5 159.5t-77 117 q-27 41 -58 67l-30 25q20 14 76.5 32.5t128 28t139.5 -4t111 -66.5q18 -20 49.5 -67.5t63.5 -94.5t48 -72q25 -35 63 -74.5t107 -43.5q29 -2 56.5 11t48.5 34q23 23 53.5 81t54.5 101q35 66 61.5 131.5t28.5 106.5z" />
<glyph unicode="&#xde;" horiz-adv-x="1515" d="M1434 778q8 -193 -114 -296t-378 -130q-33 -2 -103.5 -5t-156.5 -5q-86 -8 -144.5 -29.5t-60.5 -79.5q0 -55 26.5 -87.5t35.5 -49.5q-51 -45 -91 -70.5t-112 -41.5q-33 -8 -77 -3t-85 24.5t-66.5 53t-21.5 82.5q2 18 2 105.5v216.5v279.5t-1 298t-2 269.5t-2 196l-1 73 q18 4 62 6t97.5 -2t103.5 -19.5t86 -48t42 -88.5q2 -8 3 -25l1 -18q2 -66 37 -119t94.5 -83.5t128.5 -28.5h25h63t73 -1t54 -1q188 -6 291 -59.5t145 -135.5t46 -178zM686 657q37 -2 93.5 0t113.5 12.5t95 33t38 61.5q0 51 -53 71.5t-133 23.5t-160 -1q-92 -4 -145.5 -27.5 t-51.5 -82.5q4 -53 65.5 -70t137.5 -21z" />
<glyph unicode="&#xdf;" horiz-adv-x="1501" d="M1417 578q10 -180 -41 -300t-134 -190t-172 -96.5t-159 -18.5q-88 10 -149.5 49t-95 89.5t-39.5 95.5q39 18 95 38.5t110.5 48.5t91.5 63.5t34 80.5q-2 47 -41.5 92t-91 96.5t-88.5 119t-32 155.5q4 74 40.5 111t88 56t92.5 36q51 23 57 69t-10 70q-39 57 -106.5 90 t-145.5 27q-111 -8 -157 -64.5t-58 -134.5q-4 -27 -2 -102.5t7 -182t10 -223t8 -224t0 -189.5t-13 -115q-33 -98 -133 -151.5t-301 -26.5q16 29 23.5 95.5t9.5 144t0 141.5q0 23 -3 92t-7.5 173.5t-7.5 229.5t-3 258q0 141 47 241.5t122 168.5t162 107.5t169 56t139 16.5 q213 0 343 -42t195.5 -108.5t85 -138t13.5 -133.5q-8 -94 -57 -156.5t-109 -97.5q-33 -16 -24.5 -54t49.5 -69q72 -51 128 -124.5t60 -169.5z" />
<glyph unicode="&#xe0;" horiz-adv-x="1394" d="M688 1657q49 -29 106.5 -68t107.5 -81t86 -77.5t42 -60.5q16 -59 -9.5 -101t-78.5 -24q-27 8 -95.5 34t-154.5 62.5t-163.5 79.5t-120.5 88q-35 37 -26 67t47 52.5t87 34.5t97 11t75 -17zM1214 369q2 -45 7.5 -110.5t26 -127t65.5 -98.5q-51 -35 -108.5 -52.5t-104.5 5.5 q-45 23 -123 30t-174 -26q-37 -12 -76 -16.5t-78 -4.5q-106 0 -212.5 38t-192.5 118t-131 203t-27 295q12 119 67.5 218t137.5 172.5t173 113.5t177 36q86 -2 144.5 -11t103.5 -7q45 4 82 16.5t69 22.5q61 20 121 19t88 -7q-12 -37 -20 -110.5t-12.5 -167t-5.5 -193.5 t0 -192t3 -164zM657 297q90 -2 133.5 69.5t40.5 198.5q0 35 -7 82t-24.5 92t-47 76t-76.5 31q-94 0 -166 -69.5t-66 -219.5q4 -102 38 -158.5t82 -79t93 -22.5z" />
<glyph unicode="&#xe1;" horiz-adv-x="1394" d="M887 1657q29 16 76 17t96 -11t87 -34.5t47 -52.5t-26 -67q-43 -45 -120.5 -88t-163.5 -79.5t-155 -62.5t-95 -34q-51 -18 -78 24t-10 101q6 25 42 60.5t86 77.5t107.5 81t106.5 68zM1214 369q2 -45 7.5 -110.5t26 -127t65.5 -98.5q-51 -35 -104.5 -50.5t-104.5 -5.5 q-16 2 -31.5 7.5t-44.5 13.5q-47 14 -110.5 6t-133 -20.5t-135.5 -12.5q-106 0 -212.5 38t-192.5 117t-131 203t-27 296q12 119 67.5 218t137.5 171.5t173 111.5t177 39q66 -2 101.5 -5t93.5 -11q35 -4 87 11.5t106 31.5t93 18q59 2 85 -3t42 -9q-12 -39 -20 -111.5 t-12.5 -166t-5.5 -193.5t0 -193t3 -165zM444 559q4 -102 38 -159.5t82 -80t93 -22.5q90 0 133.5 70.5t40.5 197.5q0 35 -7 82t-24.5 93t-48 76t-77.5 30q-94 0 -165 -70t-65 -217z" />
<glyph unicode="&#xe2;" horiz-adv-x="1392" d="M850 1718q6 -10 43 -50t89 -94t107.5 -110.5t103.5 -99.5t73 -57q-27 -45 -88.5 -61.5t-139.5 3.5q-43 10 -83 53.5t-78 69.5q-16 14 -63.5 19.5t-82.5 -23.5q-35 -27 -75 -67.5t-81 -51.5q-76 -20 -137 -3.5t-90 61.5q27 14 74 58t103.5 101.5t108.5 112.5t88 94t42 45 q16 14 43 18.5t43 -18.5zM1212 369q2 -45 7.5 -110.5t26 -127t65.5 -98.5q-51 -35 -104.5 -50.5t-104.5 -5.5q-14 2 -29.5 7.5t-44.5 13.5q-49 14 -112.5 6t-132 -20.5t-134.5 -12.5q-106 0 -212.5 38t-192.5 117t-131 203t-27 296q12 119 67.5 218t136.5 171.5t173 111.5 t178 39q66 -2 100.5 -5t92.5 -11q37 -4 89 11.5t106 31.5t93 18q59 2 84 -3t43 -9q-12 -39 -20 -111.5t-12.5 -166t-5.5 -193.5t-1 -193t2 -165zM442 559q4 -102 38 -159.5t83 -80t94 -22.5q90 0 133.5 70.5t38.5 197.5q0 35 -7 82t-24.5 93t-47 76t-76.5 30q-94 0 -165 -70 t-67 -217z" />
<glyph unicode="&#xe3;" horiz-adv-x="1392" d="M246 1372q20 35 60 79t90 87t101.5 73.5t94.5 39.5q88 18 148.5 8t104.5 -35t83 -51.5t84 -42.5q37 -12 77.5 -4t71.5 34.5t35 63.5q55 -57 61.5 -135t-24.5 -143q-20 -49 -100 -71t-170 5q-57 18 -92 40.5t-62 44t-55.5 34t-73.5 8.5q-59 -8 -90 -31.5t-84 -77.5 q-37 -37 -91.5 -29.5t-102.5 38t-66 65.5zM1212 369q2 -45 7.5 -110.5t26 -127t65.5 -98.5q-51 -35 -104.5 -50.5t-104.5 -5.5q-14 2 -30.5 7.5t-45.5 13.5q-47 14 -110.5 6t-132 -20.5t-134.5 -12.5q-106 0 -212.5 38t-192.5 117t-131 203t-27 296q12 119 67.5 218 t136.5 171.5t172 111.5t177 39q66 -2 101.5 -5t93.5 -11q35 -4 88 11.5t107 31.5t93 18q59 2 84 -3t41 -9q-12 -39 -20 -111.5t-11.5 -166t-5.5 -193.5t-1 -193t3 -165zM442 559q4 -102 38 -159.5t82 -80t93 -22.5q90 0 133 70.5t41 197.5q0 35 -7 82t-24.5 93t-47 76 t-76.5 30q-94 0 -165 -70t-67 -217z" />
<glyph unicode="&#xe4;" horiz-adv-x="1392" d="M668 1485q0 -78 -48.5 -136.5t-144.5 -60.5q-45 0 -92 20.5t-78 64.5t-29 112q2 55 31 101t73 74t89 28q55 0 100 -29t72 -75t27 -99zM1235 1485q0 -78 -48 -136.5t-145 -60.5q-45 0 -92 20.5t-77.5 64.5t-28.5 112q2 55 30.5 101t72.5 74t89 28q53 0 98.5 -29t73 -75 t27.5 -99zM1214 369q2 -45 6.5 -110.5t25 -127t65.5 -98.5q-51 -35 -103.5 -50.5t-105.5 -5.5q-14 2 -29.5 7.5t-44.5 13.5q-47 14 -110.5 6t-133 -20.5t-135.5 -12.5q-106 0 -212.5 38t-192.5 117t-131 203t-27 296q12 119 67.5 218t137.5 171.5t173 111.5t177 39 q66 -2 101.5 -5t93.5 -11q35 -4 87 11.5t106 31.5t93 18q59 2 84 -3t43 -9q-12 -39 -20 -111.5t-12.5 -166t-5.5 -193.5t0 -193t3 -165zM444 559q4 -102 38 -159.5t82 -80t93 -22.5q90 0 133.5 70.5t38.5 197.5q0 35 -6 82t-23.5 93t-48 76t-77.5 30q-94 0 -165 -70 t-65 -217z" />
<glyph unicode="&#xe5;" horiz-adv-x="1392" d="M666 1272q-70 0 -123.5 33.5t-88 87t-49 113t-6.5 112.5q12 72 62.5 124t118 80.5t131.5 26.5q96 -2 154.5 -50t86 -116.5t29.5 -136.5q2 -66 -38 -129t-111.5 -104t-165.5 -41zM662 1663q-35 -4 -62 -53t-12 -103q6 -27 38.5 -45t78.5 -12q31 4 51 30.5t29.5 60.5 t2.5 58q-6 25 -37.5 47.5t-88.5 16.5zM1212 369q2 -45 7.5 -110.5t26 -127t65.5 -98.5q-51 -35 -108.5 -52.5t-104.5 5.5q-43 23 -121 30t-174 -26q-39 -12 -77 -16.5t-77 -4.5q-106 0 -212.5 38t-192.5 118t-131 203t-27 295q12 119 67.5 218t136.5 172.5t172 113.5t177 36 q88 -2 146.5 -11t103.5 -7q43 4 80 16.5t69 22.5q61 20 122 19t89 -7q-12 -37 -20 -110.5t-12.5 -167t-5.5 -193.5t-1 -192t2 -164zM655 297q90 -2 133 69.5t41 198.5q0 35 -7 82t-24.5 92t-47 76t-76.5 31q-94 0 -165 -69.5t-67 -219.5q4 -102 38 -158.5t82 -79t93 -22.5z " />
<glyph unicode="&#xe6;" horiz-adv-x="2054" d="M1898 510q51 -35 66.5 -99.5t-3.5 -139t-76.5 -143.5t-155 -114t-234.5 -47q-158 -4 -299 53q-23 10 -80 12.5t-114.5 -2.5t-86.5 -16q-61 -23 -129.5 -34t-136.5 -11q-106 0 -212.5 28t-192.5 85t-131 147t-27 215q12 82 75.5 142.5t160 99.5t206.5 55q41 6 77 26.5 t48.5 41t-22.5 25.5q-61 8 -135 6t-135.5 -3t-92.5 13q-37 16 -67.5 64.5t-53 102.5t-35.5 93l-12 39l45 6t118 13.5t157 13.5t162 6q139 0 236 -26.5t159 -67.5q20 -12 65 -15.5t90.5 4t67.5 19.5q78 43 164 63.5t168 12.5q162 -16 251 -86t116.5 -171.5t1.5 -218.5 q-14 -57 -62.5 -111t-119 -97t-151.5 -68t-159 -25q-39 0 -47 -28.5t12.5 -61t67.5 -43.5q55 -10 115.5 -3t113.5 27.5t82 43.5q39 29 78.5 77t66.5 97zM1477 893q-135 -6 -174 -70q-23 -37 -3.5 -72.5t48.5 -39.5q72 -8 139 4t76 47q14 57 -4.5 95t-81.5 36zM846 371 q4 18 -18.5 40.5t-55.5 42t-59 23.5q-61 12 -122 9t-93.5 -32.5t-12.5 -99.5q6 -18 39 -36.5t79 -30t89 -8.5q66 4 103 21.5t51 70.5z" />
<glyph unicode="&#xe7;" horiz-adv-x="1226" d="M872 -84q53 -10 97.5 -27.5t67 -44t10.5 -67.5q-18 -61 -115.5 -92t-249.5 -23q-96 6 -176 23.5t-127 56.5q-16 14 -22.5 36.5t3.5 31.5l42 -6q42 -7 101.5 -15t113 -14t77.5 -6q47 0 55.5 29.5t-38.5 47.5q-14 6 -63.5 11.5t-106 9.5t-97.5 6l-41 2l11 19q10 18 14 20 q2 4 9 24.5t-4 49t-64 53.5q-82 39 -153 112.5t-107.5 190.5t-22.5 285q10 129 70.5 231.5t148.5 173t185.5 108.5t185.5 40t158.5 -27t121 -75t73 -98t13.5 -97q-8 -43 -36.5 -80t-66.5 -59.5t-73 -24.5t-57 22q39 27 19.5 52.5t-65.5 40t-87 6.5q-106 -14 -158.5 -90 t-64.5 -172q-10 -82 17.5 -146.5t77.5 -101.5t107 -39q135 -2 223.5 39t138.5 94t68 88q57 -39 59.5 -120t-43.5 -169t-132 -155q-43 -33 -93.5 -57.5t-109.5 -35.5q-20 -2 -12 -23.5t20 -23.5q25 -2 50 -6t48 -8z" />
<glyph unicode="&#xe8;" horiz-adv-x="1269" d="M547 1657q49 -29 106.5 -68t107.5 -81t86 -77.5t42 -60.5q16 -59 -9.5 -101t-78.5 -24q-27 8 -95.5 34t-154.5 62.5t-164 79.5t-121 88q-35 37 -25.5 67t47.5 52.5t87 34.5t97 11t75 -17zM1114 512q51 -35 66.5 -99.5t-4 -139t-77 -143.5t-154.5 -114t-234 -47 q-115 -2 -224.5 28t-198.5 94.5t-144.5 164.5t-61.5 240q-2 29 0 58.5t4 61.5q2 10 2 17.5t2 15.5q20 123 85 225.5t159 174t201.5 106.5t212.5 25q162 -16 250.5 -86t116.5 -171.5t1 -217.5q-14 -59 -64.5 -114.5t-124 -100t-156.5 -68t-161 -19.5q-39 2 -41 -24.5 t22.5 -56t65.5 -37.5q96 -20 181.5 -1t130.5 54q39 29 78.5 77t66.5 97zM666 721q47 4 82.5 29.5t35.5 54.5q2 41 -19.5 66.5t-72.5 23.5q-57 -2 -110.5 -16.5t-63.5 -61.5q-6 -29 18.5 -51.5t61.5 -34.5t68 -10z" />
<glyph unicode="&#xe9;" horiz-adv-x="1269" d="M668 1657q29 16 74.5 17t96 -11t87.5 -34.5t47 -52.5t-25 -67q-43 -45 -121.5 -88t-163.5 -79.5t-155 -62.5t-94 -34q-51 -18 -78 24t-10 101q6 25 40.5 60.5t86 77.5t108 81t107.5 68zM1114 512q51 -35 66.5 -99.5t-4 -139t-77 -143.5t-154.5 -114t-234 -47 q-115 -2 -224.5 28t-198.5 94.5t-144.5 164.5t-61.5 240q-2 29 0 58.5t4 61.5q2 10 2 17.5t2 15.5q20 123 85 225.5t159 174t201.5 106.5t212.5 25q162 -16 250.5 -86t116.5 -171.5t1 -217.5q-14 -59 -64.5 -114.5t-124 -100t-156.5 -68t-161 -19.5q-39 2 -41 -24.5 t23.5 -56t66.5 -37.5q94 -20 179.5 -1t130.5 54q39 29 78.5 77t66.5 97zM666 721q47 4 82.5 29.5t35.5 54.5q2 41 -19.5 66.5t-72.5 23.5q-57 -2 -110.5 -16.5t-63.5 -61.5q-6 -29 18.5 -51.5t61.5 -34.5t68 -10z" />
<glyph unicode="&#xea;" horiz-adv-x="1269" d="M715 1718q6 -10 43 -50t88 -94t107.5 -110.5t103.5 -99.5t73 -57q-27 -45 -89 -61.5t-138 3.5q-43 10 -83 53.5t-79 69.5q-18 14 -65 19.5t-82 -23.5q-33 -27 -73 -67.5t-81 -51.5q-76 -20 -138 -3.5t-91 61.5q27 14 74 58t103 101.5t109.5 112.5t89.5 94t42 45 q14 14 41 18.5t45 -18.5zM1116 512q49 -35 65.5 -99.5t-4 -139t-78 -143.5t-153.5 -114t-233 -47q-117 -2 -226.5 28t-198.5 94.5t-144.5 164.5t-61.5 240q-2 29 0 58.5t4 61.5q2 10 2 17.5t2 15.5q20 123 85 225.5t159 174t201.5 106.5t212.5 25q162 -16 250.5 -86 t116.5 -171.5t1 -217.5q-14 -59 -64.5 -114.5t-124 -100t-155.5 -68t-160 -19.5q-41 2 -43 -24.5t23.5 -56t66.5 -37.5q94 -20 179.5 -1t130.5 54q39 29 79.5 77t67.5 97zM666 721q49 4 83.5 29.5t34.5 54.5q2 41 -18.5 66.5t-73.5 23.5q-57 -2 -110.5 -16.5t-63.5 -61.5 q-6 -29 18.5 -51.5t61.5 -34.5t68 -10z" />
<glyph unicode="&#xeb;" horiz-adv-x="1269" d="M584 1485q0 -78 -48.5 -136.5t-144.5 -60.5q-45 0 -92 20.5t-78 64.5t-28 112q2 55 30.5 101t72.5 74t91 28q53 0 98 -29t72 -75t27 -99zM1151 1485q0 -78 -48 -136.5t-145 -60.5q-45 0 -92 20.5t-77.5 64.5t-28.5 112q2 55 30.5 101t72.5 74t89 28q55 0 100.5 -29 t72 -75t26.5 -99zM1116 512q49 -35 65.5 -99.5t-4 -139t-78 -143.5t-153.5 -114t-233 -47q-117 -2 -226.5 28t-198.5 94.5t-144.5 164.5t-61.5 240q-2 29 0 58.5t4 61.5q2 10 2 17.5t2 15.5q20 123 85 225.5t159 174t202.5 106.5t213.5 25q160 -16 248.5 -86t116.5 -171.5 t1 -217.5q-14 -59 -64.5 -114.5t-124 -100t-155.5 -68t-160 -19.5q-39 2 -42 -24.5t22.5 -56t66.5 -37.5q94 -20 179.5 -1t130.5 54q39 29 79.5 77t67.5 97zM666 721q49 4 83.5 29.5t34.5 54.5q2 41 -18.5 66.5t-73.5 23.5q-57 -2 -110.5 -16.5t-63.5 -61.5 q-6 -29 18.5 -51.5t61.5 -34.5t68 -10z" />
<glyph unicode="&#xec;" horiz-adv-x="821" d="M389 1657q49 -29 106.5 -68t107.5 -81t85 -77.5t41 -60.5q18 -59 -8.5 -101t-77.5 -24q-27 8 -95.5 34t-154.5 62.5t-164.5 79.5t-122.5 88q-35 37 -24.5 67t48.5 52.5t87 34.5t97 11t75 -17zM664 207q2 -37 23.5 -62.5t51.5 -48.5q-14 -18 -36.5 -38.5t-66.5 -38 t-126 -27.5q-27 -4 -68 3t-79.5 42t-63.5 109.5t-20 205.5v88.5t-1.5 155.5t-3.5 186.5t-3 179t-2 134.5l-1 53q18 2 62.5 4t97.5 -1t103.5 -18.5t86 -48t41.5 -88.5q10 -78 8.5 -208t-4.5 -282.5t1 -299.5z" />
<glyph unicode="&#xed;" horiz-adv-x="819" d="M430 1657q29 16 76 17t96 -11t87 -34.5t48.5 -52.5t-24.5 -67q-43 -45 -122 -88t-165 -79.5t-154.5 -62.5t-95.5 -34q-51 -18 -77.5 24t-8.5 101q6 25 41 60.5t85 77.5t107.5 81t106.5 68zM606 207q2 -37 22.5 -62.5t53.5 -48.5q-14 -18 -36.5 -38.5t-66.5 -38 t-126 -27.5q-29 -4 -70 3t-80 42t-63.5 109.5t-20.5 205.5q2 23 1 88.5t-2 155.5t-2 186.5t-2 179t-2 134.5l-1 53q18 2 62 4t97.5 -1t103.5 -18.5t86 -48t42 -88.5q8 -78 6 -208t-4 -282.5t2 -299.5z" />
<glyph unicode="&#xee;" horiz-adv-x="1083" d="M584 1718q8 -10 44 -50t88 -94t108.5 -110.5t103.5 -99.5t73 -57q-27 -45 -89 -61.5t-140 3.5q-43 10 -83 53.5t-77 69.5q-18 14 -65 19.5t-82 -23.5q-35 -27 -75 -67.5t-81 -51.5q-76 -20 -137 -3.5t-90 61.5q27 14 74 58t103 101.5t108.5 112.5t88.5 94t42 45 q16 14 43 18.5t43 -18.5zM774 207q2 -37 23.5 -62.5t52.5 -48.5q-14 -18 -36.5 -38.5t-67 -38t-125.5 -27.5q-29 -4 -70 3t-80 42t-63.5 109.5t-20.5 205.5q2 23 1 88.5t-2 155.5t-2 186.5t-2 179t-2 134.5l-1 53q18 2 62 4t97.5 -1t103.5 -18.5t86 -48t42 -88.5 q10 -78 8 -208t-5 -282.5t1 -299.5z" />
<glyph unicode="&#xef;" horiz-adv-x="1122" d="M473 1485q0 -78 -48 -136.5t-144 -60.5q-45 0 -92.5 20.5t-78 64.5t-28.5 112q2 55 30.5 101t72.5 74t89 28q53 0 98.5 -29t73 -75t27.5 -99zM1040 1485q0 -78 -49 -136.5t-143 -60.5q-45 0 -92 20.5t-78 64.5t-29 112q2 55 31 101t73 74t89 28q53 0 98 -29t72.5 -75 t27.5 -99zM793 207q2 -37 23.5 -62.5t51.5 -48.5q-14 -18 -36.5 -38.5t-66.5 -38t-126 -27.5q-27 -4 -68 3t-79.5 42t-63.5 109.5t-20 205.5v88.5t-1 155.5t-3.5 186.5t-3.5 179t-2 134.5l-1 53q18 2 62.5 4t97.5 -1t103.5 -18.5t86 -48t41.5 -88.5q10 -78 8.5 -208 t-4.5 -282.5t1 -299.5z" />
<glyph unicode="&#xf0;" horiz-adv-x="1269" d="M1061 1655q6 2 27.5 -13.5t46 -38t41 -44t12.5 -29.5q-2 -6 -54.5 -29.5t-111.5 -62.5q-18 -10 -21.5 -64.5t21.5 -99.5q55 -102 86 -203.5t44 -186.5t15 -139q16 -260 -17.5 -421.5t-128.5 -243.5t-265 -105q-82 -10 -178.5 3.5t-189.5 56.5t-165.5 120.5t-111.5 193.5 t-25 276q14 158 86 268.5t176.5 169.5t216.5 63q29 2 39 14.5t6 26.5q-4 23 -29.5 41.5t-54.5 12.5q-57 -12 -99 -40l-48 -32q-18 -8 -53 12.5t-59.5 53t-14.5 59.5q2 4 36 12t103 51q29 16 31 49t-14 48q-27 23 -66 35t-61 8q18 45 67 83.5t108.5 68.5t109.5 43.5t73 6.5 q41 -14 82 -34.5t72 -55.5q16 -18 50 -20t66.5 6t44.5 14q70 35 87.5 49.5t19.5 16.5zM700 330q80 23 98.5 115t-22.5 217q-33 109 -81 147.5t-122 15.5q-39 -12 -73.5 -54t-46 -109.5t13.5 -161.5q20 -78 61 -118t88 -50t84 -2z" />
<glyph unicode="&#xf1;" horiz-adv-x="1331" d="M117 1372q20 35 61 79t91 87t101.5 73.5t92.5 39.5q90 18 150.5 8t104.5 -35t82 -51.5t83 -42.5q39 -12 80 -4t71.5 34.5t34.5 63.5q55 -57 61.5 -135t-24.5 -143q-20 -49 -100 -71t-170 5q-57 18 -93 40.5t-62 44t-54.5 34t-73.5 8.5q-59 -8 -90 -31.5t-84 -77.5 q-37 -37 -91.5 -29.5t-102.5 38t-68 65.5zM1198 258q2 -88 26 -124l25 -36l-35 -26q-34 -25 -93.5 -51.5t-133.5 -26.5q-109 0 -141.5 59.5t-34.5 153.5q0 16 2 71.5t3 125t-1 130t-8 84.5q-12 45 -34.5 61.5t-53.5 12.5q-51 -6 -96 -58t-74 -124t-29 -137q-2 -33 -4 -65 t-4 -56q-2 -18 5 -45t28 -43q-14 -25 -56.5 -65t-90.5 -71.5t-83 -33.5t-77.5 20.5t-74.5 67.5t-34 106q0 16 1 76t2 145t2 178t1 181t-2 154q0 55 -12 107t-25 86l-14 34q18 2 64.5 4t103.5 -1t113.5 -17.5t95.5 -44.5q41 -33 82 -40.5t65 9.5q72 47 146.5 81t142.5 42 q35 4 83 -3.5t94 -32t80 -68.5t42 -113q14 -119 8 -290t-4 -417z" />
<glyph unicode="&#xf2;" horiz-adv-x="1302" d="M623 1657q49 -29 106 -68t107.5 -81t86 -77.5t42.5 -60.5q16 -59 -9.5 -101t-78.5 -24q-27 8 -95.5 34t-154.5 62.5t-164 79.5t-121 88q-35 37 -25.5 67t47 52.5t87 34.5t97.5 11t75 -17zM1217 625q18 -172 -28 -296t-132 -203t-193.5 -117t-214.5 -38q-106 0 -212.5 38 t-192.5 117t-131 203t-27 296q16 158 93 275.5t198 187t264 77.5q8 0 16.5 11.5t32 21.5t72.5 6q117 -33 214 -113.5t162 -198t79 -267.5zM629 297q66 0 112.5 30.5t76.5 79t43 101.5t13 96q0 88 -29.5 138.5t-129.5 88.5q-29 10 -40 31t-30 23q-70 8 -117 -36t-70.5 -120 t-23.5 -164t33 -147.5t79 -90t83 -30.5z" />
<glyph unicode="&#xf3;" horiz-adv-x="1302" d="M725 1657q29 16 75 17t96 -11t87 -34.5t47 -52.5t-24 -67q-43 -45 -122 -88t-164 -79.5t-154.5 -62.5t-94.5 -34q-51 -18 -77.5 24t-10.5 101q6 25 41 60.5t86 77.5t107.5 81t107.5 68zM1217 625q18 -172 -27 -296t-132 -203t-194.5 -117t-214.5 -38q-106 0 -212.5 38 t-192.5 117t-131 203t-27 296q16 158 94 275.5t198 187t263 77.5q8 0 17.5 11.5t33 21.5t72.5 6q117 -33 213 -113.5t161 -198t79 -267.5zM631 297q66 0 111.5 30.5t75.5 79t43 101.5t13 96q0 88 -28.5 138.5t-130.5 88.5q-29 10 -39 31t-31 23q-68 8 -115 -36t-71.5 -120 t-24.5 -164t34 -147.5t80 -90t83 -30.5z" />
<glyph unicode="&#xf4;" horiz-adv-x="1302" d="M711 1718q6 -10 43 -50t88 -94t107.5 -110.5t103.5 -99.5t73 -57q-27 -45 -89 -61.5t-138 3.5q-43 10 -83 53.5t-79 69.5q-18 14 -64 19.5t-81 -23.5q-35 -27 -75 -67.5t-81 -51.5q-76 -20 -138 -3.5t-89 61.5q25 14 73 58t104 101.5t108.5 112.5t88 94t42.5 45 q14 14 41 18.5t45 -18.5zM1217 625q18 -172 -28 -296t-132 -203t-193.5 -117t-214.5 -38q-106 0 -212.5 38t-192.5 117t-131 203t-27 296q16 158 93 275.5t197 187t263 77.5q8 0 17.5 11.5t33 21.5t72.5 6q117 -33 214 -113.5t162 -198t79 -267.5zM629 297q66 0 112.5 30.5 t76.5 79t43 101.5t13 96q0 88 -29.5 138.5t-129.5 88.5q-29 10 -40 31t-30 23q-70 8 -117 -36t-70.5 -120t-23.5 -164t33 -147.5t79 -90t83 -30.5z" />
<glyph unicode="&#xf5;" horiz-adv-x="1302" d="M152 1372q20 35 61 79t91 87t101.5 73.5t92.5 39.5q90 18 149.5 8t103.5 -35t82.5 -51.5t84.5 -42.5q37 -12 78.5 -4t72.5 34.5t35 63.5q53 -57 59 -135t-22 -143q-23 -49 -103 -71t-170 5q-57 18 -92 40.5t-60.5 44t-55 34t-74.5 8.5q-59 -8 -90 -31.5t-84 -77.5 q-37 -37 -91.5 -29.5t-101.5 38t-67 65.5zM1217 625q18 -172 -27 -296t-132 -203t-194.5 -117t-214.5 -38q-106 0 -212.5 38t-192.5 117t-131 203t-27 296q16 158 94 275.5t198 187t263 77.5q8 0 17.5 11.5t33 21.5t72.5 6q117 -33 213 -113.5t161 -198t79 -267.5zM631 297 q66 0 111.5 30.5t75.5 79t43 101.5t13 96q0 88 -28.5 138.5t-130.5 88.5q-29 10 -39 31t-31 23q-68 8 -115 -36t-71.5 -120t-24.5 -164t34 -147.5t80 -90t83 -30.5z" />
<glyph unicode="&#xf6;" horiz-adv-x="1302" d="M528 1485q0 -78 -48 -136.5t-144 -60.5q-45 0 -92 20.5t-78 64.5t-29 112q2 55 31 101t73 74t89 28q55 0 100 -29t71.5 -75t26.5 -99zM1096 1485q0 -78 -48.5 -136.5t-144.5 -60.5q-45 0 -92 20.5t-78 64.5t-28 112q2 55 30.5 101t72.5 74t89 28q53 0 98 -29t73 -75 t28 -99zM1217 625q18 -172 -27 -296t-132 -203t-194.5 -117t-214.5 -38q-104 0 -211.5 38t-192.5 117t-131 203t-28 296q18 158 95 275.5t197 187t263 77.5q8 0 17.5 11.5t33 21.5t72.5 6q117 -33 213 -113.5t161 -198t79 -267.5zM631 297q66 0 113 30.5t75.5 79t41.5 101.5 t13 96q0 88 -28.5 138.5t-130.5 88.5q-29 10 -39 31t-31 23q-68 8 -115 -36t-70.5 -120t-23.5 -164t33 -147.5t79 -90t83 -30.5z" />
<glyph unicode="&#xf7;" horiz-adv-x="1589" d="M754 1415q72 0 107.5 -12t58 -49t47.5 -113q18 -53 -4.5 -111.5t-79 -98.5t-142.5 -40q-84 0 -136 39t-72.5 95.5t-16.5 107.5q8 68 70 125t168 57zM125 918q16 0 99 -1.5t208 -1.5h269.5t286.5 1.5t260 1.5h188h71l-4 -40t-17 -94.5t-42 -98.5t-78 -50q-27 -4 -102.5 -6 t-182 -3t-228.5 -1t-240.5 1t-218 3t-164 4t-74.5 6q-27 10 -45.5 54t-25.5 96.5t1 91.5t39 37zM754 543q72 0 107.5 -12.5t58 -49.5t47.5 -112q18 -53 -4.5 -111.5t-79 -98.5t-142.5 -40q-84 0 -136 39t-72.5 95t-16.5 107q8 68 70 125.5t168 57.5z" />
<glyph unicode="&#xf8;" horiz-adv-x="1302" d="M1217 623q18 -172 -27 -295t-132 -203t-194.5 -118t-214.5 -38q-37 0 -74 6q-27 4 -75.5 -14t-73.5 -65q-14 -27 -33.5 -40.5t-48.5 -7.5q-57 12 -70 43q-8 16 -8 34t4 28q2 2 7.5 33.5t-2 74.5t-44.5 76q-80 78 -120.5 200t-24.5 286q16 150 85 264t177.5 186t239.5 86 q35 4 91 16.5t109.5 37t75.5 61.5q10 29 49 39q29 10 78 -23q23 -16 25 -39.5t-6 -52.5q-10 -45 5 -102.5t36 -79.5q66 -76 110 -175t56 -218zM424 551q0 -47 26.5 -67.5t65.5 14.5q14 14 36.5 58t45.5 100.5t41 104.5t23 68q6 27 -6.5 42.5t-30 20.5t-25.5 3 q-51 -12 -91 -65.5t-62.5 -127t-22.5 -151.5zM639 360q-6 -39 31 -49t82 23q66 47 94 127t28 143q0 57 -31.5 79t-62.5 3q-20 -12 -50 -68.5t-56.5 -127.5t-34.5 -130z" />
<glyph unicode="&#xf9;" horiz-adv-x="1288" d="M543 1657q49 -29 106.5 -68t107.5 -81t85 -77.5t41 -60.5q18 -59 -8.5 -101t-77.5 -24q-27 8 -95.5 34t-154.5 62.5t-165 79.5t-122 88q-35 37 -24.5 67t48.5 52.5t87 34.5t97 11t75 -17zM1135 258q0 -18 7 -54t17 -76t22.5 -68.5t24.5 -34.5q-29 -35 -92 -57.5 t-125 -6.5q-49 12 -89 25.5t-107 11.5q-49 -2 -97.5 -11.5t-97.5 -17.5q-25 -4 -85 -3t-130 15.5t-129 47.5q-80 47 -119 138t-43 185q-2 23 -3 88.5t-2 155.5t-2 186.5t-2 179t-1 134.5v53q18 2 62 4t97.5 -1t103.5 -18.5t86 -48t42 -88.5q6 -45 8 -81.5t2 -80.5t-3 -108.5 t-9 -163.5q-4 -80 -2 -137t27.5 -86t93.5 -27q45 2 75.5 36t49 83t26 100.5t4.5 90.5q0 8 -1 64t-2 133t-2 153t-1 126v50q25 4 84.5 1t128 -20.5t119.5 -56.5t59 -108q14 -119 6.5 -290t-1.5 -417z" />
<glyph unicode="&#xfa;" horiz-adv-x="1288" d="M618 1657q29 16 76 17t97.5 -11t87 -34.5t47 -52.5t-24.5 -67q-43 -45 -122 -88t-165 -79.5t-154.5 -62.5t-94.5 -34q-51 -18 -77 24t-9 101q6 25 40.5 60.5t86 77.5t107.5 81t105 68zM1135 258q0 -18 6 -54t17 -76t23.5 -68.5t24.5 -34.5q-29 -35 -92 -57.5t-127 -6.5 q-47 12 -87 25.5t-107 11.5q-49 -2 -97.5 -11.5t-97.5 -17.5q-25 -4 -85 -3t-131 15.5t-128 47.5q-80 47 -119 138t-45 185q0 23 -1 88.5t-2 155.5t-2 186.5t-2 179t-1 134.5v53q18 2 62 4t97.5 -1t103.5 -18.5t86 -48t42 -88.5q6 -45 8 -81.5t1 -80.5t-4 -108.5t-7 -163.5 q-4 -80 -2 -137t27.5 -86t93.5 -27q45 2 75.5 36t48 83t26 100.5t5.5 90.5q0 8 -1 64t-2 133t-2 153t-1 126v50q18 2 61.5 1t96.5 -9t104.5 -28.5t87 -56.5t41.5 -91q12 -119 5.5 -290t-0.5 -417z" />
<glyph unicode="&#xfb;" horiz-adv-x="1286" d="M635 1718q6 -10 43 -50t89 -94t107.5 -110.5t103.5 -99.5t73 -57q-27 -45 -88.5 -61.5t-139.5 3.5q-43 10 -83 53.5t-78 69.5q-16 14 -63.5 19.5t-82.5 -23.5q-35 -27 -75 -67.5t-81 -51.5q-76 -20 -137 -3.5t-90 61.5q27 14 74 58t103.5 101.5t108.5 112.5t88 94t42 45 q16 14 43 18.5t43 -18.5zM1133 258q0 -18 7 -54t17 -76t22.5 -68.5t24.5 -34.5q-27 -35 -91 -57.5t-126 -6.5q-49 12 -89 25.5t-105 11.5q-51 -2 -98.5 -11.5t-98.5 -17.5q-25 -4 -85 -3t-130 15.5t-129 47.5q-80 47 -118 138t-44 185q-2 23 -3 88.5t-2 155.5t-1 186.5 t-1 179t-1 134.5v53q18 2 61 4t96.5 -1t104.5 -18.5t87 -48t42 -88.5q4 -45 6 -81.5t2 -80.5t-3 -108.5t-9 -163.5q-4 -80 -2 -137t27.5 -86t93.5 -27q45 2 75.5 36t49 83t25.5 100.5t5 90.5l-6 526q25 4 84.5 1t128 -20.5t119.5 -56.5t59 -108q14 -119 7.5 -290t-2.5 -417z " />
<glyph unicode="&#xfc;" horiz-adv-x="1288" d="M494 1485q0 -78 -48.5 -136.5t-144.5 -60.5q-45 0 -92 20.5t-78 64.5t-29 112q2 55 31 101t73 74t89 28q55 0 100 -29t72 -75t27 -99zM1061 1485q0 -78 -48 -136.5t-145 -60.5q-45 0 -92 20.5t-77.5 64.5t-28.5 112q2 55 30.5 101t72.5 74t89 28q53 0 98.5 -29t73 -75 t27.5 -99zM1135 258q0 -18 6 -54t17 -76t23.5 -68.5t24.5 -34.5q-29 -35 -92 -57.5t-127 -6.5q-49 12 -88 25.5t-106 11.5q-51 -2 -98.5 -11.5t-98.5 -17.5q-25 -4 -85 -3t-130 15.5t-129 47.5q-78 47 -117 138t-45 185q0 23 -1 88.5t-2 155.5t-2 186.5t-2 179t-1 134.5v53 q18 2 62 4t97.5 -1t103.5 -18.5t86 -48t42 -88.5q4 -45 6 -81.5t2 -80.5t-3 -108.5t-7 -163.5q-4 -80 -3 -137t26.5 -86t93.5 -27q45 2 75.5 36t49 83t25.5 100.5t5 90.5l-4 526q18 2 61.5 1t96.5 -9t104.5 -28.5t87 -56.5t41.5 -91q12 -119 5.5 -290t-0.5 -417z" />
<glyph unicode="&#xfd;" horiz-adv-x="1169" d="M647 1659q29 16 76 16t96 -11t87 -33.5t48.5 -53.5t-24.5 -66q-43 -45 -122 -89t-165 -80.5t-154.5 -61.5t-95.5 -35q-51 -16 -77.5 26t-8.5 101q6 25 41 60.5t85 77.5t107.5 81t106.5 68zM805 1178q141 -18 205.5 -82t74 -151t-21.5 -177q-16 -51 -47 -129t-66 -160 t-62.5 -147.5t-39.5 -91.5q-31 -76 -77 -161t-99.5 -159t-111.5 -121t-114 -47q-74 0 -119.5 37t-69.5 91t-30 106q53 -14 98.5 1t77.5 44q31 29 38.5 66.5t4.5 64.5q-6 53 -22 118.5t-41 129.5l-301 745q31 4 81 11.5t105.5 2t106.5 -31t84 -84.5q12 -18 29.5 -60.5 t37 -88.5t31.5 -79q20 -51 47 -80.5t53 -31.5q23 -2 45.5 17.5t34.5 49.5q14 31 30.5 87.5t25.5 95.5q20 72 21 123t-9 92z" />
<glyph unicode="&#xfe;" horiz-adv-x="1259" d="M637 1171q260 -20 398.5 -164.5t142.5 -381.5q4 -195 -68 -320t-194.5 -189.5t-274.5 -82.5q-12 -2 -47 -14.5t-57 -34.5q-12 -10 -21.5 -39t-5.5 -60.5t33 -58.5q-25 -25 -65 -53.5t-99.5 -45t-138.5 -3.5q-49 8 -85 63t-38 150l-6 1384q-2 115 -15 187l-14 73 q27 10 87 14t126.5 -7t117 -47t58.5 -105q0 -4 2 -36t7 -68t9 -54q12 -47 57.5 -75t90.5 -32zM672 354q33 4 68.5 33t61 84t25.5 137q0 127 -51 183.5t-110 56.5q-39 0 -75 -5t-61.5 -45t-35.5 -145q-10 -135 16.5 -200.5t72.5 -84t89 -14.5z" />
<glyph unicode="&#xff;" horiz-adv-x="1171" d="M524 1487q0 -78 -49 -137.5t-145 -61.5q-45 0 -92.5 21.5t-77 65.5t-27.5 112q2 55 31 101t73 73t89 27q53 2 98 -27t72.5 -75t27.5 -99zM1090 1487q0 -78 -48.5 -137.5t-144.5 -61.5q-45 0 -92 21.5t-78 65.5t-29 112q2 55 31 101t73 73t89 27q55 2 100 -27t72 -75 t27 -99zM805 1178q139 -18 203.5 -82t74 -151t-19.5 -177q-16 -51 -48 -129t-66 -160t-62.5 -147.5t-38.5 -91.5q-33 -76 -78 -161t-99.5 -159t-112.5 -121t-114 -47q-74 0 -119.5 37t-68.5 91t-29 106q53 -14 98.5 1t77.5 44q31 29 38.5 66.5t2.5 64.5q-10 115 -63 248 l-299 745q31 4 81 11.5t105.5 2t106.5 -31t84 -84.5q10 -18 27.5 -60.5t37 -88.5t33.5 -79q20 -51 47 -80.5t53 -31.5q23 -2 44.5 17.5t35.5 49.5q12 31 28.5 87.5t27.5 95.5q18 72 19 123t-7 92z" />
<glyph unicode="&#x152;" horiz-adv-x="2385" d="M1726 356q33 -4 91.5 -2t126 8.5t132 15.5t109.5 19.5t53 18.5q23 -23 32 -83.5t0 -132t-42 -130t-94 -74.5q-27 -4 -102.5 3t-176 18.5t-207 19.5t-197.5 7t-146 -19q-78 -20 -172.5 -32.5t-219.5 -12.5q-117 0 -240.5 30.5t-236 95t-197.5 167t-128 247t-25 332.5 q16 164 83 303t173.5 243.5t240.5 163t285 58.5q119 0 248 -5t250 -10.5t215 -10.5t145 -5q57 -6 138.5 -3t163 10.5t140 17.5t70.5 20q23 -23 43.5 -76t22.5 -116.5t-24.5 -114.5t-100.5 -67q-12 -6 -54 -9.5t-93.5 -5.5t-87.5 -2h-37q-123 0 -204 -39t-81 -96 q0 -45 45 -90t135 -45q23 0 67 5t94 13t89 19.5t51 21.5q23 -23 34 -76t5 -116.5t-36.5 -114.5t-92.5 -68q-23 -6 -84 -15t-132 -24.5t-125 -38t-66 -57.5q-10 -57 26.5 -106.5t93.5 -59.5zM930 356q98 0 157.5 35t90 132.5t36.5 283.5q0 98 -23.5 192.5t-81.5 159 t-165 70.5q-141 16 -246.5 -35t-163 -151.5t-57.5 -235.5q0 -152 46 -244t118 -139t150 -60.5t139 -7.5z" />
<glyph unicode="&#x153;" horiz-adv-x="2072" d="M1919 512q49 -35 65.5 -99.5t-4 -140t-78 -144.5t-153.5 -114t-233 -47q-74 0 -147 11.5t-138 35.5q-33 14 -94.5 21.5t-133 2.5t-133.5 -28q-111 -41 -221 -41q-106 0 -212.5 38t-192.5 118t-131 203t-27 295q16 158 93 276.5t197 187t263 76.5q8 2 17.5 13.5t33 20.5 t72.5 5q45 -12 88 -32.5t82 -47.5q47 -29 114.5 -30.5t135 12.5t106.5 31q66 29 132.5 40t131.5 3q160 -16 249 -86t117 -171.5t1 -218.5q-14 -68 -79.5 -131t-158 -107t-190.5 -58q-14 -2 -42 -12.5t-26 -45.5q4 -35 34 -55.5t50 -24.5q82 -18 150.5 7.5t114.5 60.5 q39 29 79.5 77t67.5 99zM1495 893q-53 -2 -97 -22.5t-50 -51.5q-8 -57 23.5 -80.5t78.5 -22.5t87 16.5t44 31.5q16 57 -3.5 95t-82.5 34zM629 297q66 0 112.5 30.5t76.5 79t43 101.5t13 96q0 88 -29.5 138.5t-131.5 88.5q-29 10 -39 31t-29 23q-70 8 -117 -37t-70.5 -121 t-23.5 -164t33 -147.5t79 -89t83 -29.5z" />
<glyph unicode="&#x178;" horiz-adv-x="1519" d="M741 1882q0 -78 -48 -137t-144 -62q-45 0 -92 20.5t-78 64.5t-29 114q2 55 31 100.5t73 73t89 27.5q53 2 98 -26.5t72.5 -75t27.5 -99.5zM1309 1882q0 -78 -49.5 -137t-143.5 -62q-45 0 -92 20.5t-78 64.5t-28 114q2 55 30.5 100.5t72.5 73t89 27.5q53 2 98 -26.5t73 -75 t28 -99.5zM1171 1686q133 -51 198 -126t69 -160t-45 -165q-27 -43 -77 -117t-122 -170q-70 -96 -119 -221t-65 -242q-2 -84 -1 -164.5t7 -117.5q8 -37 34 -55l25 -17l-11 -29q-11 -30 -49 -65t-116 -51q-78 -14 -142.5 12.5t-99 92t-26.5 159.5q2 16 1 64t-1 110.5t-2 120.5 q0 43 -14.5 108.5t-38 139t-53 140t-60.5 114.5l-293 444q-27 41 -58 67l-30 25q23 14 79 32.5t126.5 28t139.5 -4t112 -66.5q16 -20 47.5 -67.5t64.5 -94.5t49 -72q25 -35 63 -74.5t107 -43.5q29 -2 55.5 11t49.5 34q23 23 53.5 81t54.5 101q35 66 61.5 131.5t26.5 106.5z " />
<glyph unicode="&#x2c6;" horiz-adv-x="1228" d="M666 2114q6 -8 42.5 -48.5t88 -95.5t108 -111.5t103.5 -99.5t73 -57q-27 -43 -89 -60.5t-138 3.5q-43 12 -83 55t-79 69q-18 12 -64 17.5t-81 -21.5t-75 -68.5t-81 -51.5q-76 -20 -138.5 -3t-88.5 60q25 14 73 58t104 101.5t108.5 113t88 94t42.5 45.5q14 16 42 19.5 t44 -19.5z" />
<glyph unicode="&#x2dc;" horiz-adv-x="1228" d="M102 1769q20 35 61.5 78t91.5 86t101.5 75t92.5 40q90 18 150 8t104.5 -34.5t82 -51t82.5 -43.5q39 -14 80 -5t72 36t35 63q55 -57 61 -136t-24 -144q-20 -49 -100.5 -70.5t-170.5 4.5q-57 18 -93 42t-61.5 45.5t-54 33.5t-73.5 6q-59 -6 -90 -30.5t-84 -77.5 q-37 -37 -91.5 -30t-103 38.5t-68.5 66.5z" />
<glyph unicode="&#x2000;" horiz-adv-x="1066" />
<glyph unicode="&#x2001;" horiz-adv-x="2133" />
<glyph unicode="&#x2002;" horiz-adv-x="1066" />
<glyph unicode="&#x2003;" horiz-adv-x="2133" />
<glyph unicode="&#x2004;" horiz-adv-x="711" />
<glyph unicode="&#x2005;" horiz-adv-x="533" />
<glyph unicode="&#x2006;" horiz-adv-x="355" />
<glyph unicode="&#x2007;" horiz-adv-x="355" />
<glyph unicode="&#x2008;" horiz-adv-x="266" />
<glyph unicode="&#x2009;" horiz-adv-x="426" />
<glyph unicode="&#x200a;" horiz-adv-x="118" />
<glyph unicode="&#x2010;" horiz-adv-x="1224" d="M213 856q18 0 85 -1t161 -1h195.5t190.5 1t144 1h55v-32q0 -33 -4 -82.5t-14 -99.5t-31.5 -87t-56.5 -43q-33 -4 -107.5 -7t-167 -4t-181.5 1t-152.5 6t-75.5 10q-18 8 -33.5 45t-27 87t-13.5 97.5t5.5 79t27.5 29.5z" />
<glyph unicode="&#x2011;" horiz-adv-x="1224" d="M213 856q18 0 85 -1t161 -1h195.5t190.5 1t144 1h55v-32q0 -33 -4 -82.5t-14 -99.5t-31.5 -87t-56.5 -43q-33 -4 -107.5 -7t-167 -4t-181.5 1t-152.5 6t-75.5 10q-18 8 -33.5 45t-27 87t-13.5 97.5t5.5 79t27.5 29.5z" />
<glyph unicode="&#x2012;" horiz-adv-x="1224" d="M213 856q18 0 85 -1t161 -1h195.5t190.5 1t144 1h55v-32q0 -33 -4 -82.5t-14 -99.5t-31.5 -87t-56.5 -43q-33 -4 -107.5 -7t-167 -4t-181.5 1t-152.5 6t-75.5 10q-18 8 -33.5 45t-27 87t-13.5 97.5t5.5 79t27.5 29.5z" />
<glyph unicode="&#x2013;" horiz-adv-x="1024" d="M1024 752v-166h-1024v166h1024z" />
<glyph unicode="&#x2014;" horiz-adv-x="2048" d="M2048 752v-166h-2048v166h2048z" />
<glyph unicode="&#x2018;" horiz-adv-x="761" d="M524 1114q-45 -49 -100 -56t-106.5 18.5t-88.5 74.5q-37 53 -47 124t23 152q35 84 124 155t214 97q23 4 30 2t9 -6q4 -18 -13 -26q-51 -29 -85.5 -72t-42 -83t19.5 -58q8 -6 38.5 -34t57.5 -72t24.5 -99.5t-57.5 -116.5z" />
<glyph unicode="&#x2019;" horiz-adv-x="761" d="M238 1624q45 49 99 56.5t107.5 -17.5t87.5 -76q37 -51 48.5 -122.5t-23.5 -153.5q-35 -84 -123 -155t-215 -97q-39 -8 -39 4q-4 16 10 27q53 29 88 72.5t43.5 83.5t-20.5 59q-8 6 -39 33.5t-57.5 70.5t-24 98.5t57.5 116.5z" />
<glyph unicode="&#x201a;" horiz-adv-x="761" d="M244 293q45 49 99 56t107.5 -17.5t88.5 -75.5q37 -51 48 -123t-24 -153q-35 -84 -123 -155t-215 -97q-39 -8 -39 4q-4 16 11 26q53 29 87.5 73t43 84t-20.5 58q-8 6 -38.5 34t-57.5 71t-24.5 98.5t57.5 116.5z" />
<glyph unicode="&#x201c;" horiz-adv-x="1193" d="M526 1114q-45 -49 -100 -56t-107.5 18.5t-89.5 74.5q-37 53 -47 124t23 152q35 84 124 155t214 97q23 4 31 2t10 -6q0 -18 -13 -26q-51 -29 -85.5 -72t-43 -83t18.5 -58q8 -6 38.5 -34t57.5 -72t25.5 -99.5t-56.5 -116.5zM956 1114q-45 -49 -100 -56t-107.5 18.5 t-89.5 74.5q-37 53 -47 124t23 152q35 84 124 155t214 97q23 4 31 2t10 -6q0 -18 -13 -26q-51 -29 -85.5 -72t-43 -83t18.5 -58q8 -6 39 -34t57.5 -72t25 -99.5t-56.5 -116.5z" />
<glyph unicode="&#x201d;" horiz-adv-x="1193" d="M668 1624q45 49 100 56.5t108.5 -17.5t88.5 -76q37 -51 47 -122.5t-23 -153.5q-35 -84 -124 -155t-214 -97q-23 -4 -31 -2t-10 6q0 18 13 27q53 29 86.5 72.5t42 83.5t-18.5 59q-8 6 -38.5 33.5t-57.5 70.5t-25.5 98.5t56.5 116.5zM238 1624q45 49 100 56.5t108.5 -17.5 t88.5 -76q37 -51 47 -122.5t-23 -153.5q-35 -84 -124 -155t-214 -97q-23 -4 -31 -2t-10 6q0 18 13 27q53 29 86.5 72.5t42 83.5t-18.5 59q-8 6 -39 33.5t-57.5 70.5t-25 98.5t56.5 116.5z" />
<glyph unicode="&#x201e;" horiz-adv-x="1193" d="M664 293q45 49 100 56t108.5 -17.5t88.5 -75.5q37 -51 47 -123t-23 -153q-35 -84 -124 -155t-214 -97q-23 -4 -31 -2t-10 6q0 18 12 26q53 29 87 73t42.5 84t-18.5 58q-8 6 -39 34t-57.5 71t-25 98.5t56.5 116.5zM233 293q45 49 100.5 56t109 -17.5t87.5 -75.5 q37 -51 47.5 -123t-22.5 -153q-35 -84 -124 -155t-214 -97q-23 -4 -31 -2t-10 6q0 18 12 26q53 29 87 73t42.5 84t-18.5 58q-8 6 -39 34t-57.5 71t-25.5 98.5t56 116.5z" />
<glyph unicode="&#x2022;" horiz-adv-x="985" d="M795 815q25 -74 -6 -152.5t-107 -133t-193 -54.5q-115 0 -185.5 53.5t-99 130t-22.5 146.5q8 61 47 117.5t109 93.5t166 37t146 -16.5t80 -67t65 -154.5z" />
<glyph unicode="&#x2026;" horiz-adv-x="1839" d="M385 346q63 0 95 -10t50.5 -43t40.5 -100q16 -45 -3 -96.5t-68 -86.5t-123 -35t-119 34t-63.5 83t-14.5 94q6 59 59.5 109.5t145.5 50.5zM928 346q61 0 93 -10t51.5 -43t39.5 -100q16 -45 -3 -96.5t-68.5 -86.5t-122.5 -35q-74 0 -119 34t-63.5 83t-14.5 94 q6 59 59.5 109.5t147.5 50.5zM1468 346q61 0 93 -10t51.5 -43t40.5 -100q16 -45 -3.5 -96.5t-68.5 -86.5t-123 -35t-119 34t-62 83t-13 94q6 59 59 109.5t145 50.5z" />
<glyph unicode="&#x202f;" horiz-adv-x="426" />
<glyph unicode="&#x2039;" horiz-adv-x="1050" d="M674 680q0 -16 19.5 -51t49 -77t58 -80t49.5 -62l20 -25q-45 -47 -113.5 -60.5t-142 7t-135.5 71.5l-37 31q-36 31 -87.5 73t-98.5 81t-68 55q-8 6 -8 31.5t8 32.5q20 16 67.5 55t99 81t87.5 73l37 30q61 53 135 72.5t142.5 6.5t113.5 -60l-20 -23q-19 -24 -48.5 -61 t-58 -78t-49 -74t-20.5 -49z" />
<glyph unicode="&#x203a;" horiz-adv-x="1050" d="M377 680q0 16 -19.5 49t-49 74t-59.5 78t-49 61l-20 23q47 47 116 60t142.5 -6.5t134.5 -72.5l37 -30q37 -31 88.5 -73t97.5 -81t66 -55q8 -6 8 -32t-8 -32q-20 -16 -66 -55t-97.5 -81t-88.5 -73l-37 -31q-61 -51 -134.5 -71.5t-142.5 -7t-116 60.5l20 25q21 24 50 62 t58.5 80t49 77t19.5 51z" />
<glyph unicode="&#x205f;" horiz-adv-x="533" />
<glyph unicode="&#x20ac;" horiz-adv-x="1691" d="M1518 662q70 -47 87 -133.5t-16 -184.5t-113.5 -185t-209.5 -141.5t-305 -50.5q-80 2 -175.5 29t-190.5 85t-172 156.5t-120 243.5q-4 18 -13 29.5t-20 19.5q-18 14 -38.5 15.5t-36.5 1.5h-33q-66 0 -78 55q-10 57 10 80q12 16 27.5 22.5t30.5 6.5h45q47 0 62 23.5 t11 49.5q-2 18 -29.5 26.5t-52.5 10.5l-26 2q-66 0 -78 56q-10 53 10 79q12 16 36 22.5t26 6.5q20 0 53 10.5t63.5 28.5t38.5 45q55 195 167 318.5t253 184t281 64.5q121 4 210 -36.5t144 -106t74.5 -138.5t-0.5 -132q-25 -76 -76 -111t-106.5 -26.5t-94.5 55.5 q35 27 24 66.5t-61.5 70.5t-130.5 27q-35 -2 -91 -18.5t-103 -67.5q-49 -53 -50 -107.5t42 -90.5t122 -36h119q12 0 27.5 -6t28.5 -23q20 -27 10 -79q-4 -27 -25.5 -41.5t-50.5 -14.5q-4 0 -44 2t-90 2t-87 -4q-90 -10 -125 -23.5t-37 -35.5q0 -14 24.5 -25.5t58.5 -17.5 t58 -10q41 -4 99.5 -4t104.5 2t48 2q12 0 27.5 -6.5t28.5 -22.5q20 -23 10 -80q-4 -27 -25.5 -41t-50.5 -14h-68q-68 0 -105.5 -16.5t-43.5 -43.5q-10 -43 61 -96q55 -41 127 -41t139.5 22.5t108.5 47.5q37 23 92.5 61.5t106.5 86t76 94.5z" />
<glyph unicode="&#x2122;" horiz-adv-x="2088" d="M492 1610q57 0 130.5 4t135 12t76.5 21q14 -12 20 -53.5t5 -90.5t-11 -87t-31 -44q-6 -2 -19.5 -3t-31.5 -5q-66 -10 -108 -95t-46 -198q-2 -74 -1 -122t1 -83q0 -33 19.5 -60.5t36.5 -43.5q-14 -14 -48 -31.5t-72 -28t-67 -10.5q-20 0 -58 18.5t-66.5 55.5t-24.5 92v207 q0 106 -44 191t-110 102q-6 0 -28.5 6t-26.5 8q-12 10 -20.5 42t-13.5 74t-6 81t-1 59q8 -2 57 -5t117 -6t132.5 -5t103.5 -2zM1989 825q4 -20 7 -43.5t11 -33.5q-12 -10 -47 -23.5t-73 -22t-62 -10.5q-39 -2 -70 37t-31 92q0 2 2.5 18.5t2.5 34.5q0 39 -11.5 51.5 t-25.5 16.5q-33 6 -78 -78l-5 -9t-7 -11q-25 -41 -57 -72t-103 -24q-29 2 -61.5 31.5t-61.5 67.5t-47 67l-19 28q-23 33 -43 29q-29 -10 -34 -88v-60q4 -20 10 -38.5t14 -34.5q-18 -12 -56 -26.5t-78 -23t-67 -6.5q-39 4 -68.5 20.5t-29.5 69.5q0 12 -1 78t-2 162t-1 199.5 t-1 195.5t-1 149v58q12 2 46 1t77 -7t82 -21.5t59 -42.5l144 -202q45 -68 108 -74q47 -6 92 21.5t78 87.5l139 237q12 2 53.5 1t88.5 -11t83.5 -31.5t41.5 -62.5q4 -27 4 -103v-172t-1 -189t-2 -158t1 -75z" />
<glyph unicode="&#x25fc;" horiz-adv-x="1167" vert-adv-y="2334" d="M0 1167h1167v-1167h-1167v1167z" />
<glyph unicode="&#xfb03;" horiz-adv-x="2150" d="M1993 207q2 -37 23.5 -62.5t51.5 -48.5q-14 -18 -36.5 -38.5t-66.5 -38t-126 -27.5q-27 -4 -67.5 3t-79.5 42t-63.5 109.5t-20.5 205.5q0 12 -1 51t-1 88.5v91.5v58q2 84 -32 108.5t-73 8t-57 -59.5q-20 -45 -34.5 -110.5t-12.5 -145.5l-1 -38q-1 -37 -4 -92.5 t-8.5 -106.5t-15.5 -78q-33 -98 -132 -152.5t-300 -27.5q10 23 20.5 74t18.5 115.5t13 129t5 111.5q0 55 1 116.5t-4 116t-19.5 89t-44.5 38.5q-61 8 -96 -63.5t-48 -216.5q-4 -45 -8 -109.5t-11 -124t-20 -96.5q-33 -98 -132 -152.5t-300 -27.5q14 29 24.5 94t16.5 143 t4 142q0 31 -6 141q-12 129 -67 219q-14 25 -52 55.5t-67 46.5q-37 23 -54.5 84.5t-22.5 131t-5 116.5q6 -2 31.5 -7t54.5 -7t45 0q47 4 79 39t30 106q0 82 26.5 161t85 138.5t152.5 75.5q66 12 136.5 18.5t131.5 8.5t99 2h38l-6 -42q-6 -42 -22.5 -99.5t-47 -106.5 t-81.5 -66q-51 -16 -72 -47.5t-25 -66.5q-2 -10 -1 -40t21.5 -55.5t76.5 -25.5q84 0 107.5 37t21.5 108q0 82 25.5 161t83.5 138.5t155 75.5q131 25 227 33t207 -4q127 -12 195.5 -50t95 -81t26.5 -78q0 -45 -18 -95.5t-59 -84.5q-14 -12 -57.5 -27.5t-98.5 -12.5t-111 46 q-12 12 -37.5 28.5t-58.5 22.5t-72 -18q-45 -29 -69.5 -70t-22.5 -74q0 -43 28 -64.5t66 -19.5q49 4 80 19.5t61.5 33t76.5 25.5q35 6 84 1t97 -22.5t81.5 -51t40.5 -85.5q10 -78 8 -208t-5 -282.5t1 -299.5z" />
<glyph unicode="&#xfb04;" horiz-adv-x="2238" d="M2081 246q0 -43 24.5 -84t51.5 -51q-12 -14 -55.5 -42t-99.5 -50.5t-114 -26.5q-47 -4 -97 21.5t-84 74.5t-34 115q0 8 -1 51t-3 101.5t-4 119t-4 106.5t-2 62q0 27 -17.5 53.5t-42 42t-47.5 6.5q-55 -18 -86.5 -70t-43 -115.5t-9.5 -117.5l1 -38q1 -37 1 -92.5 t-3 -106.5t-13 -78q-33 -98 -132.5 -152.5t-299.5 -27.5q14 29 24 94t16.5 143t4.5 142q0 31 -6 141q-2 25 -5.5 69t-12.5 91t-26.5 78.5t-48.5 31.5q-47 -2 -74.5 -54t-40 -123t-12.5 -132l-3 -36q-3 -36 -9 -88t-13 -101t-18 -76q-33 -98 -132 -152.5t-300 -27.5 q14 29 24.5 94t16.5 143t4 142q0 31 -6 141q-12 129 -67 219q-14 25 -52 55.5t-67 46.5q-37 23 -54.5 84.5t-22.5 131t-5 116.5q6 -2 30.5 -7t54.5 -7t46 0q47 4 79 39t30 106q0 82 25.5 161t83.5 138.5t155 75.5q66 12 137.5 18.5t134 8.5t100.5 2h39v-44q0 -44 -8 -103.5 t-32.5 -112t-75.5 -68.5q-39 -12 -61.5 -24.5t-41.5 -40.5q-29 -45 -29.5 -80t15.5 -60q18 -25 51 -38t68 -13q49 0 74.5 28.5t33.5 70.5t8 81q-2 82 24 161t85 138.5t154 75.5q47 8 90 -1t88 -20.5t92 -11.5t100 25t126 28t142.5 -18.5t117.5 -70t50 -127.5 q2 -39 3.5 -136.5t2.5 -227.5t3 -266t3 -257t1 -202v-95zM1651 1139q4 14 5 47t-7.5 66.5t-29 54t-58.5 10.5q-76 -20 -114 -65.5t-38 -90.5q2 -43 26.5 -64.5t63.5 -19.5q18 2 50 2t62 12.5t40 47.5z" />
</font>
</defs>
</svg>
